<ttFont>
    <TTGlyph name="A" xMin="9" yMin="-9" xMax="630" yMax="689">
      <contour>
        <pt x="242" y="143" on="1"/>
        <pt x="215" y="143" on="0"/>
        <pt x="202" y="144" on="1"/>
        <pt x="159" y="-1" on="1"/>
        <pt x="135" y="-7" on="0"/>
        <pt x="92" y="-7" on="1"/>
        <pt x="44" y="-7" on="0"/>
        <pt x="14" y="4" on="1"/>
        <pt x="9" y="12" on="1"/>
        <pt x="229" y="683" on="1"/>
        <pt x="268" y="689" on="0"/>
        <pt x="320" y="689" on="1"/>
        <pt x="379" y="689" on="0"/>
        <pt x="414" y="682" on="1"/>
        <pt x="630" y="10" on="1"/>
        <pt x="595" y="-9" on="0"/>
        <pt x="551" y="-9" on="1"/>
        <pt x="499" y="-9" on="0"/>
        <pt x="457" y="27" on="0"/>
        <pt x="442" y="78" on="1"/>
        <pt x="423" y="144" on="1"/>
        <pt x="410" y="143" on="0"/>
        <pt x="384" y="143" on="1"/>
      </contour>
      <contour>
        <pt x="239" y="269" on="1"/>
        <pt x="279" y="270" on="1"/>
        <pt x="352" y="270" on="1"/>
        <pt x="357" y="270" on="0"/>
        <pt x="382" y="269" on="0"/>
        <pt x="388" y="269" on="1"/>
        <pt x="371" y="331" on="1"/>
        <pt x="347" y="415" on="0"/>
        <pt x="316" y="537" on="1"/>
        <pt x="310" y="537" on="1"/>
        <pt x="302" y="494" on="0"/>
        <pt x="262" y="346" on="1"/>
      </contour>
    </TTGlyph>
    <TTGlyph name="AE" xMin="5" yMin="-6" xMax="852" yMax="683">
      <contour>
        <pt x="544" y="204" on="1"/>
        <pt x="543" y="130" on="1"/>
        <pt x="543" y="129" on="1"/>
        <pt x="587" y="131" on="0"/>
        <pt x="617" y="131" on="1"/>
        <pt x="852" y="131" on="1"/>
        <pt x="852" y="94" on="0"/>
        <pt x="849" y="74" on="1"/>
        <pt x="835" y="-3" on="0"/>
        <pt x="747" y="-3" on="1"/>
        <pt x="480" y="-3" on="1"/>
        <pt x="438" y="-3" on="0"/>
        <pt x="390" y="47" on="0"/>
        <pt x="390" y="90" on="1"/>
        <pt x="390" y="144" on="1"/>
        <pt x="377" y="143" on="0"/>
        <pt x="355" y="143" on="1"/>
        <pt x="267" y="143" on="1"/>
        <pt x="240" y="143" on="0"/>
        <pt x="226" y="144" on="1"/>
        <pt x="166" y="0" on="1"/>
        <pt x="142" y="-6" on="0"/>
        <pt x="36" y="-6" on="0"/>
        <pt x="10" y="5" on="1"/>
        <pt x="5" y="13" on="1"/>
        <pt x="300" y="669" on="1"/>
        <pt x="329" y="683" on="0"/>
        <pt x="397" y="683" on="1"/>
        <pt x="827" y="683" on="1"/>
        <pt x="832" y="653" on="0"/>
        <pt x="832" y="584" on="0"/>
        <pt x="819" y="549" on="1"/>
        <pt x="543" y="549" on="1"/>
        <pt x="544" y="477" on="1"/>
        <pt x="544" y="407" on="1"/>
        <pt x="570" y="408" on="0"/>
        <pt x="612" y="408" on="1"/>
        <pt x="767" y="408" on="1"/>
        <pt x="777" y="381" on="0"/>
        <pt x="777" y="307" on="0"/>
        <pt x="767" y="278" on="1"/>
        <pt x="544" y="278" on="1"/>
      </contour>
      <contour>
        <pt x="354" y="268" on="1"/>
        <pt x="390" y="267" on="1"/>
        <pt x="390" y="537" on="1"/>
        <pt x="385" y="537" on="1"/>
        <pt x="352" y="443" on="0"/>
        <pt x="310" y="345" on="1"/>
        <pt x="277" y="267" on="1"/>
        <pt x="311" y="268" on="1"/>
      </contour>
    </TTGlyph>
    <TTGlyph name="Aacute" xMin="9" yMin="-9" xMax="630" yMax="939">
      <component glyphName="A" x="0" y="0" flags="0x204"/>
      <component glyphName="acute.cap" x="123" y="0" flags="0x4"/>
    </TTGlyph>
    <TTGlyph name="Acircumflex" xMin="9" yMin="-9" xMax="630" yMax="923">
      <component glyphName="A" x="0" y="0" flags="0x204"/>
      <component glyphName="circumflex.cap" x="123" y="0" flags="0x4"/>
    </TTGlyph>
    <TTGlyph name="Adieresis" xMin="9" yMin="-9" xMax="630" yMax="870">
      <component glyphName="A" x="0" y="0" flags="0x204"/>
      <component glyphName="dieresis.cap" x="124" y="0" flags="0x4"/>
    </TTGlyph>
    <TTGlyph name="Agrave" xMin="9" yMin="-9" xMax="630" yMax="939">
      <component glyphName="A" x="0" y="0" flags="0x204"/>
      <component glyphName="grave.cap" x="123" y="0" flags="0x4"/>
    </TTGlyph>
    <TTGlyph name="Aogonek" xMin="9" yMin="-218" xMax="668" yMax="689">
      <contour>
        <pt x="621" y="6" on="1"/>
        <pt x="544" y="-36" on="0"/>
        <pt x="544" y="-85" on="1"/>
        <pt x="544" y="-122" on="0"/>
        <pt x="585" y="-122" on="1"/>
        <pt x="611" y="-122" on="0"/>
        <pt x="635" y="-107" on="1"/>
        <pt x="665" y="-133" on="0"/>
        <pt x="668" y="-178" on="1"/>
        <pt x="618" y="-218" on="0"/>
        <pt x="557" y="-218" on="1"/>
        <pt x="497" y="-218" on="0"/>
        <pt x="431" y="-164" on="0"/>
        <pt x="431" y="-119" on="1"/>
        <pt x="431" y="-56" on="0"/>
        <pt x="494" y="-1" on="1"/>
        <pt x="460" y="13" on="0"/>
        <pt x="442" y="78" on="1"/>
        <pt x="423" y="144" on="1"/>
        <pt x="410" y="143" on="0"/>
        <pt x="384" y="143" on="1"/>
        <pt x="242" y="143" on="1"/>
        <pt x="215" y="143" on="0"/>
        <pt x="202" y="144" on="1"/>
        <pt x="159" y="-1" on="1"/>
        <pt x="135" y="-7" on="0"/>
        <pt x="44" y="-7" on="0"/>
        <pt x="14" y="4" on="1"/>
        <pt x="9" y="12" on="1"/>
        <pt x="229" y="683" on="1"/>
        <pt x="268" y="689" on="0"/>
        <pt x="379" y="689" on="0"/>
        <pt x="414" y="682" on="1"/>
        <pt x="630" y="10" on="1"/>
      </contour>
      <contour>
        <pt x="239" y="269" on="1"/>
        <pt x="279" y="270" on="1"/>
        <pt x="352" y="270" on="1"/>
        <pt x="357" y="270" on="0"/>
        <pt x="382" y="269" on="0"/>
        <pt x="388" y="269" on="1"/>
        <pt x="371" y="331" on="1"/>
        <pt x="347" y="415" on="0"/>
        <pt x="316" y="537" on="1"/>
        <pt x="310" y="537" on="1"/>
        <pt x="302" y="494" on="0"/>
        <pt x="262" y="346" on="1"/>
      </contour>
    </TTGlyph>
    <TTGlyph name="Aring" xMin="9" yMin="-9" xMax="630" yMax="916">
      <contour>
        <pt x="407" y="683" on="1"/>
        <pt x="414" y="682" on="1"/>
        <pt x="630" y="10" on="1"/>
        <pt x="596" y="-9" on="0"/>
        <pt x="547" y="-9" on="1"/>
        <pt x="523" y="-9" on="0"/>
        <pt x="490" y="-1" on="0"/>
        <pt x="466" y="19" on="0"/>
        <pt x="449" y="52" on="0"/>
        <pt x="442" y="78" on="1"/>
        <pt x="423" y="144" on="1"/>
        <pt x="416" y="143" on="0"/>
        <pt x="397" y="143" on="0"/>
        <pt x="384" y="143" on="1"/>
        <pt x="242" y="143" on="1"/>
        <pt x="228" y="143" on="0"/>
        <pt x="209" y="143" on="0"/>
        <pt x="202" y="144" on="1"/>
        <pt x="159" y="-1" on="1"/>
        <pt x="135" y="-7" on="0"/>
        <pt x="89" y="-7" on="1"/>
        <pt x="45" y="-7" on="0"/>
        <pt x="14" y="4" on="1"/>
        <pt x="9" y="12" on="1"/>
        <pt x="229" y="683" on="1"/>
        <pt x="234" y="683" on="0"/>
        <pt x="235" y="684" on="1"/>
        <pt x="181" y="718" on="0"/>
        <pt x="181" y="788" on="1"/>
        <pt x="181" y="815" on="0"/>
        <pt x="202" y="862" on="0"/>
        <pt x="239" y="897" on="0"/>
        <pt x="290" y="916" on="0"/>
        <pt x="320" y="916" on="1"/>
        <pt x="353" y="916" on="0"/>
        <pt x="405" y="897" on="0"/>
        <pt x="443" y="863" on="0"/>
        <pt x="463" y="817" on="0"/>
        <pt x="463" y="790" on="1"/>
        <pt x="463" y="721" on="0"/>
      </contour>
      <contour>
        <pt x="239" y="269" on="1"/>
        <pt x="352" y="270" on="1"/>
        <pt x="357" y="270" on="0"/>
        <pt x="382" y="269" on="0"/>
        <pt x="388" y="269" on="1"/>
        <pt x="371" y="331" on="1"/>
        <pt x="359" y="373" on="0"/>
        <pt x="331" y="476" on="0"/>
        <pt x="316" y="537" on="1"/>
        <pt x="310" y="537" on="1"/>
        <pt x="303" y="496" on="0"/>
        <pt x="262" y="346" on="1"/>
      </contour>
      <contour>
        <pt x="286" y="824" on="1"/>
        <pt x="273" y="810" on="0"/>
        <pt x="273" y="788" on="1"/>
        <pt x="273" y="765" on="0"/>
        <pt x="300" y="737" on="0"/>
        <pt x="322" y="737" on="1"/>
        <pt x="345" y="737" on="0"/>
        <pt x="371" y="768" on="0"/>
        <pt x="371" y="788" on="1"/>
        <pt x="371" y="808" on="0"/>
        <pt x="343" y="839" on="0"/>
        <pt x="322" y="839" on="1"/>
        <pt x="312" y="839" on="0"/>
        <pt x="293" y="832" on="0"/>
      </contour>
    </TTGlyph>
    <TTGlyph name="Atilde" xMin="9" yMin="-9" xMax="630" yMax="908">
      <component glyphName="A" x="0" y="0" flags="0x204"/>
      <component glyphName="tilde.cap" x="123" y="0" flags="0x4"/>
    </TTGlyph>
    <TTGlyph name="B" xMin="76" yMin="-6" xMax="580" yMax="689">
      <contour>
        <pt x="83" y="685" on="1"/>
        <pt x="164" y="687" on="0"/>
        <pt x="279" y="689" on="0"/>
        <pt x="314" y="689" on="1"/>
        <pt x="423" y="689" on="0"/>
        <pt x="548" y="598" on="0"/>
        <pt x="548" y="507" on="1"/>
        <pt x="548" y="463" on="0"/>
        <pt x="498" y="387" on="0"/>
        <pt x="459" y="370" on="1"/>
        <pt x="484" y="362" on="0"/>
        <pt x="529" y="327" on="0"/>
        <pt x="561" y="280" on="0"/>
        <pt x="580" y="225" on="0"/>
        <pt x="580" y="196" on="1"/>
        <pt x="580" y="93" on="0"/>
        <pt x="449" y="-6" on="0"/>
        <pt x="329" y="-6" on="1"/>
        <pt x="292" y="-6" on="0"/>
        <pt x="170" y="-4" on="0"/>
        <pt x="83" y="-2" on="1"/>
        <pt x="76" y="5" on="1"/>
        <pt x="76" y="678" on="1"/>
      </contour>
      <contour>
        <pt x="317" y="301" on="1"/>
        <pt x="234" y="301" on="1"/>
        <pt x="234" y="106" on="1"/>
        <pt x="260" y="107" on="0"/>
        <pt x="325" y="105" on="0"/>
        <pt x="381" y="117" on="0"/>
        <pt x="419" y="163" on="0"/>
        <pt x="419" y="204" on="1"/>
        <pt x="419" y="243" on="0"/>
        <pt x="370" y="301" on="0"/>
      </contour>
      <contour>
        <pt x="234" y="576" on="1"/>
        <pt x="234" y="415" on="1"/>
        <pt x="305" y="415" on="1"/>
        <pt x="353" y="415" on="0"/>
        <pt x="392" y="462" on="0"/>
        <pt x="392" y="496" on="1"/>
        <pt x="392" y="530" on="0"/>
        <pt x="352" y="575" on="0"/>
        <pt x="305" y="575" on="1"/>
        <pt x="282" y="575" on="0"/>
        <pt x="247" y="575" on="0"/>
      </contour>
    </TTGlyph>
    <TTGlyph name="C" xMin="36" yMin="-15" xMax="585" yMax="699">
      <contour>
        <pt x="433" y="411" on="1"/>
        <pt x="433" y="423" on="1"/>
        <pt x="433" y="571" on="0"/>
        <pt x="323" y="571" on="1"/>
        <pt x="260" y="571" on="0"/>
        <pt x="204" y="456" on="0"/>
        <pt x="204" y="344" on="1"/>
        <pt x="204" y="233" on="0"/>
        <pt x="274" y="125" on="0"/>
        <pt x="341" y="125" on="1"/>
        <pt x="376" y="125" on="0"/>
        <pt x="461" y="158" on="0"/>
        <pt x="511" y="194" on="1"/>
        <pt x="536" y="177" on="0"/>
        <pt x="579" y="118" on="0"/>
        <pt x="584" y="91" on="1"/>
        <pt x="561" y="69" on="0"/>
        <pt x="500" y="30" on="0"/>
        <pt x="429" y="2" on="0"/>
        <pt x="352" y="-15" on="0"/>
        <pt x="313" y="-15" on="1"/>
        <pt x="236" y="-15" on="0"/>
        <pt x="130" y="44" on="0"/>
        <pt x="65" y="142" on="0"/>
        <pt x="36" y="270" on="0"/>
        <pt x="36" y="339" on="1"/>
        <pt x="36" y="429" on="0"/>
        <pt x="81" y="564" on="0"/>
        <pt x="158" y="654" on="0"/>
        <pt x="262" y="699" on="0"/>
        <pt x="321" y="699" on="1"/>
        <pt x="381" y="699" on="0"/>
        <pt x="479" y="667" on="0"/>
        <pt x="548" y="611" on="0"/>
        <pt x="585" y="535" on="0"/>
        <pt x="585" y="491" on="1"/>
        <pt x="585" y="402" on="0"/>
        <pt x="494" y="402" on="1"/>
        <pt x="467" y="402" on="0"/>
      </contour>
    </TTGlyph>
    <TTGlyph name="Cacute" xMin="36" yMin="-15" xMax="585" yMax="939">
      <component glyphName="C" x="0" y="0" flags="0x204"/>
      <component glyphName="acute.cap" x="128" y="0" flags="0x4"/>
    </TTGlyph>
    <TTGlyph name="Ccaron" xMin="36" yMin="-15" xMax="585" yMax="932">
      <component glyphName="C" x="0" y="0" flags="0x204"/>
      <component glyphName="caron.cap" x="127" y="0" flags="0x4"/>
    </TTGlyph>
    <TTGlyph name="Ccedilla" xMin="36" yMin="-232" xMax="585" yMax="699">
      <contour>
        <pt x="254" y="-78" on="1"/>
        <pt x="258" y="-61" on="0"/>
        <pt x="268" y="-29" on="0"/>
        <pt x="274" y="-13" on="1"/>
        <pt x="209" y="-6" on="0"/>
        <pt x="119" y="56" on="0"/>
        <pt x="62" y="152" on="0"/>
        <pt x="36" y="273" on="0"/>
        <pt x="36" y="339" on="1"/>
        <pt x="36" y="429" on="0"/>
        <pt x="81" y="564" on="0"/>
        <pt x="158" y="654" on="0"/>
        <pt x="262" y="699" on="0"/>
        <pt x="321" y="699" on="1"/>
        <pt x="381" y="699" on="0"/>
        <pt x="479" y="667" on="0"/>
        <pt x="548" y="611" on="0"/>
        <pt x="585" y="535" on="0"/>
        <pt x="585" y="491" on="1"/>
        <pt x="585" y="402" on="0"/>
        <pt x="494" y="402" on="1"/>
        <pt x="467" y="402" on="0"/>
        <pt x="433" y="411" on="1"/>
        <pt x="433" y="423" on="1"/>
        <pt x="433" y="571" on="0"/>
        <pt x="323" y="571" on="1"/>
        <pt x="260" y="571" on="0"/>
        <pt x="204" y="456" on="0"/>
        <pt x="204" y="344" on="1"/>
        <pt x="204" y="233" on="0"/>
        <pt x="274" y="125" on="0"/>
        <pt x="341" y="125" on="1"/>
        <pt x="376" y="125" on="0"/>
        <pt x="461" y="158" on="0"/>
        <pt x="511" y="194" on="1"/>
        <pt x="536" y="177" on="0"/>
        <pt x="579" y="118" on="0"/>
        <pt x="584" y="91" on="1"/>
        <pt x="545" y="52" on="0"/>
        <pt x="423" y="-5" on="0"/>
        <pt x="354" y="-12" on="1"/>
        <pt x="346" y="-32" on="1"/>
        <pt x="392" y="-34" on="0"/>
        <pt x="447" y="-84" on="0"/>
        <pt x="447" y="-127" on="1"/>
        <pt x="447" y="-148" on="0"/>
        <pt x="426" y="-186" on="0"/>
        <pt x="389" y="-215" on="0"/>
        <pt x="339" y="-232" on="0"/>
        <pt x="311" y="-232" on="1"/>
        <pt x="254" y="-232" on="0"/>
        <pt x="221" y="-208" on="1"/>
        <pt x="223" y="-167" on="0"/>
        <pt x="247" y="-141" on="1"/>
        <pt x="266" y="-154" on="0"/>
        <pt x="293" y="-154" on="1"/>
        <pt x="329" y="-154" on="0"/>
        <pt x="329" y="-126" on="1"/>
        <pt x="329" y="-109" on="0"/>
        <pt x="310" y="-97" on="0"/>
        <pt x="297" y="-97" on="1"/>
        <pt x="286" y="-97" on="0"/>
        <pt x="276" y="-100" on="1"/>
        <pt x="261" y="-93" on="0"/>
      </contour>
    </TTGlyph>
    <TTGlyph name="D" xMin="76" yMin="-6" xMax="630" yMax="689">
      <contour>
        <pt x="518" y="44" on="1"/>
        <pt x="486" y="18" on="0"/>
        <pt x="382" y="-6" on="0"/>
        <pt x="319" y="-6" on="1"/>
        <pt x="288" y="-6" on="0"/>
        <pt x="171" y="-4" on="0"/>
        <pt x="83" y="-2" on="1"/>
        <pt x="76" y="5" on="1"/>
        <pt x="76" y="678" on="1"/>
        <pt x="83" y="685" on="1"/>
        <pt x="141" y="687" on="0"/>
        <pt x="266" y="689" on="0"/>
        <pt x="335" y="689" on="1"/>
        <pt x="420" y="689" on="0"/>
        <pt x="534" y="635" on="0"/>
        <pt x="602" y="541" on="0"/>
        <pt x="630" y="414" on="0"/>
        <pt x="630" y="341" on="1"/>
        <pt x="630" y="241" on="0"/>
        <pt x="584" y="95" on="0"/>
      </contour>
      <contour>
        <pt x="334" y="119" on="1"/>
        <pt x="466" y="119" on="0"/>
        <pt x="466" y="341" on="1"/>
        <pt x="466" y="564" on="0"/>
        <pt x="334" y="564" on="1"/>
        <pt x="302" y="564" on="0"/>
        <pt x="253" y="564" on="0"/>
        <pt x="235" y="565" on="1"/>
        <pt x="235" y="118" on="1"/>
        <pt x="253" y="119" on="0"/>
        <pt x="302" y="119" on="0"/>
      </contour>
    </TTGlyph>
    <TTGlyph name="Dcaron" xMin="76" yMin="-6" xMax="630" yMax="932">
      <component glyphName="D" x="0" y="0" flags="0x204"/>
      <component glyphName="caron.cap" x="121" y="0" flags="0x4"/>
    </TTGlyph>
    <TTGlyph name="E" xMin="75" yMin="-3" xMax="538" yMax="683">
      <contour>
        <pt x="233" y="202" on="1"/>
        <pt x="232" y="130" on="1"/>
        <pt x="232" y="129" on="1"/>
        <pt x="278" y="131" on="0"/>
        <pt x="306" y="131" on="1"/>
        <pt x="538" y="131" on="1"/>
        <pt x="538" y="94" on="0"/>
        <pt x="535" y="74" on="1"/>
        <pt x="523" y="-3" on="0"/>
        <pt x="433" y="-3" on="1"/>
        <pt x="167" y="-3" on="1"/>
        <pt x="124" y="-3" on="0"/>
        <pt x="75" y="47" on="0"/>
        <pt x="75" y="90" on="1"/>
        <pt x="75" y="676" on="1"/>
        <pt x="82" y="683" on="1"/>
        <pt x="513" y="683" on="1"/>
        <pt x="519" y="654" on="0"/>
        <pt x="519" y="586" on="0"/>
        <pt x="505" y="549" on="1"/>
        <pt x="232" y="549" on="1"/>
        <pt x="233" y="477" on="1"/>
        <pt x="233" y="407" on="1"/>
        <pt x="259" y="408" on="0"/>
        <pt x="301" y="408" on="1"/>
        <pt x="454" y="408" on="1"/>
        <pt x="463" y="380" on="0"/>
        <pt x="463" y="308" on="0"/>
        <pt x="454" y="278" on="1"/>
        <pt x="233" y="278" on="1"/>
      </contour>
    </TTGlyph>
    <TTGlyph name="Eacute" xMin="75" yMin="-3" xMax="538" yMax="939">
      <component glyphName="E" x="0" y="0" flags="0x204"/>
      <component glyphName="acute.cap" x="100" y="0" flags="0x4"/>
    </TTGlyph>
    <TTGlyph name="Ecaron" xMin="75" yMin="-3" xMax="538" yMax="932">
      <component glyphName="E" x="0" y="0" flags="0x204"/>
      <component glyphName="caron.cap" x="100" y="0" flags="0x4"/>
    </TTGlyph>
    <TTGlyph name="Ecircumflex" xMin="75" yMin="-3" xMax="538" yMax="923">
      <component glyphName="E" x="0" y="0" flags="0x204"/>
      <component glyphName="circumflex.cap" x="100" y="0" flags="0x4"/>
    </TTGlyph>
    <TTGlyph name="Edieresis" xMin="75" yMin="-3" xMax="538" yMax="870">
      <component glyphName="E" x="0" y="0" flags="0x204"/>
      <component glyphName="dieresis.cap" x="101" y="0" flags="0x4"/>
    </TTGlyph>
    <TTGlyph name="Egrave" xMin="75" yMin="-3" xMax="538" yMax="939">
      <component glyphName="E" x="0" y="0" flags="0x204"/>
      <component glyphName="grave.cap" x="100" y="0" flags="0x4"/>
    </TTGlyph>
    <TTGlyph name="Eogonek" xMin="75" yMin="-218" xMax="538" yMax="683">
      <contour>
        <pt x="233" y="202" on="1"/>
        <pt x="232" y="130" on="1"/>
        <pt x="232" y="129" on="1"/>
        <pt x="278" y="131" on="0"/>
        <pt x="306" y="131" on="1"/>
        <pt x="538" y="131" on="1"/>
        <pt x="538" y="94" on="0"/>
        <pt x="535" y="74" on="1"/>
        <pt x="527" y="23" on="0"/>
        <pt x="483" y="6" on="1"/>
        <pt x="479" y="4" on="1"/>
        <pt x="440" y="-11" on="0"/>
        <pt x="402" y="-60" on="0"/>
        <pt x="402" y="-85" on="1"/>
        <pt x="402" y="-122" on="0"/>
        <pt x="443" y="-122" on="1"/>
        <pt x="469" y="-122" on="0"/>
        <pt x="493" y="-107" on="1"/>
        <pt x="523" y="-133" on="0"/>
        <pt x="526" y="-178" on="1"/>
        <pt x="476" y="-218" on="0"/>
        <pt x="415" y="-218" on="1"/>
        <pt x="355" y="-218" on="0"/>
        <pt x="288" y="-163" on="0"/>
        <pt x="288" y="-117" on="1"/>
        <pt x="288" y="-52" on="0"/>
        <pt x="349" y="-3" on="1"/>
        <pt x="167" y="-3" on="1"/>
        <pt x="124" y="-3" on="0"/>
        <pt x="75" y="47" on="0"/>
        <pt x="75" y="90" on="1"/>
        <pt x="75" y="676" on="1"/>
        <pt x="82" y="683" on="1"/>
        <pt x="513" y="683" on="1"/>
        <pt x="519" y="654" on="0"/>
        <pt x="519" y="586" on="0"/>
        <pt x="505" y="549" on="1"/>
        <pt x="232" y="549" on="1"/>
        <pt x="233" y="477" on="1"/>
        <pt x="233" y="407" on="1"/>
        <pt x="259" y="408" on="0"/>
        <pt x="301" y="408" on="1"/>
        <pt x="454" y="408" on="1"/>
        <pt x="463" y="380" on="0"/>
        <pt x="463" y="308" on="0"/>
        <pt x="454" y="278" on="1"/>
        <pt x="233" y="278" on="1"/>
      </contour>
    </TTGlyph>
    <TTGlyph name="Eth" xMin="17" yMin="-6" xMax="645" yMax="689">
      <contour>
        <pt x="533" y="44" on="1"/>
        <pt x="501" y="18" on="0"/>
        <pt x="398" y="-6" on="0"/>
        <pt x="335" y="-6" on="1"/>
        <pt x="303" y="-6" on="0"/>
        <pt x="186" y="-4" on="0"/>
        <pt x="98" y="-2" on="1"/>
        <pt x="91" y="5" on="1"/>
        <pt x="91" y="282" on="1"/>
        <pt x="24" y="282" on="1"/>
        <pt x="17" y="303" on="0"/>
        <pt x="17" y="345" on="1"/>
        <pt x="17" y="387" on="0"/>
        <pt x="24" y="411" on="1"/>
        <pt x="91" y="411" on="1"/>
        <pt x="91" y="678" on="1"/>
        <pt x="98" y="685" on="1"/>
        <pt x="156" y="687" on="0"/>
        <pt x="282" y="689" on="0"/>
        <pt x="351" y="689" on="1"/>
        <pt x="437" y="689" on="0"/>
        <pt x="550" y="635" on="0"/>
        <pt x="618" y="540" on="0"/>
        <pt x="645" y="413" on="0"/>
        <pt x="645" y="341" on="1"/>
        <pt x="645" y="240" on="0"/>
        <pt x="599" y="95" on="0"/>
      </contour>
      <contour>
        <pt x="374" y="282" on="1"/>
        <pt x="247" y="282" on="1"/>
        <pt x="247" y="118" on="1"/>
        <pt x="264" y="119" on="0"/>
        <pt x="316" y="119" on="0"/>
        <pt x="350" y="119" on="1"/>
        <pt x="481" y="119" on="0"/>
        <pt x="481" y="341" on="1"/>
        <pt x="481" y="564" on="0"/>
        <pt x="350" y="564" on="1"/>
        <pt x="316" y="564" on="0"/>
        <pt x="264" y="564" on="0"/>
        <pt x="247" y="565" on="1"/>
        <pt x="247" y="411" on="1"/>
        <pt x="374" y="411" on="1"/>
        <pt x="380" y="385" on="0"/>
        <pt x="380" y="346" on="1"/>
        <pt x="380" y="306" on="0"/>
      </contour>
    </TTGlyph>
    <TTGlyph name="Euro" xMin="6" yMin="-15" xMax="554" yMax="663">
      <contour>
        <pt x="491" y="483" on="1"/>
        <pt x="418" y="538" on="0"/>
        <pt x="346" y="538" on="1"/>
        <pt x="274" y="538" on="0"/>
        <pt x="251" y="452" on="1"/>
        <pt x="412" y="452" on="1"/>
        <pt x="418" y="428" on="0"/>
        <pt x="418" y="403" on="1"/>
        <pt x="418" y="378" on="0"/>
        <pt x="412" y="356" on="1"/>
        <pt x="238" y="356" on="1"/>
        <pt x="238" y="291" on="1"/>
        <pt x="412" y="291" on="1"/>
        <pt x="418" y="267" on="0"/>
        <pt x="418" y="242" on="1"/>
        <pt x="418" y="217" on="0"/>
        <pt x="412" y="195" on="1"/>
        <pt x="251" y="195" on="1"/>
        <pt x="273" y="110" on="0"/>
        <pt x="345" y="110" on="1"/>
        <pt x="417" y="110" on="0"/>
        <pt x="491" y="164" on="1"/>
        <pt x="516" y="150" on="0"/>
        <pt x="550" y="100" on="0"/>
        <pt x="554" y="73" on="1"/>
        <pt x="451" y="-15" on="0"/>
        <pt x="326" y="-15" on="1"/>
        <pt x="137" y="-15" on="0"/>
        <pt x="95" y="195" on="1"/>
        <pt x="12" y="195" on="1"/>
        <pt x="9" y="204" on="0"/>
        <pt x="6" y="229" on="0"/>
        <pt x="6" y="242" on="1"/>
        <pt x="6" y="270" on="0"/>
        <pt x="12" y="291" on="1"/>
        <pt x="84" y="291" on="1"/>
        <pt x="83" y="296" on="0"/>
        <pt x="83" y="313" on="0"/>
        <pt x="83" y="323" on="1"/>
        <pt x="83" y="332" on="0"/>
        <pt x="83" y="350" on="0"/>
        <pt x="84" y="356" on="1"/>
        <pt x="12" y="356" on="1"/>
        <pt x="9" y="365" on="0"/>
        <pt x="6" y="390" on="0"/>
        <pt x="6" y="403" on="1"/>
        <pt x="6" y="431" on="0"/>
        <pt x="12" y="452" on="1"/>
        <pt x="94" y="452" on="1"/>
        <pt x="137" y="663" on="0"/>
        <pt x="326" y="663" on="1"/>
        <pt x="451" y="663" on="0"/>
        <pt x="554" y="575" on="1"/>
        <pt x="550" y="548" on="0"/>
        <pt x="515" y="496" on="0"/>
      </contour>
    </TTGlyph>
    <TTGlyph name="Euro.smcp" xMin="2" yMin="-15" xMax="493" yMax="566">
      <contour>
        <pt x="433" y="409" on="1"/>
        <pt x="371" y="447" on="0"/>
        <pt x="312" y="447" on="1"/>
        <pt x="253" y="447" on="0"/>
        <pt x="232" y="387" on="1"/>
        <pt x="361" y="387" on="1"/>
        <pt x="363" y="374" on="0"/>
        <pt x="366" y="354" on="0"/>
        <pt x="366" y="344" on="1"/>
        <pt x="366" y="334" on="0"/>
        <pt x="363" y="313" on="0"/>
        <pt x="361" y="301" on="1"/>
        <pt x="218" y="301" on="1"/>
        <pt x="218" y="249" on="1"/>
        <pt x="361" y="249" on="1"/>
        <pt x="363" y="237" on="0"/>
        <pt x="366" y="217" on="0"/>
        <pt x="366" y="206" on="1"/>
        <pt x="366" y="196" on="0"/>
        <pt x="363" y="176" on="0"/>
        <pt x="361" y="164" on="1"/>
        <pt x="232" y="164" on="1"/>
        <pt x="254" y="104" on="0"/>
        <pt x="314" y="104" on="1"/>
        <pt x="374" y="104" on="0"/>
        <pt x="433" y="142" on="1"/>
        <pt x="457" y="129" on="0"/>
        <pt x="490" y="81" on="0"/>
        <pt x="493" y="55" on="1"/>
        <pt x="404" y="-15" on="0"/>
        <pt x="304" y="-15" on="1"/>
        <pt x="255" y="-15" on="0"/>
        <pt x="181" y="11" on="0"/>
        <pt x="128" y="57" on="0"/>
        <pt x="94" y="123" on="0"/>
        <pt x="85" y="164" on="1"/>
        <pt x="8" y="164" on="1"/>
        <pt x="2" y="182" on="0"/>
        <pt x="2" y="206" on="1"/>
        <pt x="2" y="229" on="0"/>
        <pt x="8" y="249" on="1"/>
        <pt x="74" y="249" on="1"/>
        <pt x="73" y="253" on="0"/>
        <pt x="73" y="266" on="0"/>
        <pt x="73" y="275" on="1"/>
        <pt x="73" y="301" on="1"/>
        <pt x="8" y="301" on="1"/>
        <pt x="2" y="320" on="0"/>
        <pt x="2" y="344" on="1"/>
        <pt x="2" y="366" on="0"/>
        <pt x="8" y="387" on="1"/>
        <pt x="83" y="387" on="1"/>
        <pt x="124" y="566" on="0"/>
        <pt x="296" y="566" on="1"/>
        <pt x="404" y="566" on="0"/>
        <pt x="493" y="497" on="1"/>
        <pt x="490" y="471" on="0"/>
        <pt x="456" y="420" on="0"/>
      </contour>
    </TTGlyph>
    <TTGlyph name="F" xMin="76" yMin="-6" xMax="517" yMax="683">
      <contour>
        <pt x="235" y="547" on="1"/>
        <pt x="236" y="469" on="1"/>
        <pt x="236" y="406" on="1"/>
        <pt x="450" y="406" on="1"/>
        <pt x="458" y="376" on="0"/>
        <pt x="458" y="305" on="0"/>
        <pt x="450" y="275" on="1"/>
        <pt x="236" y="275" on="1"/>
        <pt x="236" y="0" on="1"/>
        <pt x="204" y="-6" on="0"/>
        <pt x="108" y="-6" on="0"/>
        <pt x="76" y="0" on="1"/>
        <pt x="76" y="677" on="1"/>
        <pt x="83" y="683" on="1"/>
        <pt x="511" y="683" on="1"/>
        <pt x="517" y="658" on="0"/>
        <pt x="517" y="583" on="0"/>
        <pt x="476" y="547" on="0"/>
        <pt x="432" y="547" on="1"/>
      </contour>
    </TTGlyph>
    <TTGlyph name="G" xMin="36" yMin="-15" xMax="603" yMax="698">
      <contour>
        <pt x="340" y="388" on="1"/>
        <pt x="497" y="389" on="1"/>
        <pt x="603" y="389" on="0"/>
        <pt x="603" y="289" on="1"/>
        <pt x="603" y="26" on="1"/>
        <pt x="474" y="-15" on="0"/>
        <pt x="332" y="-15" on="1"/>
        <pt x="260" y="-15" on="0"/>
        <pt x="149" y="33" on="0"/>
        <pt x="74" y="123" on="0"/>
        <pt x="36" y="254" on="0"/>
        <pt x="36" y="337" on="1"/>
        <pt x="36" y="428" on="0"/>
        <pt x="89" y="563" on="0"/>
        <pt x="178" y="653" on="0"/>
        <pt x="294" y="698" on="0"/>
        <pt x="357" y="698" on="1"/>
        <pt x="487" y="698" on="0"/>
        <pt x="601" y="626" on="1"/>
        <pt x="600" y="610" on="0"/>
        <pt x="587" y="577" on="0"/>
        <pt x="568" y="546" on="0"/>
        <pt x="543" y="521" on="0"/>
        <pt x="530" y="512" on="1"/>
        <pt x="447" y="566" on="0"/>
        <pt x="362" y="566" on="1"/>
        <pt x="199" y="566" on="0"/>
        <pt x="199" y="338" on="1"/>
        <pt x="199" y="111" on="0"/>
        <pt x="366" y="111" on="1"/>
        <pt x="389" y="111" on="0"/>
        <pt x="432" y="115" on="0"/>
        <pt x="453" y="119" on="1"/>
        <pt x="453" y="186" on="1"/>
        <pt x="453" y="209" on="0"/>
        <pt x="454" y="243" on="0"/>
        <pt x="455" y="255" on="1"/>
        <pt x="405" y="255" on="1"/>
        <pt x="362" y="255" on="0"/>
        <pt x="329" y="288" on="0"/>
        <pt x="329" y="323" on="1"/>
        <pt x="329" y="353" on="0"/>
      </contour>
    </TTGlyph>
    <TTGlyph name="H" xMin="76" yMin="-6" xMax="610" yMax="689">
      <contour>
        <pt x="451" y="418" on="1"/>
        <pt x="450" y="492" on="1"/>
        <pt x="450" y="683" on="1"/>
        <pt x="481" y="689" on="0"/>
        <pt x="580" y="689" on="0"/>
        <pt x="610" y="683" on="1"/>
        <pt x="610" y="0" on="1"/>
        <pt x="578" y="-6" on="0"/>
        <pt x="482" y="-6" on="0"/>
        <pt x="450" y="0" on="1"/>
        <pt x="450" y="212" on="1"/>
        <pt x="451" y="286" on="1"/>
        <pt x="401" y="285" on="1"/>
        <pt x="285" y="285" on="1"/>
        <pt x="235" y="286" on="1"/>
        <pt x="236" y="212" on="1"/>
        <pt x="236" y="0" on="1"/>
        <pt x="205" y="-6" on="0"/>
        <pt x="107" y="-6" on="0"/>
        <pt x="76" y="0" on="1"/>
        <pt x="76" y="683" on="1"/>
        <pt x="107" y="689" on="0"/>
        <pt x="205" y="689" on="0"/>
        <pt x="236" y="683" on="1"/>
        <pt x="236" y="492" on="1"/>
        <pt x="235" y="418" on="1"/>
        <pt x="285" y="419" on="1"/>
        <pt x="401" y="419" on="1"/>
      </contour>
    </TTGlyph>
    <TTGlyph name="Hbar" xMin="8" yMin="-6" xMax="687" yMax="689">
      <contour>
        <pt x="239" y="283" on="1"/>
        <pt x="240" y="209" on="1"/>
        <pt x="240" y="0" on="1"/>
        <pt x="209" y="-6" on="0"/>
        <pt x="111" y="-6" on="0"/>
        <pt x="80" y="0" on="1"/>
        <pt x="80" y="488" on="1"/>
        <pt x="15" y="488" on="1"/>
        <pt x="8" y="516" on="0"/>
        <pt x="8" y="574" on="0"/>
        <pt x="15" y="603" on="1"/>
        <pt x="80" y="603" on="1"/>
        <pt x="80" y="683" on="1"/>
        <pt x="111" y="689" on="0"/>
        <pt x="209" y="689" on="0"/>
        <pt x="240" y="683" on="1"/>
        <pt x="240" y="603" on="1"/>
        <pt x="454" y="603" on="1"/>
        <pt x="454" y="683" on="1"/>
        <pt x="485" y="689" on="0"/>
        <pt x="584" y="689" on="0"/>
        <pt x="614" y="683" on="1"/>
        <pt x="614" y="603" on="1"/>
        <pt x="680" y="603" on="1"/>
        <pt x="687" y="574" on="0"/>
        <pt x="687" y="516" on="0"/>
        <pt x="680" y="488" on="1"/>
        <pt x="614" y="488" on="1"/>
        <pt x="614" y="0" on="1"/>
        <pt x="582" y="-6" on="0"/>
        <pt x="486" y="-6" on="0"/>
        <pt x="454" y="0" on="1"/>
        <pt x="454" y="209" on="1"/>
        <pt x="455" y="283" on="1"/>
        <pt x="405" y="282" on="1"/>
        <pt x="289" y="282" on="1"/>
      </contour>
      <contour>
        <pt x="239" y="413" on="1"/>
        <pt x="289" y="414" on="1"/>
        <pt x="405" y="414" on="1"/>
        <pt x="455" y="413" on="1"/>
        <pt x="454" y="488" on="1"/>
        <pt x="240" y="488" on="1"/>
      </contour>
    </TTGlyph>
    <TTGlyph name="I" xMin="78" yMin="-6" xMax="239" yMax="689">
      <contour>
        <pt x="78" y="0" on="1"/>
        <pt x="78" y="683" on="1"/>
        <pt x="109" y="689" on="0"/>
        <pt x="207" y="689" on="0"/>
        <pt x="239" y="683" on="1"/>
        <pt x="239" y="0" on="1"/>
        <pt x="207" y="-6" on="0"/>
        <pt x="109" y="-6" on="0"/>
      </contour>
    </TTGlyph>
    <TTGlyph name="IJ" xMin="78" yMin="-10" xMax="713" yMax="689">
      <component glyphName="I" x="0" y="0" flags="0x4"/>
      <component glyphName="J" x="308" y="0" flags="0x4"/>
    </TTGlyph>
    <TTGlyph name="Iacute" xMin="34" yMin="-6" xMax="319" yMax="939">
      <component glyphName="I" x="0" y="0" flags="0x204"/>
      <component glyphName="acute.cap" x="-40" y="0" flags="0x4"/>
    </TTGlyph>
    <TTGlyph name="Icircumflex" xMin="-26" yMin="-6" xMax="336" yMax="923">
      <component glyphName="I" x="0" y="0" flags="0x204"/>
      <component glyphName="circumflex.cap" x="-40" y="0" flags="0x4"/>
    </TTGlyph>
    <TTGlyph name="Idieresis" xMin="-33" yMin="-6" xMax="350" yMax="870">
      <component glyphName="I" x="0" y="0" flags="0x204"/>
      <component glyphName="dieresis.cap" x="-40" y="0" flags="0x4"/>
    </TTGlyph>
    <TTGlyph name="Igrave" xMin="8" yMin="-6" xMax="293" yMax="939">
      <component glyphName="I" x="0" y="0" flags="0x204"/>
      <component glyphName="grave.cap" x="-40" y="0" flags="0x4"/>
    </TTGlyph>
    <TTGlyph name="Itilde" xMin="-41" yMin="-6" xMax="359" yMax="908">
      <component glyphName="I" x="0" y="0" flags="0x204"/>
      <component glyphName="tilde.cap" x="-40" y="0" flags="0x4"/>
    </TTGlyph>
    <TTGlyph name="J" xMin="10" yMin="-10" xMax="405" yMax="689">
      <contour>
        <pt x="65" y="152" on="1"/>
        <pt x="114" y="122" on="0"/>
        <pt x="160" y="122" on="1"/>
        <pt x="208" y="122" on="0"/>
        <pt x="245" y="183" on="0"/>
        <pt x="245" y="247" on="1"/>
        <pt x="245" y="683" on="1"/>
        <pt x="275" y="689" on="0"/>
        <pt x="324" y="689" on="1"/>
        <pt x="373" y="689" on="0"/>
        <pt x="405" y="683" on="1"/>
        <pt x="405" y="262" on="1"/>
        <pt x="405" y="198" on="0"/>
        <pt x="383" y="97" on="0"/>
        <pt x="329" y="27" on="0"/>
        <pt x="240" y="-10" on="0"/>
        <pt x="173" y="-10" on="1"/>
        <pt x="80" y="-10" on="0"/>
        <pt x="10" y="34" on="1"/>
        <pt x="21" y="103" on="0"/>
      </contour>
    </TTGlyph>
    <TTGlyph name="Jcircumflex" xMin="10" yMin="-10" xMax="502" yMax="923">
      <component glyphName="J" x="0" y="0" flags="0x204"/>
      <component glyphName="circumflex.cap" x="126" y="0" flags="0x4"/>
    </TTGlyph>
    <TTGlyph name="K" xMin="76" yMin="-9" xMax="614" yMax="689">
      <contour>
        <pt x="614" y="39" on="1"/>
        <pt x="580" y="-9" on="0"/>
        <pt x="508" y="-9" on="1"/>
        <pt x="467" y="-9" on="0"/>
        <pt x="426" y="33" on="0"/>
        <pt x="411" y="83" on="1"/>
        <pt x="373" y="200" on="1"/>
        <pt x="358" y="247" on="0"/>
        <pt x="316" y="287" on="0"/>
        <pt x="280" y="287" on="1"/>
        <pt x="268" y="287" on="0"/>
        <pt x="236" y="285" on="1"/>
        <pt x="236" y="0" on="1"/>
        <pt x="205" y="-6" on="0"/>
        <pt x="107" y="-6" on="0"/>
        <pt x="76" y="0" on="1"/>
        <pt x="76" y="683" on="1"/>
        <pt x="107" y="689" on="0"/>
        <pt x="205" y="689" on="0"/>
        <pt x="236" y="683" on="1"/>
        <pt x="236" y="419" on="1"/>
        <pt x="262" y="420" on="1"/>
        <pt x="280" y="420" on="0"/>
        <pt x="296" y="433" on="0"/>
        <pt x="307" y="454" on="1"/>
        <pt x="402" y="633" on="1"/>
        <pt x="417" y="664" on="0"/>
        <pt x="451" y="689" on="0"/>
        <pt x="487" y="689" on="1"/>
        <pt x="527" y="689" on="0"/>
        <pt x="580" y="684" on="1"/>
        <pt x="589" y="673" on="1"/>
        <pt x="467" y="443" on="1"/>
        <pt x="444" y="397" on="0"/>
        <pt x="411" y="370" on="1"/>
        <pt x="458" y="360" on="0"/>
        <pt x="505" y="304" on="0"/>
        <pt x="521" y="257" on="1"/>
        <pt x="562" y="133" on="1"/>
        <pt x="570" y="110" on="0"/>
        <pt x="578" y="88" on="0"/>
        <pt x="594" y="62" on="1"/>
        <pt x="601" y="52" on="0"/>
      </contour>
    </TTGlyph>
    <TTGlyph name="Kcommaaccent" xMin="76" yMin="-292" xMax="614" yMax="689">
      <component glyphName="K" x="0" y="0" flags="0x204"/>
      <component glyphName="commaaccent.cap" x="130" y="0" flags="0x4"/>
    </TTGlyph>
    <TTGlyph name="L" xMin="75" yMin="-3" xMax="502" yMax="690">
      <contour>
        <pt x="329" y="135" on="1"/>
        <pt x="502" y="135" on="1"/>
        <pt x="502" y="95" on="0"/>
        <pt x="492" y="38" on="0"/>
        <pt x="438" y="-3" on="0"/>
        <pt x="394" y="-3" on="1"/>
        <pt x="168" y="-3" on="1"/>
        <pt x="125" y="-3" on="0"/>
        <pt x="75" y="47" on="0"/>
        <pt x="75" y="90" on="1"/>
        <pt x="75" y="683" on="1"/>
        <pt x="82" y="690" on="1"/>
        <pt x="141" y="690" on="1"/>
        <pt x="235" y="690" on="0"/>
        <pt x="235" y="588" on="1"/>
        <pt x="235" y="131" on="1"/>
        <pt x="279" y="135" on="0"/>
      </contour>
    </TTGlyph>
    <TTGlyph name="Ldot" xMin="75" yMin="-3" xMax="502" yMax="690">
      <component glyphName="L" x="0" y="0" flags="0x204"/>
      <component glyphName="dotaccent.alt" x="217" y="37" flags="0x4"/>
    </TTGlyph>
    <TTGlyph name="Lslash" xMin="-11" yMin="-3" xMax="513" yMax="690">
      <contour>
        <pt x="246" y="588" on="1"/>
        <pt x="246" y="438" on="1"/>
        <pt x="400" y="494" on="1"/>
        <pt x="411" y="488" on="1"/>
        <pt x="428" y="442" on="0"/>
        <pt x="414" y="371" on="1"/>
        <pt x="246" y="313" on="1"/>
        <pt x="246" y="131" on="1"/>
        <pt x="290" y="135" on="0"/>
        <pt x="339" y="135" on="1"/>
        <pt x="513" y="135" on="1"/>
        <pt x="513" y="102" on="0"/>
        <pt x="502" y="38" on="0"/>
        <pt x="448" y="-3" on="0"/>
        <pt x="404" y="-3" on="1"/>
        <pt x="178" y="-3" on="1"/>
        <pt x="135" y="-3" on="0"/>
        <pt x="86" y="47" on="0"/>
        <pt x="86" y="90" on="1"/>
        <pt x="86" y="264" on="1"/>
        <pt x="16" y="238" on="1"/>
        <pt x="4" y="244" on="1"/>
        <pt x="-11" y="290" on="0"/>
        <pt x="1" y="361" on="1"/>
        <pt x="86" y="390" on="1"/>
        <pt x="86" y="683" on="1"/>
        <pt x="93" y="690" on="1"/>
        <pt x="151" y="690" on="1"/>
        <pt x="246" y="690" on="0"/>
      </contour>
    </TTGlyph>
    <TTGlyph name="M" xMin="55" yMin="-6" xMax="779" yMax="690">
      <contour>
        <pt x="55" y="2" on="1"/>
        <pt x="108" y="682" on="1"/>
        <pt x="152" y="690" on="0"/>
        <pt x="272" y="690" on="0"/>
        <pt x="317" y="682" on="1"/>
        <pt x="376" y="437" on="1"/>
        <pt x="411" y="271" on="0"/>
        <pt x="413" y="256" on="1"/>
        <pt x="420" y="256" on="1"/>
        <pt x="424" y="281" on="0"/>
        <pt x="457" y="437" on="1"/>
        <pt x="517" y="682" on="1"/>
        <pt x="561" y="690" on="0"/>
        <pt x="681" y="690" on="0"/>
        <pt x="726" y="682" on="1"/>
        <pt x="779" y="2" on="1"/>
        <pt x="748" y="-6" on="0"/>
        <pt x="657" y="-6" on="0"/>
        <pt x="628" y="-1" on="1"/>
        <pt x="612" y="277" on="1"/>
        <pt x="605" y="443" on="0"/>
        <pt x="604" y="508" on="1"/>
        <pt x="598" y="508" on="1"/>
        <pt x="499" y="101" on="1"/>
        <pt x="463" y="95" on="0"/>
        <pt x="370" y="95" on="0"/>
        <pt x="334" y="101" on="1"/>
        <pt x="236" y="508" on="1"/>
        <pt x="229" y="508" on="1"/>
        <pt x="229" y="419" on="0"/>
        <pt x="221" y="277" on="1"/>
        <pt x="206" y="-1" on="1"/>
        <pt x="177" y="-6" on="0"/>
        <pt x="86" y="-6" on="0"/>
      </contour>
    </TTGlyph>
    <TTGlyph name="N" xMin="76" yMin="-6" xMax="621" yMax="690">
      <contour>
        <pt x="614" y="690" on="1"/>
        <pt x="621" y="683" on="1"/>
        <pt x="621" y="3" on="1"/>
        <pt x="581" y="-6" on="0"/>
        <pt x="472" y="-6" on="0"/>
        <pt x="430" y="0" on="1"/>
        <pt x="273" y="358" on="1"/>
        <pt x="245" y="419" on="0"/>
        <pt x="216" y="499" on="1"/>
        <pt x="213" y="498" on="1"/>
        <pt x="225" y="352" on="0"/>
        <pt x="225" y="199" on="1"/>
        <pt x="225" y="0" on="1"/>
        <pt x="194" y="-6" on="0"/>
        <pt x="106" y="-6" on="0"/>
        <pt x="76" y="0" on="1"/>
        <pt x="76" y="680" on="1"/>
        <pt x="114" y="689" on="0"/>
        <pt x="221" y="689" on="0"/>
        <pt x="263" y="683" on="1"/>
        <pt x="418" y="326" on="1"/>
        <pt x="460" y="227" on="0"/>
        <pt x="480" y="174" on="1"/>
        <pt x="484" y="176" on="1"/>
        <pt x="472" y="315" on="0"/>
        <pt x="472" y="471" on="1"/>
        <pt x="472" y="593" on="1"/>
        <pt x="472" y="645" on="0"/>
        <pt x="514" y="690" on="0"/>
        <pt x="561" y="690" on="1"/>
      </contour>
    </TTGlyph>
    <TTGlyph name="Nacute" xMin="76" yMin="-6" xMax="621" yMax="939">
      <component glyphName="N" x="0" y="0" flags="0x204"/>
      <component glyphName="acute.cap" x="154" y="0" flags="0x4"/>
    </TTGlyph>
    <TTGlyph name="Ncaron" xMin="76" yMin="-6" xMax="621" yMax="932">
      <component glyphName="N" x="0" y="0" flags="0x204"/>
      <component glyphName="caron.cap" x="153" y="0" flags="0x4"/>
    </TTGlyph>
    <TTGlyph name="Ntilde" xMin="76" yMin="-6" xMax="621" yMax="908">
      <component glyphName="N" x="0" y="0" flags="0x204"/>
      <component glyphName="tilde.cap" x="153" y="0" flags="0x4"/>
    </TTGlyph>
    <TTGlyph name="O" xMin="36" yMin="-15" xMax="631" yMax="698">
      <contour>
        <pt x="224" y="186" on="1"/>
        <pt x="251" y="108" on="0"/>
        <pt x="333" y="108" on="1"/>
        <pt x="374" y="108" on="0"/>
        <pt x="425" y="149" on="0"/>
        <pt x="454" y="212" on="0"/>
        <pt x="464" y="290" on="0"/>
        <pt x="464" y="328" on="1"/>
        <pt x="464" y="363" on="0"/>
        <pt x="459" y="449" on="0"/>
        <pt x="435" y="524" on="0"/>
        <pt x="383" y="575" on="0"/>
        <pt x="333" y="575" on="1"/>
        <pt x="285" y="575" on="0"/>
        <pt x="234" y="526" on="0"/>
        <pt x="209" y="454" on="0"/>
        <pt x="203" y="373" on="0"/>
        <pt x="203" y="342" on="1"/>
        <pt x="203" y="296" on="0"/>
        <pt x="212" y="224" on="0"/>
      </contour>
      <contour>
        <pt x="143" y="48" on="1"/>
        <pt x="36" y="137" on="0"/>
        <pt x="36" y="341" on="1"/>
        <pt x="36" y="429" on="0"/>
        <pt x="77" y="562" on="0"/>
        <pt x="154" y="652" on="0"/>
        <pt x="264" y="698" on="0"/>
        <pt x="333" y="698" on="1"/>
        <pt x="402" y="698" on="0"/>
        <pt x="513" y="652" on="0"/>
        <pt x="590" y="561" on="0"/>
        <pt x="631" y="428" on="0"/>
        <pt x="631" y="341" on="1"/>
        <pt x="631" y="254" on="0"/>
        <pt x="590" y="121" on="0"/>
        <pt x="513" y="31" on="0"/>
        <pt x="402" y="-15" on="0"/>
        <pt x="333" y="-15" on="1"/>
        <pt x="219" y="-15" on="0"/>
      </contour>
    </TTGlyph>
    <TTGlyph name="OE" xMin="36" yMin="-15" xMax="892" yMax="698">
      <contour>
        <pt x="587" y="203" on="1"/>
        <pt x="586" y="130" on="1"/>
        <pt x="609" y="131" on="0"/>
        <pt x="646" y="132" on="0"/>
        <pt x="660" y="132" on="1"/>
        <pt x="892" y="132" on="1"/>
        <pt x="892" y="64" on="0"/>
        <pt x="850" y="-2" on="0"/>
        <pt x="787" y="-2" on="1"/>
        <pt x="476" y="-2" on="1"/>
        <pt x="434" y="-9" on="0"/>
        <pt x="364" y="-15" on="0"/>
        <pt x="335" y="-15" on="1"/>
        <pt x="194" y="-15" on="0"/>
        <pt x="36" y="169" on="0"/>
        <pt x="36" y="341" on="1"/>
        <pt x="36" y="514" on="0"/>
        <pt x="194" y="698" on="0"/>
        <pt x="335" y="698" on="1"/>
        <pt x="385" y="698" on="0"/>
        <pt x="481" y="683" on="1"/>
        <pt x="867" y="683" on="1"/>
        <pt x="869" y="669" on="0"/>
        <pt x="873" y="642" on="0"/>
        <pt x="873" y="628" on="1"/>
        <pt x="873" y="591" on="0"/>
        <pt x="860" y="549" on="1"/>
        <pt x="586" y="549" on="1"/>
        <pt x="587" y="407" on="1"/>
        <pt x="600" y="408" on="0"/>
        <pt x="634" y="408" on="0"/>
        <pt x="655" y="408" on="1"/>
        <pt x="808" y="408" on="1"/>
        <pt x="817" y="379" on="0"/>
        <pt x="817" y="344" on="1"/>
        <pt x="817" y="308" on="0"/>
        <pt x="808" y="278" on="1"/>
        <pt x="587" y="278" on="1"/>
      </contour>
      <contour>
        <pt x="335" y="108" on="1"/>
        <pt x="379" y="108" on="0"/>
        <pt x="432" y="123" on="1"/>
        <pt x="432" y="560" on="1"/>
        <pt x="379" y="575" on="0"/>
        <pt x="335" y="575" on="1"/>
        <pt x="200" y="575" on="0"/>
        <pt x="200" y="341" on="1"/>
        <pt x="200" y="108" on="0"/>
      </contour>
    </TTGlyph>
    <TTGlyph name="Oacute" xMin="36" yMin="-15" xMax="631" yMax="939">
      <component glyphName="O" x="0" y="0" flags="0x204"/>
      <component glyphName="acute.cap" x="134" y="0" flags="0x4"/>
    </TTGlyph>
    <TTGlyph name="Ocircumflex" xMin="36" yMin="-15" xMax="631" yMax="923">
      <component glyphName="O" x="0" y="0" flags="0x204"/>
      <component glyphName="circumflex.cap" x="134" y="0" flags="0x4"/>
    </TTGlyph>
    <TTGlyph name="Odieresis" xMin="36" yMin="-15" xMax="631" yMax="870">
      <component glyphName="O" x="0" y="0" flags="0x204"/>
      <component glyphName="dieresis.cap" x="134" y="0" flags="0x4"/>
    </TTGlyph>
    <TTGlyph name="Ograve" xMin="36" yMin="-15" xMax="631" yMax="939">
      <component glyphName="O" x="0" y="0" flags="0x204"/>
      <component glyphName="grave.cap" x="134" y="0" flags="0x4"/>
    </TTGlyph>
    <TTGlyph name="Oslash" xMin="36" yMin="-73" xMax="634" yMax="759">
      <contour>
        <pt x="126" y="65" on="1"/>
        <pt x="36" y="159" on="0"/>
        <pt x="36" y="351" on="1"/>
        <pt x="36" y="431" on="0"/>
        <pt x="76" y="559" on="0"/>
        <pt x="152" y="649" on="0"/>
        <pt x="263" y="698" on="0"/>
        <pt x="335" y="698" on="1"/>
        <pt x="398" y="698" on="0"/>
        <pt x="449" y="680" on="1"/>
        <pt x="495" y="759" on="1"/>
        <pt x="557" y="748" on="0"/>
        <pt x="593" y="705" on="1"/>
        <pt x="544" y="618" on="1"/>
        <pt x="634" y="523" on="0"/>
        <pt x="634" y="342" on="1"/>
        <pt x="634" y="171" on="0"/>
        <pt x="478" y="-15" on="0"/>
        <pt x="335" y="-15" on="1"/>
        <pt x="272" y="-15" on="0"/>
        <pt x="220" y="3" on="1"/>
        <pt x="176" y="-73" on="1"/>
        <pt x="112" y="-62" on="0"/>
        <pt x="78" y="-19" on="1"/>
      </contour>
      <contour>
        <pt x="475" y="342" on="1"/>
        <pt x="475" y="415" on="0"/>
        <pt x="462" y="464" on="1"/>
        <pt x="280" y="115" on="1"/>
        <pt x="304" y="103" on="0"/>
        <pt x="335" y="103" on="1"/>
        <pt x="475" y="103" on="0"/>
      </contour>
      <contour>
        <pt x="196" y="342" on="1"/>
        <pt x="196" y="268" on="0"/>
        <pt x="209" y="220" on="1"/>
        <pt x="390" y="568" on="1"/>
        <pt x="363" y="580" on="0"/>
        <pt x="335" y="580" on="1"/>
        <pt x="196" y="580" on="0"/>
      </contour>
    </TTGlyph>
    <TTGlyph name="Otilde" xMin="36" yMin="-15" xMax="631" yMax="908">
      <component glyphName="O" x="0" y="0" flags="0x204"/>
      <component glyphName="tilde.cap" x="127" y="0" flags="0x4"/>
    </TTGlyph>
    <TTGlyph name="P" xMin="76" yMin="-6" xMax="560" yMax="689">
      <contour>
        <pt x="315" y="214" on="1"/>
        <pt x="236" y="214" on="1"/>
        <pt x="236" y="0" on="1"/>
        <pt x="204" y="-6" on="0"/>
        <pt x="156" y="-6" on="1"/>
        <pt x="107" y="-6" on="0"/>
        <pt x="76" y="0" on="1"/>
        <pt x="76" y="678" on="1"/>
        <pt x="83" y="685" on="1"/>
        <pt x="170" y="687" on="0"/>
        <pt x="285" y="689" on="0"/>
        <pt x="315" y="689" on="1"/>
        <pt x="370" y="689" on="0"/>
        <pt x="461" y="659" on="0"/>
        <pt x="525" y="599" on="0"/>
        <pt x="560" y="510" on="0"/>
        <pt x="560" y="452" on="1"/>
        <pt x="560" y="394" on="0"/>
        <pt x="524" y="305" on="0"/>
        <pt x="460" y="245" on="0"/>
        <pt x="369" y="214" on="0"/>
      </contour>
      <contour>
        <pt x="236" y="567" on="1"/>
        <pt x="236" y="334" on="1"/>
        <pt x="264" y="335" on="0"/>
        <pt x="297" y="336" on="0"/>
        <pt x="302" y="336" on="1"/>
        <pt x="329" y="336" on="0"/>
        <pt x="365" y="355" on="0"/>
        <pt x="387" y="386" on="0"/>
        <pt x="397" y="428" on="0"/>
        <pt x="397" y="451" on="1"/>
        <pt x="397" y="473" on="0"/>
        <pt x="387" y="515" on="0"/>
        <pt x="366" y="547" on="0"/>
        <pt x="332" y="566" on="0"/>
        <pt x="309" y="566" on="1"/>
        <pt x="286" y="566" on="0"/>
        <pt x="250" y="566" on="0"/>
      </contour>
    </TTGlyph>
    <TTGlyph name="Q" xMin="36" yMin="-145" xMax="643" yMax="698">
      <contour>
        <pt x="435" y="-104" on="1"/>
        <pt x="333" y="-15" on="1"/>
        <pt x="264" y="-15" on="0"/>
        <pt x="154" y="32" on="0"/>
        <pt x="77" y="123" on="0"/>
        <pt x="36" y="255" on="0"/>
        <pt x="36" y="341" on="1"/>
        <pt x="36" y="426" on="0"/>
        <pt x="75" y="558" on="0"/>
        <pt x="152" y="650" on="0"/>
        <pt x="263" y="698" on="0"/>
        <pt x="335" y="698" on="1"/>
        <pt x="407" y="698" on="0"/>
        <pt x="519" y="649" on="0"/>
        <pt x="595" y="557" on="0"/>
        <pt x="634" y="425" on="0"/>
        <pt x="634" y="341" on="1"/>
        <pt x="634" y="284" on="0"/>
        <pt x="615" y="183" on="0"/>
        <pt x="578" y="102" on="0"/>
        <pt x="525" y="46" on="0"/>
        <pt x="491" y="34" on="1"/>
        <pt x="517" y="16" on="1"/>
        <pt x="585" y="-31" on="0"/>
        <pt x="643" y="-31" on="1"/>
        <pt x="641" y="-82" on="0"/>
        <pt x="584" y="-145" on="0"/>
        <pt x="533" y="-145" on="1"/>
        <pt x="484" y="-145" on="0"/>
      </contour>
      <contour>
        <pt x="335" y="575" on="1"/>
        <pt x="200" y="575" on="0"/>
        <pt x="200" y="341" on="1"/>
        <pt x="200" y="108" on="0"/>
        <pt x="335" y="108" on="1"/>
        <pt x="468" y="108" on="0"/>
        <pt x="468" y="341" on="1"/>
        <pt x="468" y="575" on="0"/>
      </contour>
    </TTGlyph>
    <TTGlyph name="R" xMin="76" yMin="-9" xMax="601" yMax="689">
      <contour>
        <pt x="566" y="472" on="1"/>
        <pt x="566" y="439" on="0"/>
        <pt x="546" y="380" on="0"/>
        <pt x="513" y="333" on="0"/>
        <pt x="468" y="298" on="0"/>
        <pt x="444" y="289" on="1"/>
        <pt x="496" y="270" on="0"/>
        <pt x="521" y="197" on="1"/>
        <pt x="551" y="112" on="1"/>
        <pt x="568" y="62" on="0"/>
        <pt x="601" y="38" on="1"/>
        <pt x="586" y="18" on="0"/>
        <pt x="526" y="-9" on="0"/>
        <pt x="490" y="-9" on="1"/>
        <pt x="454" y="-9" on="0"/>
        <pt x="414" y="32" on="0"/>
        <pt x="397" y="83" on="1"/>
        <pt x="361" y="188" on="1"/>
        <pt x="350" y="218" on="0"/>
        <pt x="313" y="250" on="0"/>
        <pt x="276" y="250" on="1"/>
        <pt x="235" y="250" on="1"/>
        <pt x="235" y="0" on="1"/>
        <pt x="203" y="-6" on="0"/>
        <pt x="155" y="-6" on="1"/>
        <pt x="107" y="-6" on="0"/>
        <pt x="76" y="0" on="1"/>
        <pt x="76" y="678" on="1"/>
        <pt x="83" y="685" on="1"/>
        <pt x="170" y="687" on="0"/>
        <pt x="289" y="689" on="0"/>
        <pt x="323" y="689" on="1"/>
        <pt x="378" y="689" on="0"/>
        <pt x="468" y="662" on="0"/>
        <pt x="531" y="608" on="0"/>
        <pt x="566" y="526" on="0"/>
      </contour>
      <contour>
        <pt x="235" y="569" on="1"/>
        <pt x="235" y="373" on="1"/>
        <pt x="280" y="373" on="0"/>
        <pt x="344" y="376" on="0"/>
        <pt x="383" y="397" on="0"/>
        <pt x="403" y="435" on="0"/>
        <pt x="403" y="471" on="1"/>
        <pt x="403" y="568" on="0"/>
        <pt x="309" y="568" on="1"/>
        <pt x="286" y="568" on="0"/>
        <pt x="249" y="568" on="0"/>
      </contour>
    </TTGlyph>
    <TTGlyph name="Racute" xMin="76" yMin="-9" xMax="601" yMax="939">
      <component glyphName="R" x="0" y="0" flags="0x204"/>
      <component glyphName="acute.cap" x="105" y="0" flags="0x4"/>
    </TTGlyph>
    <TTGlyph name="Rcaron" xMin="76" yMin="-9" xMax="601" yMax="932">
      <component glyphName="R" x="0" y="0" flags="0x204"/>
      <component glyphName="caron.cap" x="105" y="0" flags="0x4"/>
    </TTGlyph>
    <TTGlyph name="Rcommaaccent" xMin="76" yMin="-292" xMax="601" yMax="689">
      <component glyphName="R" x="0" y="0" flags="0x204"/>
      <component glyphName="commaaccent.cap" x="126" y="0" flags="0x4"/>
    </TTGlyph>
    <TTGlyph name="S" xMin="15" yMin="-15" xMax="531" yMax="698">
      <contour>
        <pt x="15" y="59" on="1"/>
        <pt x="18" y="92" on="0"/>
        <pt x="53" y="158" on="0"/>
        <pt x="77" y="179" on="1"/>
        <pt x="184" y="114" on="0"/>
        <pt x="280" y="114" on="1"/>
        <pt x="322" y="114" on="0"/>
        <pt x="361" y="152" on="0"/>
        <pt x="361" y="180" on="1"/>
        <pt x="361" y="227" on="0"/>
        <pt x="298" y="254" on="1"/>
        <pt x="180" y="304" on="1"/>
        <pt x="111" y="335" on="0"/>
        <pt x="37" y="422" on="0"/>
        <pt x="37" y="489" on="1"/>
        <pt x="37" y="535" on="0"/>
        <pt x="74" y="611" on="0"/>
        <pt x="141" y="667" on="0"/>
        <pt x="233" y="698" on="0"/>
        <pt x="289" y="698" on="1"/>
        <pt x="401" y="698" on="0"/>
        <pt x="515" y="641" on="1"/>
        <pt x="510" y="564" on="0"/>
        <pt x="461" y="521" on="1"/>
        <pt x="359" y="570" on="0"/>
        <pt x="281" y="570" on="1"/>
        <pt x="241" y="570" on="0"/>
        <pt x="201" y="534" on="0"/>
        <pt x="201" y="511" on="1"/>
        <pt x="201" y="472" on="0"/>
        <pt x="260" y="448" on="1"/>
        <pt x="380" y="397" on="1"/>
        <pt x="456" y="365" on="0"/>
        <pt x="531" y="265" on="0"/>
        <pt x="531" y="199" on="1"/>
        <pt x="531" y="152" on="0"/>
        <pt x="497" y="74" on="0"/>
        <pt x="430" y="17" on="0"/>
        <pt x="330" y="-15" on="0"/>
        <pt x="263" y="-15" on="1"/>
        <pt x="133" y="-15" on="0"/>
      </contour>
    </TTGlyph>
    <TTGlyph name="Sacute" xMin="15" yMin="-15" xMax="531" yMax="939">
      <component glyphName="S" x="0" y="0" flags="0x204"/>
      <component glyphName="acute.cap" x="87" y="0" flags="0x4"/>
    </TTGlyph>
    <TTGlyph name="Scaron" xMin="15" yMin="-15" xMax="531" yMax="932">
      <component glyphName="S" x="0" y="0" flags="0x204"/>
      <component glyphName="caron.cap" x="86" y="0" flags="0x4"/>
    </TTGlyph>
    <TTGlyph name="T" xMin="3" yMin="-6" xMax="512" yMax="683">
      <contour>
        <pt x="335" y="551" on="1"/>
        <pt x="336" y="477" on="1"/>
        <pt x="336" y="0" on="1"/>
        <pt x="302" y="-6" on="0"/>
        <pt x="208" y="-6" on="0"/>
        <pt x="176" y="0" on="1"/>
        <pt x="176" y="551" on="1"/>
        <pt x="112" y="550" on="1"/>
        <pt x="9" y="550" on="1"/>
        <pt x="3" y="579" on="0"/>
        <pt x="3" y="654" on="0"/>
        <pt x="9" y="683" on="1"/>
        <pt x="504" y="683" on="1"/>
        <pt x="512" y="657" on="0"/>
        <pt x="512" y="583" on="0"/>
        <pt x="472" y="550" on="0"/>
        <pt x="428" y="550" on="1"/>
        <pt x="399" y="550" on="1"/>
        <pt x="336" y="551" on="1"/>
      </contour>
    </TTGlyph>
    <TTGlyph name="Tcaron" xMin="3" yMin="-6" xMax="512" yMax="932">
      <component glyphName="T" x="0" y="0" flags="0x204"/>
      <component glyphName="caron.cap" x="57" y="0" flags="0x4"/>
    </TTGlyph>
    <TTGlyph name="Thorn" xMin="76" yMin="-6" xMax="560" yMax="689">
      <contour>
        <pt x="236" y="589" on="1"/>
        <pt x="313" y="590" on="1"/>
        <pt x="370" y="591" on="0"/>
        <pt x="461" y="563" on="0"/>
        <pt x="525" y="506" on="0"/>
        <pt x="560" y="421" on="0"/>
        <pt x="560" y="364" on="1"/>
        <pt x="560" y="307" on="0"/>
        <pt x="525" y="221" on="0"/>
        <pt x="460" y="164" on="0"/>
        <pt x="369" y="135" on="0"/>
        <pt x="313" y="135" on="1"/>
        <pt x="236" y="135" on="1"/>
        <pt x="236" y="0" on="1"/>
        <pt x="204" y="-6" on="0"/>
        <pt x="156" y="-6" on="1"/>
        <pt x="107" y="-6" on="0"/>
        <pt x="76" y="0" on="1"/>
        <pt x="76" y="683" on="1"/>
        <pt x="107" y="689" on="0"/>
        <pt x="156" y="689" on="1"/>
        <pt x="204" y="689" on="0"/>
        <pt x="236" y="683" on="1"/>
      </contour>
      <contour>
        <pt x="300" y="467" on="1"/>
        <pt x="282" y="467" on="0"/>
        <pt x="250" y="467" on="0"/>
        <pt x="236" y="468" on="1"/>
        <pt x="236" y="257" on="1"/>
        <pt x="278" y="258" on="0"/>
        <pt x="338" y="261" on="0"/>
        <pt x="377" y="284" on="0"/>
        <pt x="396" y="326" on="0"/>
        <pt x="396" y="363" on="1"/>
        <pt x="396" y="467" on="0"/>
      </contour>
    </TTGlyph>
    <TTGlyph name="U" xMin="66" yMin="-15" xMax="607" yMax="690">
      <contour>
        <pt x="607" y="683" on="1"/>
        <pt x="607" y="252" on="1"/>
        <pt x="607" y="124" on="0"/>
        <pt x="467" y="-15" on="0"/>
        <pt x="337" y="-15" on="1"/>
        <pt x="207" y="-15" on="0"/>
        <pt x="66" y="124" on="0"/>
        <pt x="66" y="252" on="1"/>
        <pt x="66" y="683" on="1"/>
        <pt x="73" y="690" on="1"/>
        <pt x="132" y="690" on="1"/>
        <pt x="227" y="690" on="0"/>
        <pt x="227" y="588" on="1"/>
        <pt x="227" y="250" on="1"/>
        <pt x="227" y="180" on="0"/>
        <pt x="277" y="112" on="0"/>
        <pt x="337" y="112" on="1"/>
        <pt x="397" y="112" on="0"/>
        <pt x="447" y="180" on="0"/>
        <pt x="447" y="250" on="1"/>
        <pt x="447" y="683" on="1"/>
        <pt x="478" y="689" on="0"/>
        <pt x="527" y="689" on="1"/>
        <pt x="575" y="689" on="0"/>
      </contour>
    </TTGlyph>
    <TTGlyph name="Uacute" xMin="66" yMin="-15" xMax="607" yMax="939">
      <component glyphName="U" x="0" y="0" flags="0x204"/>
      <component glyphName="acute.cap" x="136" y="0" flags="0x4"/>
    </TTGlyph>
    <TTGlyph name="Ucircumflex" xMin="66" yMin="-15" xMax="607" yMax="923">
      <component glyphName="U" x="0" y="0" flags="0x204"/>
      <component glyphName="circumflex.cap" x="135" y="0" flags="0x4"/>
    </TTGlyph>
    <TTGlyph name="Udieresis" xMin="66" yMin="-15" xMax="607" yMax="870">
      <component glyphName="U" x="0" y="0" flags="0x204"/>
      <component glyphName="dieresis.cap" x="136" y="0" flags="0x4"/>
    </TTGlyph>
    <TTGlyph name="Ugrave" xMin="66" yMin="-15" xMax="607" yMax="939">
      <component glyphName="U" x="0" y="0" flags="0x204"/>
      <component glyphName="grave.cap" x="135" y="0" flags="0x4"/>
    </TTGlyph>
    <TTGlyph name="Uring" xMin="66" yMin="-15" xMax="607" yMax="916">
      <component glyphName="U" x="0" y="0" flags="0x204"/>
      <component glyphName="ring.cap" x="135" y="0" flags="0x4"/>
    </TTGlyph>
    <TTGlyph name="V" xMin="9" yMin="-6" xMax="598" yMax="692">
      <contour>
        <pt x="317" y="134" on="1"/>
        <pt x="448" y="683" on="1"/>
        <pt x="472" y="689" on="0"/>
        <pt x="510" y="689" on="1"/>
        <pt x="562" y="689" on="0"/>
        <pt x="592" y="678" on="1"/>
        <pt x="598" y="670" on="1"/>
        <pt x="411" y="0" on="1"/>
        <pt x="354" y="-6" on="0"/>
        <pt x="239" y="-6" on="0"/>
        <pt x="188" y="23" on="0"/>
        <pt x="175" y="66" on="1"/>
        <pt x="9" y="669" on="1"/>
        <pt x="63" y="692" on="0"/>
        <pt x="98" y="692" on="1"/>
        <pt x="140" y="692" on="0"/>
        <pt x="180" y="654" on="0"/>
        <pt x="191" y="613" on="1"/>
        <pt x="268" y="328" on="1"/>
        <pt x="286" y="261" on="0"/>
        <pt x="306" y="146" on="1"/>
        <pt x="308" y="134" on="0"/>
      </contour>
    </TTGlyph>
    <TTGlyph name="W" xMin="15" yMin="-6" xMax="883" yMax="692">
      <contour>
        <pt x="133" y="66" on="1"/>
        <pt x="15" y="674" on="1"/>
        <pt x="63" y="692" on="0"/>
        <pt x="100" y="692" on="1"/>
        <pt x="142" y="692" on="0"/>
        <pt x="180" y="655" on="0"/>
        <pt x="188" y="604" on="1"/>
        <pt x="230" y="346" on="1"/>
        <pt x="249" y="230" on="0"/>
        <pt x="259" y="138" on="0"/>
        <pt x="262" y="134" on="0"/>
        <pt x="267" y="134" on="1"/>
        <pt x="350" y="670" on="1"/>
        <pt x="387" y="677" on="0"/>
        <pt x="519" y="677" on="0"/>
        <pt x="555" y="670" on="1"/>
        <pt x="631" y="147" on="1"/>
        <pt x="632" y="138" on="0"/>
        <pt x="637" y="134" on="0"/>
        <pt x="642" y="134" on="1"/>
        <pt x="651" y="228" on="0"/>
        <pt x="672" y="347" on="1"/>
        <pt x="728" y="683" on="1"/>
        <pt x="757" y="689" on="0"/>
        <pt x="795" y="689" on="1"/>
        <pt x="841" y="689" on="0"/>
        <pt x="876" y="678" on="1"/>
        <pt x="883" y="669" on="1"/>
        <pt x="751" y="1" on="1"/>
        <pt x="686" y="-6" on="0"/>
        <pt x="572" y="-6" on="0"/>
        <pt x="524" y="22" on="0"/>
        <pt x="517" y="66" on="1"/>
        <pt x="483" y="283" on="1"/>
        <pt x="465" y="401" on="0"/>
        <pt x="454" y="515" on="1"/>
        <pt x="447" y="515" on="1"/>
        <pt x="436" y="418" on="0"/>
        <pt x="414" y="283" on="1"/>
        <pt x="369" y="1" on="1"/>
        <pt x="301" y="-6" on="0"/>
        <pt x="190" y="-6" on="0"/>
        <pt x="142" y="22" on="0"/>
      </contour>
    </TTGlyph>
    <TTGlyph name="X" xMin="8" yMin="-10" xMax="608" yMax="693">
      <contour>
        <pt x="433" y="683" on="1"/>
        <pt x="458" y="689" on="0"/>
        <pt x="500" y="689" on="1"/>
        <pt x="548" y="689" on="0"/>
        <pt x="583" y="675" on="1"/>
        <pt x="587" y="668" on="1"/>
        <pt x="399" y="359" on="1"/>
        <pt x="608" y="25" on="1"/>
        <pt x="555" y="-10" on="0"/>
        <pt x="513" y="-10" on="1"/>
        <pt x="469" y="-10" on="0"/>
        <pt x="423" y="18" on="0"/>
        <pt x="400" y="53" on="1"/>
        <pt x="296" y="221" on="1"/>
        <pt x="165" y="0" on="1"/>
        <pt x="140" y="-6" on="0"/>
        <pt x="52" y="-6" on="0"/>
        <pt x="12" y="8" on="1"/>
        <pt x="8" y="16" on="1"/>
        <pt x="214" y="352" on="1"/>
        <pt x="24" y="658" on="1"/>
        <pt x="77" y="693" on="0"/>
        <pt x="119" y="693" on="1"/>
        <pt x="163" y="693" on="0"/>
        <pt x="208" y="665" on="0"/>
        <pt x="230" y="630" on="1"/>
        <pt x="318" y="488" on="1"/>
      </contour>
    </TTGlyph>
    <TTGlyph name="Y" xMin="-2" yMin="-6" xMax="545" yMax="691">
      <contour>
        <pt x="328" y="514" on="1"/>
        <pt x="395" y="683" on="1"/>
        <pt x="421" y="689" on="0"/>
        <pt x="462" y="689" on="1"/>
        <pt x="506" y="689" on="0"/>
        <pt x="538" y="677" on="1"/>
        <pt x="545" y="669" on="1"/>
        <pt x="351" y="210" on="1"/>
        <pt x="351" y="0" on="1"/>
        <pt x="320" y="-6" on="0"/>
        <pt x="222" y="-6" on="0"/>
        <pt x="191" y="0" on="1"/>
        <pt x="191" y="214" on="1"/>
        <pt x="-2" y="664" on="1"/>
        <pt x="44" y="691" on="0"/>
        <pt x="86" y="691" on="1"/>
        <pt x="128" y="691" on="0"/>
        <pt x="165" y="662" on="0"/>
        <pt x="179" y="627" on="1"/>
        <pt x="227" y="508" on="1"/>
        <pt x="253" y="444" on="0"/>
        <pt x="272" y="365" on="1"/>
        <pt x="278" y="365" on="1"/>
        <pt x="294" y="428" on="0"/>
      </contour>
    </TTGlyph>
    <TTGlyph name="Yacute" xMin="-2" yMin="-6" xMax="545" yMax="939">
      <component glyphName="Y" x="0" y="0" flags="0x204"/>
      <component glyphName="acute.cap" x="74" y="0" flags="0x4"/>
    </TTGlyph>
    <TTGlyph name="Ydieresis" xMin="-2" yMin="-6" xMax="545" yMax="870">
      <component glyphName="Y" x="0" y="0" flags="0x204"/>
      <component glyphName="dieresis.cap" x="73" y="0" flags="0x4"/>
    </TTGlyph>
    <TTGlyph name="Z" xMin="37" yMin="0" xMax="542" yMax="683">
      <contour>
        <pt x="57" y="155" on="1"/>
        <pt x="279" y="460" on="1"/>
        <pt x="313" y="509" on="0"/>
        <pt x="360" y="559" on="1"/>
        <pt x="357" y="562" on="1"/>
        <pt x="286" y="553" on="0"/>
        <pt x="202" y="553" on="1"/>
        <pt x="59" y="553" on="1"/>
        <pt x="53" y="576" on="0"/>
        <pt x="53" y="641" on="0"/>
        <pt x="64" y="683" on="1"/>
        <pt x="507" y="683" on="1"/>
        <pt x="529" y="600" on="0"/>
        <pt x="529" y="555" on="0"/>
        <pt x="511" y="529" on="1"/>
        <pt x="288" y="223" on="1"/>
        <pt x="254" y="175" on="0"/>
        <pt x="210" y="129" on="1"/>
        <pt x="213" y="126" on="1"/>
        <pt x="313" y="133" on="0"/>
        <pt x="363" y="133" on="1"/>
        <pt x="419" y="133" on="1"/>
        <pt x="479" y="133" on="0"/>
        <pt x="531" y="156" on="1"/>
        <pt x="542" y="121" on="0"/>
        <pt x="542" y="43" on="0"/>
        <pt x="485" y="0" on="0"/>
        <pt x="437" y="0" on="1"/>
        <pt x="55" y="0" on="1"/>
        <pt x="37" y="80" on="0"/>
        <pt x="37" y="127" on="0"/>
      </contour>
    </TTGlyph>
    <TTGlyph name="Zacute" xMin="37" yMin="0" xMax="542" yMax="939">
      <component glyphName="Z" x="0" y="0" flags="0x204"/>
      <component glyphName="acute.cap" x="89" y="0" flags="0x4"/>
    </TTGlyph>
    <TTGlyph name="Zcaron" xMin="37" yMin="0" xMax="542" yMax="932">
      <component glyphName="Z" x="0" y="0" flags="0x204"/>
      <component glyphName="caron.cap" x="89" y="0" flags="0x4"/>
    </TTGlyph>
    <TTGlyph name="Zdotaccent" xMin="37" yMin="0" xMax="542" yMax="889">
      <component glyphName="Z" x="0" y="0" flags="0x204"/>
      <component glyphName="dotaccent.cap" x="90" y="0" flags="0x4"/>
    </TTGlyph>
    <TTGlyph name="a" xMin="30" yMin="-15" xMax="484" yMax="511">
      <contour>
        <pt x="484" y="72" on="1"/>
        <pt x="479" y="51" on="0"/>
        <pt x="451" y="3" on="0"/>
        <pt x="436" y="-8" on="1"/>
        <pt x="366" y="-6" on="0"/>
        <pt x="328" y="45" on="1"/>
        <pt x="263" y="-15" on="0"/>
        <pt x="187" y="-15" on="1"/>
        <pt x="148" y="-15" on="0"/>
        <pt x="90" y="10" on="0"/>
        <pt x="50" y="52" on="0"/>
        <pt x="30" y="107" on="0"/>
        <pt x="30" y="137" on="1"/>
        <pt x="30" y="180" on="0"/>
        <pt x="61" y="245" on="0"/>
        <pt x="115" y="288" on="0"/>
        <pt x="187" y="310" on="0"/>
        <pt x="228" y="310" on="1"/>
        <pt x="251" y="310" on="0"/>
        <pt x="286" y="309" on="0"/>
        <pt x="299" y="308" on="1"/>
        <pt x="299" y="327" on="1"/>
        <pt x="299" y="390" on="0"/>
        <pt x="234" y="390" on="1"/>
        <pt x="192" y="390" on="0"/>
        <pt x="87" y="358" on="1"/>
        <pt x="57" y="393" on="0"/>
        <pt x="49" y="467" on="1"/>
        <pt x="73" y="476" on="0"/>
        <pt x="132" y="492" on="0"/>
        <pt x="194" y="504" on="0"/>
        <pt x="254" y="511" on="0"/>
        <pt x="278" y="511" on="1"/>
        <pt x="313" y="511" on="0"/>
        <pt x="378" y="491" on="0"/>
        <pt x="427" y="450" on="0"/>
        <pt x="456" y="385" on="0"/>
        <pt x="456" y="340" on="1"/>
        <pt x="456" y="137" on="1"/>
        <pt x="456" y="91" on="0"/>
      </contour>
      <contour>
        <pt x="182" y="147" on="1"/>
        <pt x="182" y="100" on="0"/>
        <pt x="236" y="100" on="1"/>
        <pt x="264" y="100" on="0"/>
        <pt x="299" y="129" on="1"/>
        <pt x="299" y="209" on="1"/>
        <pt x="279" y="210" on="0"/>
        <pt x="252" y="211" on="0"/>
        <pt x="245" y="211" on="1"/>
        <pt x="182" y="211" on="0"/>
      </contour>
    </TTGlyph>
    <TTGlyph name="a.smcp" xMin="4" yMin="-9" xMax="571" yMax="557">
      <contour>
        <pt x="212" y="97" on="1"/>
        <pt x="191" y="97" on="0"/>
        <pt x="181" y="98" on="1"/>
        <pt x="150" y="0" on="1"/>
        <pt x="123" y="-7" on="0"/>
        <pt x="81" y="-7" on="1"/>
        <pt x="36" y="-7" on="0"/>
        <pt x="10" y="5" on="1"/>
        <pt x="4" y="13" on="1"/>
        <pt x="199" y="551" on="1"/>
        <pt x="241" y="557" on="0"/>
        <pt x="339" y="557" on="0"/>
        <pt x="382" y="551" on="1"/>
        <pt x="571" y="8" on="1"/>
        <pt x="534" y="-9" on="0"/>
        <pt x="491" y="-9" on="1"/>
        <pt x="449" y="-9" on="0"/>
        <pt x="404" y="16" on="0"/>
        <pt x="392" y="57" on="1"/>
        <pt x="379" y="98" on="1"/>
        <pt x="368" y="97" on="0"/>
        <pt x="348" y="97" on="1"/>
      </contour>
      <contour>
        <pt x="221" y="220" on="1"/>
        <pt x="252" y="221" on="1"/>
        <pt x="314" y="221" on="1"/>
        <pt x="319" y="221" on="0"/>
        <pt x="336" y="220" on="0"/>
        <pt x="340" y="220" on="1"/>
        <pt x="330" y="254" on="1"/>
        <pt x="326" y="269" on="0"/>
        <pt x="286" y="430" on="1"/>
        <pt x="280" y="430" on="1"/>
        <pt x="252" y="318" on="0"/>
        <pt x="232" y="254" on="1"/>
      </contour>
    </TTGlyph>
    <TTGlyph name="aacute" xMin="30" yMin="-15" xMax="484" yMax="770">
      <component glyphName="a" x="0" y="0" flags="0x204"/>
      <component glyphName="acute" x="52" y="0" flags="0x4"/>
    </TTGlyph>
    <TTGlyph name="aacute.smcp" xMin="4" yMin="-9" xMax="571" yMax="822">
      <component glyphName="a.smcp" x="0" y="0" flags="0x204"/>
      <component glyphName="acute" x="97" y="52" flags="0x4"/>
    </TTGlyph>
    <TTGlyph name="acircumflex" xMin="30" yMin="-15" xMax="484" yMax="758">
      <component glyphName="a" x="0" y="0" flags="0x204"/>
      <component glyphName="circumflex" x="51" y="0" flags="0x4"/>
    </TTGlyph>
    <TTGlyph name="acircumflex.smcp" xMin="4" yMin="-9" xMax="571" yMax="810">
      <component glyphName="a.smcp" x="0" y="0" flags="0x204"/>
      <component glyphName="circumflex" x="94" y="52" flags="0x4"/>
    </TTGlyph>
    <TTGlyph name="acute" xMin="104" yMin="541" xMax="353" yMax="770">
      <contour>
        <pt x="104" y="601" on="1"/>
        <pt x="259" y="770" on="1"/>
        <pt x="288" y="761" on="0"/>
        <pt x="344" y="708" on="0"/>
        <pt x="353" y="680" on="1"/>
        <pt x="168" y="541" on="1"/>
        <pt x="148" y="546" on="0"/>
        <pt x="111" y="580" on="0"/>
      </contour>
    </TTGlyph>
    <TTGlyph name="acute.cap" xMin="74" yMin="727" xMax="359" yMax="939">
      <contour>
        <pt x="74" y="802" on="1"/>
        <pt x="298" y="939" on="1"/>
        <pt x="318" y="923" on="0"/>
        <pt x="357" y="854" on="0"/>
        <pt x="359" y="821" on="1"/>
        <pt x="119" y="727" on="1"/>
        <pt x="103" y="736" on="0"/>
        <pt x="77" y="780" on="0"/>
      </contour>
    </TTGlyph>
    <TTGlyph name="adieresis" xMin="30" yMin="-15" xMax="484" yMax="689">
      <component glyphName="a" x="0" y="0" flags="0x204"/>
      <component glyphName="dieresis" x="50" y="0" flags="0x4"/>
    </TTGlyph>
    <TTGlyph name="adieresis.smcp" xMin="4" yMin="-9" xMax="571" yMax="741">
      <component glyphName="a.smcp" x="0" y="0" flags="0x204"/>
      <component glyphName="dieresis" x="94" y="52" flags="0x4"/>
    </TTGlyph>
    <TTGlyph name="ae" xMin="30" yMin="-15" xMax="726" yMax="514">
      <contour>
        <pt x="713" y="199" on="1"/>
        <pt x="455" y="199" on="1"/>
        <pt x="456" y="154" on="0"/>
        <pt x="497" y="104" on="0"/>
        <pt x="544" y="104" on="1"/>
        <pt x="568" y="104" on="0"/>
        <pt x="631" y="118" on="0"/>
        <pt x="671" y="134" on="1"/>
        <pt x="703" y="102" on="0"/>
        <pt x="713" y="42" on="1"/>
        <pt x="632" y="-15" on="0"/>
        <pt x="520" y="-15" on="1"/>
        <pt x="409" y="-15" on="0"/>
        <pt x="353" y="56" on="1"/>
        <pt x="279" y="-15" on="0"/>
        <pt x="182" y="-15" on="1"/>
        <pt x="146" y="-15" on="0"/>
        <pt x="89" y="11" on="0"/>
        <pt x="50" y="53" on="0"/>
        <pt x="30" y="108" on="0"/>
        <pt x="30" y="137" on="1"/>
        <pt x="30" y="180" on="0"/>
        <pt x="61" y="245" on="0"/>
        <pt x="115" y="288" on="0"/>
        <pt x="187" y="310" on="0"/>
        <pt x="228" y="310" on="1"/>
        <pt x="251" y="310" on="0"/>
        <pt x="286" y="309" on="0"/>
        <pt x="299" y="308" on="1"/>
        <pt x="299" y="328" on="1"/>
        <pt x="299" y="390" on="0"/>
        <pt x="235" y="390" on="1"/>
        <pt x="186" y="390" on="0"/>
        <pt x="87" y="358" on="1"/>
        <pt x="57" y="393" on="0"/>
        <pt x="49" y="467" on="1"/>
        <pt x="160" y="511" on="0"/>
        <pt x="266" y="511" on="1"/>
        <pt x="343" y="511" on="0"/>
        <pt x="388" y="465" on="1"/>
        <pt x="443" y="514" on="0"/>
        <pt x="519" y="514" on="1"/>
        <pt x="567" y="514" on="0"/>
        <pt x="644" y="483" on="0"/>
        <pt x="697" y="426" on="0"/>
        <pt x="726" y="348" on="0"/>
        <pt x="726" y="302" on="1"/>
        <pt x="726" y="245" on="0"/>
      </contour>
      <contour>
        <pt x="228" y="100" on="1"/>
        <pt x="272" y="100" on="0"/>
        <pt x="312" y="140" on="1"/>
        <pt x="303" y="171" on="0"/>
        <pt x="300" y="209" on="1"/>
        <pt x="290" y="210" on="0"/>
        <pt x="262" y="211" on="0"/>
        <pt x="245" y="211" on="1"/>
        <pt x="182" y="211" on="0"/>
        <pt x="182" y="146" on="1"/>
        <pt x="182" y="126" on="0"/>
        <pt x="207" y="100" on="0"/>
      </contour>
      <contour>
        <pt x="518" y="403" on="1"/>
        <pt x="486" y="403" on="0"/>
        <pt x="457" y="358" on="0"/>
        <pt x="454" y="307" on="1"/>
        <pt x="582" y="307" on="1"/>
        <pt x="582" y="318" on="1"/>
        <pt x="582" y="403" on="0"/>
      </contour>
    </TTGlyph>
    <TTGlyph name="ae.smcp" xMin="1" yMin="-6" xMax="766" yMax="551">
      <contour>
        <pt x="501" y="184" on="1"/>
        <pt x="500" y="122" on="1"/>
        <pt x="500" y="120" on="1"/>
        <pt x="544" y="124" on="0"/>
        <pt x="567" y="124" on="1"/>
        <pt x="766" y="124" on="1"/>
        <pt x="766" y="92" on="0"/>
        <pt x="763" y="73" on="1"/>
        <pt x="751" y="-2" on="0"/>
        <pt x="669" y="-2" on="1"/>
        <pt x="442" y="-2" on="1"/>
        <pt x="401" y="-2" on="0"/>
        <pt x="355" y="46" on="0"/>
        <pt x="355" y="87" on="1"/>
        <pt x="355" y="104" on="1"/>
        <pt x="345" y="103" on="0"/>
        <pt x="326" y="103" on="1"/>
        <pt x="240" y="103" on="1"/>
        <pt x="194" y="104" on="1"/>
        <pt x="146" y="0" on="1"/>
        <pt x="122" y="-6" on="0"/>
        <pt x="33" y="-6" on="0"/>
        <pt x="7" y="5" on="1"/>
        <pt x="1" y="14" on="1"/>
        <pt x="261" y="539" on="1"/>
        <pt x="287" y="551" on="0"/>
        <pt x="359" y="551" on="1"/>
        <pt x="747" y="551" on="1"/>
        <pt x="752" y="528" on="0"/>
        <pt x="752" y="460" on="0"/>
        <pt x="740" y="425" on="1"/>
        <pt x="500" y="425" on="1"/>
        <pt x="501" y="370" on="1"/>
        <pt x="501" y="336" on="1"/>
        <pt x="525" y="337" on="0"/>
        <pt x="561" y="337" on="1"/>
        <pt x="693" y="337" on="1"/>
        <pt x="702" y="314" on="0"/>
        <pt x="702" y="241" on="0"/>
        <pt x="693" y="217" on="1"/>
        <pt x="501" y="217" on="1"/>
      </contour>
      <contour>
        <pt x="324" y="219" on="1"/>
        <pt x="355" y="218" on="1"/>
        <pt x="355" y="442" on="1"/>
        <pt x="354" y="441" on="1"/>
        <pt x="350" y="441" on="1"/>
        <pt x="247" y="218" on="1"/>
        <pt x="284" y="219" on="1"/>
      </contour>
    </TTGlyph>
    <TTGlyph name="agrave" xMin="30" yMin="-15" xMax="484" yMax="770">
      <component glyphName="a" x="0" y="0" flags="0x204"/>
      <component glyphName="grave" x="52" y="0" flags="0x4"/>
    </TTGlyph>
    <TTGlyph name="agrave.smcp" xMin="4" yMin="-9" xMax="571" yMax="822">
      <component glyphName="a.smcp" x="0" y="0" flags="0x204"/>
      <component glyphName="grave" x="96" y="52" flags="0x4"/>
    </TTGlyph>
    <TTGlyph name="ampersand" xMin="40" yMin="-15" xMax="652" yMax="698">
      <contour>
        <pt x="536" y="293" on="1"/>
        <pt x="537" y="160" on="1"/>
        <pt x="537" y="121" on="0"/>
        <pt x="540" y="42" on="0"/>
        <pt x="544" y="0" on="1"/>
        <pt x="521" y="-9" on="0"/>
        <pt x="473" y="-9" on="1"/>
        <pt x="423" y="-9" on="0"/>
        <pt x="401" y="-2" on="1"/>
        <pt x="391" y="42" on="1"/>
        <pt x="326" y="-15" on="0"/>
        <pt x="235" y="-15" on="1"/>
        <pt x="189" y="-15" on="0"/>
        <pt x="116" y="15" on="0"/>
        <pt x="66" y="66" on="0"/>
        <pt x="40" y="133" on="0"/>
        <pt x="40" y="171" on="1"/>
        <pt x="40" y="247" on="0"/>
        <pt x="113" y="347" on="0"/>
        <pt x="167" y="364" on="1"/>
        <pt x="122" y="380" on="0"/>
        <pt x="69" y="461" on="0"/>
        <pt x="69" y="515" on="1"/>
        <pt x="69" y="599" on="0"/>
        <pt x="189" y="698" on="0"/>
        <pt x="294" y="698" on="1"/>
        <pt x="309" y="698" on="0"/>
        <pt x="377" y="694" on="0"/>
        <pt x="446" y="682" on="0"/>
        <pt x="499" y="664" on="1"/>
        <pt x="499" y="625" on="0"/>
        <pt x="478" y="567" on="0"/>
        <pt x="459" y="547" on="1"/>
        <pt x="376" y="575" on="0"/>
        <pt x="325" y="575" on="1"/>
        <pt x="233" y="575" on="0"/>
        <pt x="233" y="502" on="1"/>
        <pt x="233" y="424" on="0"/>
        <pt x="332" y="424" on="1"/>
        <pt x="526" y="424" on="1"/>
        <pt x="586" y="424" on="0"/>
        <pt x="632" y="444" on="1"/>
        <pt x="652" y="418" on="0"/>
        <pt x="652" y="371" on="1"/>
        <pt x="652" y="293" on="0"/>
        <pt x="558" y="293" on="1"/>
      </contour>
      <contour>
        <pt x="383" y="231" on="1"/>
        <pt x="383" y="251" on="0"/>
        <pt x="383" y="282" on="0"/>
        <pt x="384" y="293" on="1"/>
        <pt x="320" y="293" on="1"/>
        <pt x="203" y="293" on="0"/>
        <pt x="203" y="194" on="1"/>
        <pt x="203" y="149" on="0"/>
        <pt x="246" y="106" on="0"/>
        <pt x="280" y="106" on="1"/>
        <pt x="339" y="106" on="0"/>
        <pt x="383" y="144" on="1"/>
      </contour>
    </TTGlyph>
    <TTGlyph name="ampersand.smcp" xMin="35" yMin="-14" xMax="595" yMax="566">
      <contour>
        <pt x="310" y="349" on="1"/>
        <pt x="475" y="349" on="1"/>
        <pt x="535" y="349" on="0"/>
        <pt x="576" y="370" on="1"/>
        <pt x="595" y="345" on="0"/>
        <pt x="595" y="303" on="1"/>
        <pt x="595" y="261" on="0"/>
        <pt x="548" y="228" on="0"/>
        <pt x="502" y="228" on="1"/>
        <pt x="492" y="228" on="1"/>
        <pt x="493" y="211" on="0"/>
        <pt x="494" y="182" on="0"/>
        <pt x="494" y="170" on="1"/>
        <pt x="494" y="97" on="1"/>
        <pt x="494" y="91" on="0"/>
        <pt x="497" y="43" on="0"/>
        <pt x="501" y="1" on="1"/>
        <pt x="474" y="-10" on="0"/>
        <pt x="430" y="-10" on="1"/>
        <pt x="384" y="-10" on="0"/>
        <pt x="359" y="-4" on="1"/>
        <pt x="350" y="34" on="1"/>
        <pt x="293" y="-14" on="0"/>
        <pt x="209" y="-14" on="1"/>
        <pt x="168" y="-14" on="0"/>
        <pt x="103" y="11" on="0"/>
        <pt x="58" y="53" on="0"/>
        <pt x="35" y="108" on="0"/>
        <pt x="35" y="138" on="1"/>
        <pt x="35" y="199" on="0"/>
        <pt x="101" y="280" on="0"/>
        <pt x="150" y="294" on="1"/>
        <pt x="111" y="307" on="0"/>
        <pt x="65" y="372" on="0"/>
        <pt x="65" y="415" on="1"/>
        <pt x="65" y="449" on="0"/>
        <pt x="95" y="505" on="0"/>
        <pt x="149" y="545" on="0"/>
        <pt x="224" y="566" on="0"/>
        <pt x="269" y="566" on="1"/>
        <pt x="276" y="566" on="0"/>
        <pt x="310" y="564" on="0"/>
        <pt x="353" y="561" on="0"/>
        <pt x="398" y="553" on="0"/>
        <pt x="436" y="545" on="0"/>
        <pt x="461" y="537" on="1"/>
        <pt x="461" y="467" on="0"/>
        <pt x="421" y="424" on="1"/>
        <pt x="377" y="437" on="0"/>
        <pt x="315" y="448" on="0"/>
        <pt x="294" y="448" on="1"/>
        <pt x="256" y="448" on="0"/>
        <pt x="231" y="420" on="0"/>
        <pt x="228" y="402" on="1"/>
        <pt x="228" y="349" on="0"/>
      </contour>
      <contour>
        <pt x="344" y="128" on="1"/>
        <pt x="344" y="228" on="1"/>
        <pt x="297" y="228" on="1"/>
        <pt x="243" y="228" on="0"/>
        <pt x="196" y="192" on="0"/>
        <pt x="196" y="156" on="1"/>
        <pt x="196" y="130" on="0"/>
        <pt x="233" y="101" on="0"/>
        <pt x="262" y="101" on="1"/>
        <pt x="280" y="101" on="0"/>
        <pt x="322" y="114" on="0"/>
      </contour>
    </TTGlyph>
    <TTGlyph name="aogonek" xMin="30" yMin="-218" xMax="512" yMax="511">
      <contour>
        <pt x="479" y="-107" on="1"/>
        <pt x="509" y="-133" on="0"/>
        <pt x="512" y="-178" on="1"/>
        <pt x="462" y="-218" on="0"/>
        <pt x="401" y="-218" on="1"/>
        <pt x="341" y="-218" on="0"/>
        <pt x="274" y="-164" on="0"/>
        <pt x="274" y="-119" on="1"/>
        <pt x="274" y="-44" on="0"/>
        <pt x="357" y="18" on="1"/>
        <pt x="342" y="29" on="0"/>
        <pt x="329" y="45" on="1"/>
        <pt x="265" y="-15" on="0"/>
        <pt x="110" y="-15" on="0"/>
        <pt x="30" y="77" on="0"/>
        <pt x="30" y="137" on="1"/>
        <pt x="30" y="222" on="0"/>
        <pt x="144" y="310" on="0"/>
        <pt x="228" y="310" on="1"/>
        <pt x="273" y="310" on="0"/>
        <pt x="299" y="308" on="1"/>
        <pt x="299" y="327" on="1"/>
        <pt x="299" y="390" on="0"/>
        <pt x="234" y="390" on="1"/>
        <pt x="191" y="390" on="0"/>
        <pt x="87" y="358" on="1"/>
        <pt x="56" y="394" on="0"/>
        <pt x="49" y="467" on="1"/>
        <pt x="98" y="487" on="0"/>
        <pt x="228" y="511" on="0"/>
        <pt x="278" y="511" on="1"/>
        <pt x="352" y="511" on="0"/>
        <pt x="456" y="428" on="0"/>
        <pt x="456" y="340" on="1"/>
        <pt x="456" y="137" on="1"/>
        <pt x="456" y="94" on="0"/>
        <pt x="487" y="72" on="1"/>
        <pt x="475" y="31" on="0"/>
        <pt x="430" y="-14" on="1"/>
        <pt x="388" y="-52" on="0"/>
        <pt x="388" y="-85" on="1"/>
        <pt x="388" y="-122" on="0"/>
        <pt x="429" y="-122" on="1"/>
        <pt x="455" y="-122" on="0"/>
      </contour>
      <contour>
        <pt x="182" y="147" on="1"/>
        <pt x="182" y="100" on="0"/>
        <pt x="236" y="100" on="1"/>
        <pt x="264" y="100" on="0"/>
        <pt x="299" y="129" on="1"/>
        <pt x="299" y="209" on="1"/>
        <pt x="259" y="211" on="0"/>
        <pt x="245" y="211" on="1"/>
        <pt x="182" y="211" on="0"/>
      </contour>
    </TTGlyph>
    <TTGlyph name="aogonek.smcp" xMin="4" yMin="-218" xMax="610" yMax="557">
      <contour>
        <pt x="4" y="13" on="1"/>
        <pt x="199" y="551" on="1"/>
        <pt x="241" y="557" on="0"/>
        <pt x="339" y="557" on="0"/>
        <pt x="382" y="551" on="1"/>
        <pt x="571" y="8" on="1"/>
        <pt x="486" y="-33" on="0"/>
        <pt x="486" y="-86" on="1"/>
        <pt x="486" y="-103" on="0"/>
        <pt x="509" y="-122" on="0"/>
        <pt x="530" y="-122" on="1"/>
        <pt x="553" y="-122" on="0"/>
        <pt x="577" y="-107" on="1"/>
        <pt x="607" y="-133" on="0"/>
        <pt x="610" y="-178" on="1"/>
        <pt x="560" y="-218" on="0"/>
        <pt x="500" y="-218" on="1"/>
        <pt x="439" y="-218" on="0"/>
        <pt x="372" y="-164" on="0"/>
        <pt x="372" y="-119" on="1"/>
        <pt x="372" y="-59" on="0"/>
        <pt x="437" y="-2" on="1"/>
        <pt x="405" y="11" on="0"/>
        <pt x="392" y="57" on="1"/>
        <pt x="379" y="98" on="1"/>
        <pt x="368" y="97" on="0"/>
        <pt x="348" y="97" on="1"/>
        <pt x="212" y="97" on="1"/>
        <pt x="191" y="97" on="0"/>
        <pt x="181" y="98" on="1"/>
        <pt x="150" y="0" on="1"/>
        <pt x="123" y="-7" on="0"/>
        <pt x="36" y="-7" on="0"/>
        <pt x="10" y="5" on="1"/>
      </contour>
      <contour>
        <pt x="221" y="220" on="1"/>
        <pt x="252" y="221" on="1"/>
        <pt x="314" y="221" on="1"/>
        <pt x="319" y="221" on="0"/>
        <pt x="336" y="220" on="0"/>
        <pt x="340" y="220" on="1"/>
        <pt x="330" y="254" on="1"/>
        <pt x="326" y="269" on="0"/>
        <pt x="286" y="430" on="1"/>
        <pt x="280" y="430" on="1"/>
        <pt x="252" y="318" on="0"/>
        <pt x="232" y="254" on="1"/>
      </contour>
    </TTGlyph>
    <TTGlyph name="aring" xMin="30" yMin="-15" xMax="484" yMax="799">
      <component glyphName="a" x="0" y="0" flags="0x204"/>
      <component glyphName="ring" x="52" y="0" flags="0x4"/>
    </TTGlyph>
    <TTGlyph name="aring.smcp" xMin="4" yMin="-9" xMax="571" yMax="851">
      <component glyphName="a.smcp" x="0" y="0" flags="0x204"/>
      <component glyphName="ring" x="94" y="52" flags="0x4"/>
    </TTGlyph>
    <TTGlyph name="asciicircum" xMin="28" yMin="299" xMax="502" yMax="655">
      <contour>
        <pt x="348" y="648" on="1"/>
        <pt x="502" y="306" on="1"/>
        <pt x="473" y="299" on="0"/>
        <pt x="383" y="299" on="0"/>
        <pt x="353" y="306" on="1"/>
        <pt x="306" y="425" on="1"/>
        <pt x="295" y="452" on="0"/>
        <pt x="269" y="532" on="1"/>
        <pt x="261" y="532" on="1"/>
        <pt x="235" y="452" on="0"/>
        <pt x="224" y="425" on="1"/>
        <pt x="177" y="306" on="1"/>
        <pt x="147" y="299" on="0"/>
        <pt x="57" y="299" on="0"/>
        <pt x="28" y="306" on="1"/>
        <pt x="182" y="648" on="1"/>
        <pt x="208" y="655" on="0"/>
        <pt x="320" y="655" on="0"/>
      </contour>
    </TTGlyph>
    <TTGlyph name="asciitilde" xMin="31" yMin="193" xMax="601" yMax="406">
      <contour>
        <pt x="301" y="385" on="1"/>
        <pt x="385" y="347" on="1"/>
        <pt x="409" y="336" on="0"/>
        <pt x="428" y="336" on="1"/>
        <pt x="442" y="336" on="0"/>
        <pt x="469" y="348" on="0"/>
        <pt x="484" y="363" on="1"/>
        <pt x="509" y="389" on="1"/>
        <pt x="522" y="387" on="0"/>
        <pt x="550" y="377" on="0"/>
        <pt x="576" y="362" on="0"/>
        <pt x="596" y="341" on="0"/>
        <pt x="601" y="329" on="1"/>
        <pt x="581" y="295" on="1"/>
        <pt x="551" y="243" on="0"/>
        <pt x="470" y="193" on="0"/>
        <pt x="420" y="193" on="1"/>
        <pt x="379" y="193" on="0"/>
        <pt x="331" y="214" on="1"/>
        <pt x="248" y="251" on="1"/>
        <pt x="234" y="257" on="0"/>
        <pt x="212" y="261" on="0"/>
        <pt x="204" y="262" on="1"/>
        <pt x="173" y="262" on="0"/>
        <pt x="149" y="236" on="1"/>
        <pt x="124" y="209" on="1"/>
        <pt x="97" y="211" on="0"/>
        <pt x="42" y="244" on="0"/>
        <pt x="31" y="269" on="1"/>
        <pt x="51" y="303" on="1"/>
        <pt x="112" y="406" on="0"/>
        <pt x="212" y="406" on="1"/>
        <pt x="254" y="406" on="0"/>
      </contour>
    </TTGlyph>
    <TTGlyph name="asterisk" xMin="34" yMin="304" xMax="485" yMax="739">
      <contour>
        <pt x="36" y="522" on="1"/>
        <pt x="34" y="545" on="0"/>
        <pt x="59" y="623" on="0"/>
        <pt x="75" y="641" on="1"/>
        <pt x="135" y="618" on="1"/>
        <pt x="167" y="605" on="0"/>
        <pt x="224" y="564" on="1"/>
        <pt x="203" y="628" on="0"/>
        <pt x="201" y="665" on="1"/>
        <pt x="197" y="730" on="1"/>
        <pt x="218" y="739" on="0"/>
        <pt x="300" y="739" on="0"/>
        <pt x="322" y="730" on="1"/>
        <pt x="319" y="665" on="1"/>
        <pt x="317" y="631" on="0"/>
        <pt x="295" y="563" on="1"/>
        <pt x="345" y="599" on="0"/>
        <pt x="385" y="616" on="1"/>
        <pt x="445" y="640" on="1"/>
        <pt x="460" y="622" on="0"/>
        <pt x="485" y="546" on="0"/>
        <pt x="484" y="522" on="1"/>
        <pt x="421" y="505" on="1"/>
        <pt x="390" y="496" on="0"/>
        <pt x="317" y="496" on="1"/>
        <pt x="368" y="459" on="0"/>
        <pt x="395" y="427" on="1"/>
        <pt x="436" y="378" on="1"/>
        <pt x="424" y="358" on="0"/>
        <pt x="359" y="309" on="0"/>
        <pt x="336" y="304" on="1"/>
        <pt x="300" y="358" on="1"/>
        <pt x="283" y="384" on="0"/>
        <pt x="260" y="454" on="1"/>
        <pt x="240" y="392" on="0"/>
        <pt x="218" y="359" on="1"/>
        <pt x="184" y="305" on="1"/>
        <pt x="161" y="310" on="0"/>
        <pt x="95" y="357" on="0"/>
        <pt x="83" y="378" on="1"/>
        <pt x="124" y="428" on="1"/>
        <pt x="146" y="455" on="0"/>
        <pt x="202" y="496" on="1"/>
        <pt x="133" y="496" on="0"/>
        <pt x="99" y="506" on="1"/>
      </contour>
    </TTGlyph>
    <TTGlyph name="at" xMin="39" yMin="-203" xMax="948" yMax="686">
      <contour>
        <pt x="696" y="411" on="1"/>
        <pt x="695" y="164" on="1"/>
        <pt x="695" y="113" on="0"/>
        <pt x="726" y="113" on="1"/>
        <pt x="795" y="113" on="0"/>
        <pt x="795" y="300" on="1"/>
        <pt x="795" y="363" on="0"/>
        <pt x="754" y="463" on="0"/>
        <pt x="678" y="533" on="0"/>
        <pt x="569" y="571" on="0"/>
        <pt x="502" y="571" on="1"/>
        <pt x="434" y="571" on="0"/>
        <pt x="320" y="519" on="0"/>
        <pt x="239" y="427" on="0"/>
        <pt x="194" y="299" on="0"/>
        <pt x="194" y="223" on="1"/>
        <pt x="194" y="69" on="0"/>
        <pt x="340" y="-84" on="0"/>
        <pt x="473" y="-84" on="1"/>
        <pt x="573" y="-84" on="0"/>
        <pt x="669" y="-47" on="1"/>
        <pt x="708" y="-89" on="0"/>
        <pt x="708" y="-153" on="1"/>
        <pt x="685" y="-163" on="0"/>
        <pt x="624" y="-181" on="0"/>
        <pt x="557" y="-195" on="0"/>
        <pt x="490" y="-203" on="0"/>
        <pt x="461" y="-203" on="1"/>
        <pt x="365" y="-203" on="0"/>
        <pt x="209" y="-150" on="0"/>
        <pt x="99" y="-45" on="0"/>
        <pt x="39" y="112" on="0"/>
        <pt x="39" y="217" on="1"/>
        <pt x="39" y="320" on="0"/>
        <pt x="110" y="493" on="0"/>
        <pt x="234" y="617" on="0"/>
        <pt x="403" y="686" on="0"/>
        <pt x="501" y="686" on="1"/>
        <pt x="599" y="686" on="0"/>
        <pt x="763" y="632" on="0"/>
        <pt x="882" y="532" on="0"/>
        <pt x="948" y="387" on="0"/>
        <pt x="948" y="296" on="1"/>
        <pt x="948" y="223" on="0"/>
        <pt x="912" y="113" on="0"/>
        <pt x="851" y="38" on="0"/>
        <pt x="771" y="0" on="0"/>
        <pt x="727" y="0" on="1"/>
        <pt x="638" y="0" on="0"/>
        <pt x="587" y="59" on="1"/>
        <pt x="520" y="-3" on="0"/>
        <pt x="446" y="-3" on="1"/>
        <pt x="371" y="-3" on="0"/>
        <pt x="287" y="122" on="0"/>
        <pt x="287" y="233" on="1"/>
        <pt x="287" y="288" on="0"/>
        <pt x="316" y="380" on="0"/>
        <pt x="371" y="448" on="0"/>
        <pt x="452" y="486" on="0"/>
        <pt x="503" y="486" on="1"/>
        <pt x="531" y="486" on="0"/>
        <pt x="587" y="474" on="0"/>
        <pt x="638" y="454" on="0"/>
        <pt x="681" y="426" on="0"/>
      </contour>
      <contour>
        <pt x="551" y="146" on="1"/>
        <pt x="551" y="361" on="1"/>
        <pt x="531" y="378" on="0"/>
        <pt x="503" y="378" on="1"/>
        <pt x="437" y="378" on="0"/>
        <pt x="437" y="234" on="1"/>
        <pt x="437" y="169" on="0"/>
        <pt x="459" y="113" on="0"/>
        <pt x="489" y="113" on="1"/>
        <pt x="503" y="113" on="0"/>
        <pt x="535" y="129" on="0"/>
      </contour>
    </TTGlyph>
    <TTGlyph name="atilde" xMin="30" yMin="-15" xMax="484" yMax="721">
      <component glyphName="a" x="0" y="0" flags="0x204"/>
      <component glyphName="tilde" x="51" y="0" flags="0x4"/>
    </TTGlyph>
    <TTGlyph name="atilde.smcp" xMin="4" yMin="-9" xMax="571" yMax="773">
      <component glyphName="a.smcp" x="0" y="0" flags="0x204"/>
      <component glyphName="tilde" x="94" y="52" flags="0x4"/>
    </TTGlyph>
    <TTGlyph name="b" xMin="60" yMin="-9" xMax="505" yMax="736">
      <contour>
        <pt x="60" y="25" on="1"/>
        <pt x="60" y="729" on="1"/>
        <pt x="67" y="736" on="1"/>
        <pt x="126" y="736" on="1"/>
        <pt x="172" y="736" on="0"/>
        <pt x="212" y="694" on="0"/>
        <pt x="212" y="642" on="1"/>
        <pt x="212" y="475" on="1"/>
        <pt x="264" y="509" on="0"/>
        <pt x="328" y="509" on="1"/>
        <pt x="416" y="509" on="0"/>
        <pt x="505" y="367" on="0"/>
        <pt x="505" y="247" on="1"/>
        <pt x="505" y="190" on="0"/>
        <pt x="469" y="96" on="0"/>
        <pt x="405" y="28" on="0"/>
        <pt x="313" y="-9" on="0"/>
        <pt x="258" y="-9" on="1"/>
        <pt x="144" y="-9" on="0"/>
      </contour>
      <contour>
        <pt x="281" y="384" on="1"/>
        <pt x="242" y="384" on="0"/>
        <pt x="212" y="351" on="1"/>
        <pt x="212" y="107" on="1"/>
        <pt x="222" y="105" on="0"/>
        <pt x="245" y="103" on="0"/>
        <pt x="258" y="103" on="1"/>
        <pt x="345" y="103" on="0"/>
        <pt x="345" y="254" on="1"/>
        <pt x="345" y="383" on="0"/>
      </contour>
    </TTGlyph>
    <TTGlyph name="b.smcp" xMin="72" yMin="-4" xMax="531" yMax="556">
      <contour>
        <pt x="78" y="552" on="1"/>
        <pt x="130" y="554" on="0"/>
        <pt x="234" y="556" on="0"/>
        <pt x="287" y="556" on="1"/>
        <pt x="502" y="556" on="0"/>
        <pt x="502" y="409" on="1"/>
        <pt x="502" y="374" on="0"/>
        <pt x="462" y="311" on="0"/>
        <pt x="430" y="298" on="1"/>
        <pt x="451" y="291" on="0"/>
        <pt x="488" y="263" on="0"/>
        <pt x="515" y="227" on="0"/>
        <pt x="531" y="183" on="0"/>
        <pt x="531" y="161" on="1"/>
        <pt x="531" y="116" on="0"/>
        <pt x="500" y="53" on="0"/>
        <pt x="441" y="14" on="0"/>
        <pt x="357" y="-4" on="0"/>
        <pt x="304" y="-4" on="1"/>
        <pt x="198" y="-4" on="0"/>
        <pt x="78" y="-1" on="1"/>
        <pt x="72" y="4" on="1"/>
        <pt x="72" y="546" on="1"/>
      </contour>
      <contour>
        <pt x="290" y="234" on="1"/>
        <pt x="225" y="234" on="1"/>
        <pt x="225" y="104" on="1"/>
        <pt x="246" y="105" on="0"/>
        <pt x="297" y="104" on="0"/>
        <pt x="342" y="113" on="0"/>
        <pt x="373" y="139" on="0"/>
        <pt x="373" y="168" on="1"/>
        <pt x="373" y="193" on="0"/>
        <pt x="333" y="234" on="0"/>
      </contour>
      <contour>
        <pt x="225" y="449" on="1"/>
        <pt x="225" y="342" on="1"/>
        <pt x="279" y="342" on="1"/>
        <pt x="348" y="342" on="0"/>
        <pt x="348" y="396" on="1"/>
        <pt x="348" y="418" on="0"/>
        <pt x="330" y="438" on="0"/>
        <pt x="297" y="446" on="0"/>
        <pt x="252" y="447" on="0"/>
      </contour>
    </TTGlyph>
    <TTGlyph name="backslash" xMin="3" yMin="-120" xMax="450" yMax="768">
      <contour>
        <pt x="317" y="-120" on="1"/>
        <pt x="3" y="717" on="1"/>
        <pt x="57" y="759" on="0"/>
        <pt x="136" y="768" on="1"/>
        <pt x="450" y="-69" on="1"/>
        <pt x="399" y="-109" on="0"/>
      </contour>
    </TTGlyph>
    <TTGlyph name="bar" xMin="62" yMin="-149" xMax="208" yMax="780">
      <contour>
        <pt x="62" y="-142" on="1"/>
        <pt x="62" y="773" on="1"/>
        <pt x="89" y="780" on="0"/>
        <pt x="180" y="780" on="0"/>
        <pt x="208" y="773" on="1"/>
        <pt x="208" y="-142" on="1"/>
        <pt x="180" y="-149" on="0"/>
        <pt x="89" y="-149" on="0"/>
      </contour>
    </TTGlyph>
    <TTGlyph name="braceleft" xMin="38" yMin="-180" xMax="392" yMax="836">
      <contour>
        <pt x="45" y="377" on="1"/>
        <pt x="81" y="384" on="0"/>
        <pt x="129" y="447" on="0"/>
        <pt x="129" y="487" on="1"/>
        <pt x="129" y="647" on="1"/>
        <pt x="129" y="723" on="0"/>
        <pt x="217" y="813" on="0"/>
        <pt x="291" y="825" on="1"/>
        <pt x="357" y="836" on="1"/>
        <pt x="372" y="819" on="0"/>
        <pt x="392" y="753" on="0"/>
        <pt x="387" y="735" on="1"/>
        <pt x="326" y="714" on="1"/>
        <pt x="310" y="709" on="0"/>
        <pt x="286" y="673" on="0"/>
        <pt x="286" y="646" on="1"/>
        <pt x="286" y="489" on="1"/>
        <pt x="286" y="437" on="0"/>
        <pt x="237" y="349" on="0"/>
        <pt x="198" y="332" on="1"/>
        <pt x="198" y="324" on="1"/>
        <pt x="237" y="307" on="0"/>
        <pt x="286" y="219" on="0"/>
        <pt x="286" y="167" on="1"/>
        <pt x="286" y="9" on="1"/>
        <pt x="286" y="-18" on="0"/>
        <pt x="310" y="-54" on="0"/>
        <pt x="326" y="-59" on="1"/>
        <pt x="387" y="-80" on="1"/>
        <pt x="392" y="-98" on="0"/>
        <pt x="372" y="-163" on="0"/>
        <pt x="357" y="-180" on="1"/>
        <pt x="291" y="-170" on="1"/>
        <pt x="217" y="-158" on="0"/>
        <pt x="129" y="-67" on="0"/>
        <pt x="129" y="8" on="1"/>
        <pt x="129" y="169" on="1"/>
        <pt x="129" y="208" on="0"/>
        <pt x="81" y="271" on="0"/>
        <pt x="45" y="278" on="1"/>
        <pt x="38" y="297" on="0"/>
        <pt x="38" y="359" on="0"/>
      </contour>
    </TTGlyph>
    <TTGlyph name="braceright" xMin="7" yMin="-180" xMax="361" yMax="836">
      <contour>
        <pt x="354" y="377" on="1"/>
        <pt x="361" y="359" on="0"/>
        <pt x="361" y="297" on="0"/>
        <pt x="354" y="278" on="1"/>
        <pt x="317" y="271" on="0"/>
        <pt x="269" y="209" on="0"/>
        <pt x="269" y="169" on="1"/>
        <pt x="269" y="8" on="1"/>
        <pt x="269" y="-67" on="0"/>
        <pt x="181" y="-158" on="0"/>
        <pt x="108" y="-170" on="1"/>
        <pt x="41" y="-180" on="1"/>
        <pt x="26" y="-163" on="0"/>
        <pt x="7" y="-98" on="0"/>
        <pt x="12" y="-80" on="1"/>
        <pt x="72" y="-59" on="1"/>
        <pt x="89" y="-54" on="0"/>
        <pt x="113" y="-18" on="0"/>
        <pt x="113" y="9" on="1"/>
        <pt x="113" y="167" on="1"/>
        <pt x="113" y="219" on="0"/>
        <pt x="161" y="307" on="0"/>
        <pt x="201" y="324" on="1"/>
        <pt x="201" y="332" on="1"/>
        <pt x="161" y="349" on="0"/>
        <pt x="113" y="436" on="0"/>
        <pt x="113" y="489" on="1"/>
        <pt x="113" y="646" on="1"/>
        <pt x="113" y="673" on="0"/>
        <pt x="89" y="709" on="0"/>
        <pt x="72" y="714" on="1"/>
        <pt x="12" y="735" on="1"/>
        <pt x="7" y="753" on="0"/>
        <pt x="26" y="819" on="0"/>
        <pt x="41" y="836" on="1"/>
        <pt x="108" y="825" on="1"/>
        <pt x="181" y="813" on="0"/>
        <pt x="269" y="723" on="0"/>
        <pt x="269" y="647" on="1"/>
        <pt x="269" y="487" on="1"/>
        <pt x="269" y="447" on="0"/>
        <pt x="317" y="384" on="0"/>
      </contour>
    </TTGlyph>
    <TTGlyph name="bracketleft" xMin="98" yMin="-164" xMax="362" yMax="828">
      <contour>
        <pt x="356" y="-155" on="1"/>
        <pt x="107" y="-164" on="1"/>
        <pt x="98" y="-156" on="1"/>
        <pt x="98" y="820" on="1"/>
        <pt x="107" y="828" on="1"/>
        <pt x="356" y="819" on="1"/>
        <pt x="362" y="804" on="0"/>
        <pt x="362" y="742" on="0"/>
        <pt x="350" y="713" on="1"/>
        <pt x="250" y="710" on="1"/>
        <pt x="250" y="-46" on="1"/>
        <pt x="350" y="-49" on="1"/>
        <pt x="362" y="-75" on="0"/>
        <pt x="362" y="-140" on="0"/>
      </contour>
    </TTGlyph>
    <TTGlyph name="bracketright" xMin="33" yMin="-164" xMax="297" yMax="828">
      <contour>
        <pt x="288" y="-164" on="1"/>
        <pt x="38" y="-155" on="1"/>
        <pt x="33" y="-138" on="0"/>
        <pt x="33" y="-73" on="0"/>
        <pt x="44" y="-49" on="1"/>
        <pt x="145" y="-46" on="1"/>
        <pt x="145" y="710" on="1"/>
        <pt x="44" y="713" on="1"/>
        <pt x="33" y="739" on="0"/>
        <pt x="33" y="802" on="0"/>
        <pt x="38" y="819" on="1"/>
        <pt x="288" y="828" on="1"/>
        <pt x="297" y="820" on="1"/>
        <pt x="297" y="-156" on="1"/>
      </contour>
    </TTGlyph>
    <TTGlyph name="brokenbar" xMin="60" yMin="-149" xMax="204" yMax="780">
      <contour>
        <pt x="60" y="-142" on="1"/>
        <pt x="60" y="245" on="1"/>
        <pt x="87" y="252" on="0"/>
        <pt x="176" y="252" on="0"/>
        <pt x="204" y="245" on="1"/>
        <pt x="204" y="-142" on="1"/>
        <pt x="176" y="-149" on="0"/>
        <pt x="87" y="-149" on="0"/>
      </contour>
      <contour>
        <pt x="60" y="386" on="1"/>
        <pt x="60" y="773" on="1"/>
        <pt x="87" y="780" on="0"/>
        <pt x="176" y="780" on="0"/>
        <pt x="204" y="773" on="1"/>
        <pt x="204" y="386" on="1"/>
        <pt x="176" y="379" on="0"/>
        <pt x="87" y="379" on="0"/>
      </contour>
    </TTGlyph>
    <TTGlyph name="bullet" xMin="94" yMin="140" xMax="369" yMax="397">
      <contour>
        <pt x="113" y="171" on="1"/>
        <pt x="94" y="209" on="0"/>
        <pt x="94" y="268" on="1"/>
        <pt x="94" y="327" on="0"/>
        <pt x="113" y="368" on="1"/>
        <pt x="162" y="397" on="0"/>
        <pt x="231" y="397" on="1"/>
        <pt x="301" y="397" on="0"/>
        <pt x="351" y="368" on="1"/>
        <pt x="369" y="324" on="0"/>
        <pt x="369" y="268" on="1"/>
        <pt x="369" y="211" on="0"/>
        <pt x="351" y="171" on="1"/>
        <pt x="305" y="140" on="0"/>
        <pt x="231" y="140" on="1"/>
        <pt x="156" y="140" on="0"/>
      </contour>
    </TTGlyph>
    <TTGlyph name="c" xMin="30" yMin="-15" xMax="449" yMax="514">
      <contour>
        <pt x="309" y="278" on="1"/>
        <pt x="309" y="291" on="1"/>
        <pt x="309" y="347" on="0"/>
        <pt x="285" y="398" on="0"/>
        <pt x="252" y="398" on="1"/>
        <pt x="217" y="398" on="0"/>
        <pt x="189" y="329" on="0"/>
        <pt x="189" y="249" on="1"/>
        <pt x="189" y="209" on="0"/>
        <pt x="200" y="155" on="0"/>
        <pt x="221" y="122" on="0"/>
        <pt x="253" y="107" on="0"/>
        <pt x="275" y="107" on="1"/>
        <pt x="298" y="107" on="0"/>
        <pt x="354" y="127" on="0"/>
        <pt x="386" y="149" on="1"/>
        <pt x="395" y="144" on="0"/>
        <pt x="414" y="125" on="0"/>
        <pt x="430" y="101" on="0"/>
        <pt x="442" y="74" on="0"/>
        <pt x="445" y="62" on="1"/>
        <pt x="412" y="27" on="0"/>
        <pt x="306" y="-15" on="0"/>
        <pt x="251" y="-15" on="1"/>
        <pt x="144" y="-15" on="0"/>
        <pt x="30" y="125" on="0"/>
        <pt x="30" y="254" on="1"/>
        <pt x="30" y="320" on="0"/>
        <pt x="67" y="418" on="0"/>
        <pt x="128" y="482" on="0"/>
        <pt x="207" y="514" on="0"/>
        <pt x="250" y="514" on="1"/>
        <pt x="294" y="514" on="0"/>
        <pt x="367" y="490" on="0"/>
        <pt x="420" y="446" on="0"/>
        <pt x="449" y="385" on="0"/>
        <pt x="449" y="348" on="1"/>
        <pt x="449" y="306" on="0"/>
        <pt x="400" y="272" on="0"/>
        <pt x="364" y="272" on="1"/>
        <pt x="334" y="272" on="0"/>
      </contour>
    </TTGlyph>
    <TTGlyph name="c.smcp" xMin="31" yMin="-15" xMax="525" yMax="566">
      <contour>
        <pt x="377" y="301" on="1"/>
        <pt x="377" y="371" on="0"/>
        <pt x="340" y="443" on="0"/>
        <pt x="289" y="443" on="1"/>
        <pt x="238" y="443" on="0"/>
        <pt x="193" y="357" on="0"/>
        <pt x="193" y="272" on="1"/>
        <pt x="193" y="115" on="0"/>
        <pt x="305" y="115" on="1"/>
        <pt x="373" y="115" on="0"/>
        <pt x="446" y="170" on="1"/>
        <pt x="457" y="165" on="0"/>
        <pt x="480" y="141" on="0"/>
        <pt x="499" y="113" on="0"/>
        <pt x="514" y="83" on="0"/>
        <pt x="517" y="71" on="1"/>
        <pt x="417" y="-15" on="0"/>
        <pt x="281" y="-15" on="1"/>
        <pt x="212" y="-15" on="0"/>
        <pt x="117" y="33" on="0"/>
        <pt x="57" y="113" on="0"/>
        <pt x="31" y="217" on="0"/>
        <pt x="31" y="273" on="1"/>
        <pt x="31" y="346" on="0"/>
        <pt x="72" y="456" on="0"/>
        <pt x="144" y="530" on="0"/>
        <pt x="240" y="566" on="0"/>
        <pt x="295" y="566" on="1"/>
        <pt x="351" y="566" on="0"/>
        <pt x="437" y="535" on="0"/>
        <pt x="495" y="484" on="0"/>
        <pt x="525" y="418" on="0"/>
        <pt x="525" y="383" on="1"/>
        <pt x="525" y="297" on="0"/>
        <pt x="429" y="297" on="1"/>
        <pt x="421" y="297" on="0"/>
        <pt x="395" y="299" on="0"/>
      </contour>
    </TTGlyph>
    <TTGlyph name="cacute" xMin="30" yMin="-15" xMax="449" yMax="770">
      <component glyphName="c" x="0" y="0" flags="0x204"/>
      <component glyphName="acute" x="55" y="0" flags="0x4"/>
    </TTGlyph>
    <TTGlyph name="cacute.smcp" xMin="31" yMin="-15" xMax="525" yMax="822">
      <component glyphName="c.smcp" x="0" y="0" flags="0x204"/>
      <component glyphName="acute" x="99" y="52" flags="0x4"/>
    </TTGlyph>
    <TTGlyph name="caron" xMin="36" yMin="554" xMax="362" yMax="760">
      <contour>
        <pt x="103" y="751" on="1"/>
        <pt x="195" y="665" on="1"/>
        <pt x="293" y="760" on="1"/>
        <pt x="341" y="741" on="0"/>
        <pt x="362" y="700" on="1"/>
        <pt x="256" y="563" on="1"/>
        <pt x="228" y="554" on="0"/>
        <pt x="155" y="555" on="0"/>
        <pt x="128" y="563" on="1"/>
        <pt x="36" y="688" on="1"/>
        <pt x="45" y="710" on="0"/>
        <pt x="85" y="745" on="0"/>
      </contour>
    </TTGlyph>
    <TTGlyph name="caron.alt" xMin="190" yMin="552" xMax="331" yMax="808">
      <contour>
        <pt x="190" y="565" on="1"/>
        <pt x="202" y="799" on="1"/>
        <pt x="230" y="808" on="0"/>
        <pt x="309" y="797" on="0"/>
        <pt x="331" y="780" on="1"/>
        <pt x="278" y="558" on="1"/>
        <pt x="259" y="552" on="0"/>
        <pt x="206" y="557" on="0"/>
      </contour>
    </TTGlyph>
    <TTGlyph name="caron.cap" xMin="15" yMin="730" xMax="379" yMax="932">
      <contour>
        <pt x="76" y="919" on="1"/>
        <pt x="193" y="845" on="1"/>
        <pt x="314" y="932" on="1"/>
        <pt x="332" y="925" on="0"/>
        <pt x="374" y="888" on="0"/>
        <pt x="379" y="868" on="1"/>
        <pt x="259" y="745" on="1"/>
        <pt x="196" y="730" on="0"/>
        <pt x="128" y="745" on="1"/>
        <pt x="15" y="855" on="1"/>
        <pt x="21" y="877" on="0"/>
        <pt x="58" y="912" on="0"/>
      </contour>
    </TTGlyph>
    <TTGlyph name="ccaron" xMin="30" yMin="-15" xMax="449" yMax="760">
      <component glyphName="c" x="0" y="0" flags="0x204"/>
      <component glyphName="caron" x="54" y="0" flags="0x4"/>
    </TTGlyph>
    <TTGlyph name="ccaron.smcp" xMin="31" yMin="-15" xMax="525" yMax="812">
      <component glyphName="c.smcp" x="0" y="0" flags="0x204"/>
      <component glyphName="caron" x="98" y="52" flags="0x4"/>
    </TTGlyph>
    <TTGlyph name="ccedilla" xMin="30" yMin="-232" xMax="449" yMax="514">
      <contour>
        <pt x="186" y="-78" on="1"/>
        <pt x="192" y="-52" on="0"/>
        <pt x="207" y="-11" on="1"/>
        <pt x="120" y="2" on="0"/>
        <pt x="30" y="139" on="0"/>
        <pt x="30" y="248" on="1"/>
        <pt x="30" y="317" on="0"/>
        <pt x="67" y="417" on="0"/>
        <pt x="128" y="483" on="0"/>
        <pt x="207" y="514" on="0"/>
        <pt x="250" y="514" on="1"/>
        <pt x="294" y="514" on="0"/>
        <pt x="367" y="490" on="0"/>
        <pt x="420" y="446" on="0"/>
        <pt x="449" y="385" on="0"/>
        <pt x="449" y="348" on="1"/>
        <pt x="449" y="306" on="0"/>
        <pt x="400" y="272" on="0"/>
        <pt x="364" y="272" on="1"/>
        <pt x="334" y="272" on="0"/>
        <pt x="309" y="278" on="1"/>
        <pt x="309" y="291" on="1"/>
        <pt x="309" y="347" on="0"/>
        <pt x="285" y="398" on="0"/>
        <pt x="252" y="398" on="1"/>
        <pt x="217" y="398" on="0"/>
        <pt x="189" y="329" on="0"/>
        <pt x="189" y="249" on="1"/>
        <pt x="189" y="209" on="0"/>
        <pt x="200" y="155" on="0"/>
        <pt x="221" y="122" on="0"/>
        <pt x="253" y="107" on="0"/>
        <pt x="275" y="107" on="1"/>
        <pt x="298" y="107" on="0"/>
        <pt x="354" y="127" on="0"/>
        <pt x="386" y="149" on="1"/>
        <pt x="395" y="144" on="0"/>
        <pt x="414" y="125" on="0"/>
        <pt x="430" y="101" on="0"/>
        <pt x="442" y="74" on="0"/>
        <pt x="445" y="62" on="1"/>
        <pt x="388" y="0" on="0"/>
        <pt x="286" y="-13" on="1"/>
        <pt x="278" y="-32" on="1"/>
        <pt x="324" y="-34" on="0"/>
        <pt x="379" y="-84" on="0"/>
        <pt x="379" y="-127" on="1"/>
        <pt x="379" y="-148" on="0"/>
        <pt x="358" y="-186" on="0"/>
        <pt x="321" y="-215" on="0"/>
        <pt x="271" y="-232" on="0"/>
        <pt x="243" y="-232" on="1"/>
        <pt x="186" y="-232" on="0"/>
        <pt x="153" y="-208" on="1"/>
        <pt x="155" y="-167" on="0"/>
        <pt x="179" y="-141" on="1"/>
        <pt x="198" y="-154" on="0"/>
        <pt x="225" y="-154" on="1"/>
        <pt x="261" y="-154" on="0"/>
        <pt x="261" y="-126" on="1"/>
        <pt x="261" y="-110" on="0"/>
        <pt x="241" y="-97" on="0"/>
        <pt x="229" y="-97" on="1"/>
        <pt x="218" y="-97" on="0"/>
        <pt x="209" y="-100" on="1"/>
        <pt x="193" y="-92" on="0"/>
      </contour>
    </TTGlyph>
    <TTGlyph name="ccedilla.smcp" xMin="31" yMin="-232" xMax="525" yMax="566">
      <contour>
        <pt x="229" y="-78" on="1"/>
        <pt x="233" y="-63" on="0"/>
        <pt x="242" y="-30" on="0"/>
        <pt x="249" y="-13" on="1"/>
        <pt x="190" y="-8" on="0"/>
        <pt x="107" y="43" on="0"/>
        <pt x="55" y="121" on="0"/>
        <pt x="31" y="220" on="0"/>
        <pt x="31" y="273" on="1"/>
        <pt x="31" y="346" on="0"/>
        <pt x="72" y="456" on="0"/>
        <pt x="144" y="530" on="0"/>
        <pt x="240" y="566" on="0"/>
        <pt x="295" y="566" on="1"/>
        <pt x="351" y="566" on="0"/>
        <pt x="437" y="535" on="0"/>
        <pt x="495" y="484" on="0"/>
        <pt x="525" y="418" on="0"/>
        <pt x="525" y="383" on="1"/>
        <pt x="525" y="297" on="0"/>
        <pt x="429" y="297" on="1"/>
        <pt x="421" y="297" on="0"/>
        <pt x="395" y="299" on="0"/>
        <pt x="377" y="301" on="1"/>
        <pt x="377" y="371" on="0"/>
        <pt x="340" y="443" on="0"/>
        <pt x="289" y="443" on="1"/>
        <pt x="238" y="443" on="0"/>
        <pt x="193" y="357" on="0"/>
        <pt x="193" y="272" on="1"/>
        <pt x="193" y="115" on="0"/>
        <pt x="305" y="115" on="1"/>
        <pt x="373" y="115" on="0"/>
        <pt x="446" y="170" on="1"/>
        <pt x="457" y="165" on="0"/>
        <pt x="480" y="141" on="0"/>
        <pt x="499" y="113" on="0"/>
        <pt x="514" y="83" on="0"/>
        <pt x="517" y="71" on="1"/>
        <pt x="437" y="2" on="0"/>
        <pt x="330" y="-12" on="1"/>
        <pt x="323" y="-25" on="0"/>
        <pt x="321" y="-32" on="1"/>
        <pt x="367" y="-34" on="0"/>
        <pt x="422" y="-84" on="0"/>
        <pt x="422" y="-127" on="1"/>
        <pt x="422" y="-148" on="0"/>
        <pt x="401" y="-187" on="0"/>
        <pt x="364" y="-215" on="0"/>
        <pt x="314" y="-232" on="0"/>
        <pt x="286" y="-232" on="1"/>
        <pt x="229" y="-232" on="0"/>
        <pt x="196" y="-208" on="1"/>
        <pt x="198" y="-167" on="0"/>
        <pt x="222" y="-141" on="1"/>
        <pt x="241" y="-154" on="0"/>
        <pt x="268" y="-154" on="1"/>
        <pt x="304" y="-154" on="0"/>
        <pt x="304" y="-126" on="1"/>
        <pt x="304" y="-110" on="0"/>
        <pt x="284" y="-97" on="0"/>
        <pt x="272" y="-97" on="1"/>
        <pt x="261" y="-97" on="0"/>
        <pt x="252" y="-100" on="1"/>
        <pt x="236" y="-92" on="0"/>
      </contour>
    </TTGlyph>
    <TTGlyph name="cedilla" xMin="102" yMin="-232" xMax="327" yMax="0">
      <contour>
        <pt x="135" y="-78" on="1"/>
        <pt x="142" y="-43" on="0"/>
        <pt x="161" y="0" on="1"/>
        <pt x="241" y="0" on="1"/>
        <pt x="234" y="-12" on="0"/>
        <pt x="226" y="-32" on="1"/>
        <pt x="272" y="-34" on="0"/>
        <pt x="327" y="-84" on="0"/>
        <pt x="327" y="-127" on="1"/>
        <pt x="327" y="-149" on="0"/>
        <pt x="306" y="-187" on="0"/>
        <pt x="269" y="-216" on="0"/>
        <pt x="220" y="-232" on="0"/>
        <pt x="192" y="-232" on="1"/>
        <pt x="135" y="-232" on="0"/>
        <pt x="102" y="-208" on="1"/>
        <pt x="103" y="-168" on="0"/>
        <pt x="127" y="-141" on="1"/>
        <pt x="146" y="-154" on="0"/>
        <pt x="178" y="-154" on="1"/>
        <pt x="210" y="-154" on="0"/>
        <pt x="210" y="-126" on="1"/>
        <pt x="210" y="-111" on="0"/>
        <pt x="190" y="-95" on="0"/>
        <pt x="178" y="-96" on="1"/>
        <pt x="166" y="-97" on="0"/>
        <pt x="157" y="-100" on="1"/>
        <pt x="139" y="-92" on="0"/>
      </contour>
    </TTGlyph>
    <TTGlyph name="cent" xMin="25" yMin="-37" xMax="439" yMax="687">
      <contour>
        <pt x="185" y="-33" on="1"/>
        <pt x="185" y="66" on="1"/>
        <pt x="142" y="76" on="0"/>
        <pt x="81" y="123" on="0"/>
        <pt x="43" y="192" on="0"/>
        <pt x="25" y="280" on="0"/>
        <pt x="25" y="331" on="1"/>
        <pt x="25" y="436" on="0"/>
        <pt x="116" y="563" on="0"/>
        <pt x="188" y="582" on="1"/>
        <pt x="188" y="682" on="1"/>
        <pt x="206" y="687" on="0"/>
        <pt x="242" y="687" on="1"/>
        <pt x="278" y="687" on="0"/>
        <pt x="300" y="682" on="1"/>
        <pt x="300" y="585" on="1"/>
        <pt x="363" y="572" on="0"/>
        <pt x="439" y="489" on="0"/>
        <pt x="439" y="432" on="1"/>
        <pt x="439" y="347" on="0"/>
        <pt x="356" y="347" on="1"/>
        <pt x="322" y="347" on="0"/>
        <pt x="300" y="354" on="1"/>
        <pt x="300" y="474" on="0"/>
        <pt x="242" y="474" on="1"/>
        <pt x="208" y="474" on="0"/>
        <pt x="184" y="402" on="0"/>
        <pt x="184" y="322" on="1"/>
        <pt x="184" y="251" on="0"/>
        <pt x="227" y="183" on="0"/>
        <pt x="267" y="183" on="1"/>
        <pt x="312" y="183" on="0"/>
        <pt x="378" y="225" on="1"/>
        <pt x="396" y="212" on="0"/>
        <pt x="431" y="162" on="0"/>
        <pt x="436" y="140" on="1"/>
        <pt x="386" y="83" on="0"/>
        <pt x="297" y="65" on="1"/>
        <pt x="297" y="-33" on="1"/>
        <pt x="282" y="-37" on="0"/>
        <pt x="240" y="-37" on="1"/>
        <pt x="197" y="-37" on="0"/>
      </contour>
    </TTGlyph>
    <TTGlyph name="cent.smcp" xMin="21" yMin="-36" xMax="398" yMax="590">
      <contour>
        <pt x="163" y="-31" on="1"/>
        <pt x="163" y="48" on="1"/>
        <pt x="86" y="67" on="0"/>
        <pt x="21" y="192" on="0"/>
        <pt x="21" y="282" on="1"/>
        <pt x="21" y="373" on="0"/>
        <pt x="102" y="487" on="0"/>
        <pt x="166" y="504" on="1"/>
        <pt x="166" y="586" on="1"/>
        <pt x="183" y="590" on="0"/>
        <pt x="218" y="590" on="1"/>
        <pt x="254" y="590" on="0"/>
        <pt x="273" y="586" on="1"/>
        <pt x="273" y="505" on="1"/>
        <pt x="330" y="493" on="0"/>
        <pt x="398" y="418" on="0"/>
        <pt x="398" y="358" on="1"/>
        <pt x="398" y="278" on="0"/>
        <pt x="317" y="278" on="1"/>
        <pt x="285" y="278" on="0"/>
        <pt x="264" y="285" on="1"/>
        <pt x="264" y="345" on="0"/>
        <pt x="245" y="395" on="0"/>
        <pt x="218" y="395" on="1"/>
        <pt x="191" y="395" on="0"/>
        <pt x="168" y="338" on="0"/>
        <pt x="168" y="269" on="1"/>
        <pt x="168" y="158" on="0"/>
        <pt x="245" y="158" on="1"/>
        <pt x="293" y="158" on="0"/>
        <pt x="343" y="187" on="1"/>
        <pt x="360" y="175" on="0"/>
        <pt x="391" y="128" on="0"/>
        <pt x="396" y="105" on="1"/>
        <pt x="350" y="60" on="0"/>
        <pt x="271" y="45" on="1"/>
        <pt x="271" y="-31" on="1"/>
        <pt x="253" y="-36" on="0"/>
        <pt x="217" y="-36" on="1"/>
        <pt x="181" y="-36" on="0"/>
      </contour>
    </TTGlyph>
    <TTGlyph name="circumflex" xMin="38" yMin="544" xMax="362" yMax="758">
      <contour>
        <pt x="295" y="551" on="1"/>
        <pt x="204" y="638" on="1"/>
        <pt x="107" y="544" on="1"/>
        <pt x="61" y="562" on="0"/>
        <pt x="38" y="604" on="1"/>
        <pt x="142" y="740" on="1"/>
        <pt x="200" y="758" on="0"/>
        <pt x="271" y="740" on="1"/>
        <pt x="362" y="615" on="1"/>
        <pt x="354" y="593" on="0"/>
        <pt x="313" y="558" on="0"/>
      </contour>
    </TTGlyph>
    <TTGlyph name="circumflex.cap" xMin="14" yMin="723" xMax="376" yMax="923">
      <contour>
        <pt x="314" y="735" on="1"/>
        <pt x="197" y="809" on="1"/>
        <pt x="77" y="723" on="1"/>
        <pt x="59" y="730" on="0"/>
        <pt x="19" y="768" on="0"/>
        <pt x="14" y="788" on="1"/>
        <pt x="132" y="909" on="1"/>
        <pt x="194" y="923" on="0"/>
        <pt x="262" y="910" on="1"/>
        <pt x="376" y="800" on="1"/>
        <pt x="369" y="778" on="0"/>
        <pt x="332" y="742" on="0"/>
      </contour>
    </TTGlyph>
    <TTGlyph name="colon" xMin="57" yMin="-11" xMax="238" yMax="456">
      <contour>
        <pt x="69" y="129" on="1"/>
        <pt x="86" y="138" on="0"/>
        <pt x="126" y="147" on="0"/>
        <pt x="147" y="147" on="1"/>
        <pt x="193" y="147" on="0"/>
        <pt x="226" y="129" on="1"/>
        <pt x="238" y="103" on="0"/>
        <pt x="238" y="68" on="1"/>
        <pt x="238" y="51" on="0"/>
        <pt x="232" y="20" on="0"/>
        <pt x="226" y="8" on="1"/>
        <pt x="198" y="-11" on="0"/>
        <pt x="147" y="-11" on="1"/>
        <pt x="97" y="-11" on="0"/>
        <pt x="69" y="8" on="1"/>
        <pt x="63" y="20" on="0"/>
        <pt x="57" y="51" on="0"/>
        <pt x="57" y="68" on="1"/>
        <pt x="57" y="103" on="0"/>
      </contour>
      <contour>
        <pt x="69" y="438" on="1"/>
        <pt x="86" y="447" on="0"/>
        <pt x="126" y="456" on="0"/>
        <pt x="147" y="456" on="1"/>
        <pt x="193" y="456" on="0"/>
        <pt x="226" y="438" on="1"/>
        <pt x="238" y="412" on="0"/>
        <pt x="238" y="377" on="1"/>
        <pt x="238" y="360" on="0"/>
        <pt x="232" y="329" on="0"/>
        <pt x="226" y="317" on="1"/>
        <pt x="198" y="298" on="0"/>
        <pt x="147" y="298" on="1"/>
        <pt x="97" y="298" on="0"/>
        <pt x="69" y="317" on="1"/>
        <pt x="63" y="329" on="0"/>
        <pt x="57" y="360" on="0"/>
        <pt x="57" y="377" on="1"/>
        <pt x="57" y="412" on="0"/>
      </contour>
    </TTGlyph>
    <TTGlyph name="comma" xMin="21" yMin="-180" xMax="238" yMax="146">
      <contour>
        <pt x="225" y="128" on="1"/>
        <pt x="238" y="95" on="0"/>
        <pt x="238" y="48" on="1"/>
        <pt x="238" y="12" on="0"/>
        <pt x="214" y="-59" on="0"/>
        <pt x="168" y="-120" on="0"/>
        <pt x="101" y="-167" on="0"/>
        <pt x="59" y="-180" on="1"/>
        <pt x="41" y="-172" on="0"/>
        <pt x="21" y="-136" on="0"/>
        <pt x="22" y="-116" on="1"/>
        <pt x="22" y="-108" on="1"/>
        <pt x="58" y="-96" on="0"/>
        <pt x="110" y="-42" on="0"/>
        <pt x="115" y="-8" on="1"/>
        <pt x="91" y="-5" on="0"/>
        <pt x="72" y="8" on="1"/>
        <pt x="64" y="26" on="0"/>
        <pt x="60" y="50" on="0"/>
        <pt x="60" y="67" on="1"/>
        <pt x="60" y="100" on="0"/>
        <pt x="72" y="128" on="1"/>
        <pt x="97" y="140" on="0"/>
        <pt x="129" y="146" on="0"/>
        <pt x="149" y="146" on="1"/>
        <pt x="193" y="146" on="0"/>
      </contour>
    </TTGlyph>
    <TTGlyph name="commaaccent" xMin="83" yMin="-292" xMax="283" yMax="-48">
      <contour>
        <pt x="272" y="-59" on="1"/>
        <pt x="283" y="-85" on="0"/>
        <pt x="283" y="-120" on="1"/>
        <pt x="283" y="-180" on="0"/>
        <pt x="202" y="-271" on="0"/>
        <pt x="130" y="-292" on="1"/>
        <pt x="91" y="-278" on="0"/>
        <pt x="83" y="-229" on="1"/>
        <pt x="149" y="-190" on="0"/>
        <pt x="149" y="-128" on="1"/>
        <pt x="149" y="-100" on="0"/>
        <pt x="136" y="-75" on="1"/>
        <pt x="162" y="-57" on="0"/>
        <pt x="239" y="-48" on="0"/>
      </contour>
    </TTGlyph>
    <TTGlyph name="commaaccent.cap" xMin="83" yMin="-292" xMax="283" yMax="-48">
      <contour>
        <pt x="272" y="-59" on="1"/>
        <pt x="283" y="-85" on="0"/>
        <pt x="283" y="-120" on="1"/>
        <pt x="283" y="-180" on="0"/>
        <pt x="202" y="-271" on="0"/>
        <pt x="130" y="-292" on="1"/>
        <pt x="91" y="-278" on="0"/>
        <pt x="83" y="-229" on="1"/>
        <pt x="149" y="-190" on="0"/>
        <pt x="149" y="-128" on="1"/>
        <pt x="149" y="-100" on="0"/>
        <pt x="136" y="-75" on="1"/>
        <pt x="162" y="-57" on="0"/>
        <pt x="239" y="-48" on="0"/>
      </contour>
    </TTGlyph>
    <TTGlyph name="copyright" xMin="31" yMin="-22" xMax="758" yMax="705">
      <contour>
        <pt x="135" y="82" on="1"/>
        <pt x="31" y="188" on="0"/>
        <pt x="31" y="341" on="1"/>
        <pt x="31" y="418" on="0"/>
        <pt x="87" y="551" on="0"/>
        <pt x="185" y="649" on="0"/>
        <pt x="317" y="705" on="0"/>
        <pt x="394" y="705" on="1"/>
        <pt x="470" y="705" on="0"/>
        <pt x="603" y="649" on="0"/>
        <pt x="702" y="550" on="0"/>
        <pt x="758" y="417" on="0"/>
        <pt x="758" y="341" on="1"/>
        <pt x="758" y="264" on="0"/>
        <pt x="702" y="132" on="0"/>
        <pt x="604" y="34" on="0"/>
        <pt x="471" y="-22" on="0"/>
        <pt x="394" y="-22" on="1"/>
        <pt x="241" y="-22" on="0"/>
      </contour>
      <contour>
        <pt x="217" y="526" on="1"/>
        <pt x="148" y="451" on="0"/>
        <pt x="148" y="341" on="1"/>
        <pt x="148" y="286" on="0"/>
        <pt x="185" y="191" on="0"/>
        <pt x="251" y="121" on="0"/>
        <pt x="341" y="81" on="0"/>
        <pt x="394" y="81" on="1"/>
        <pt x="447" y="81" on="0"/>
        <pt x="538" y="121" on="0"/>
        <pt x="604" y="192" on="0"/>
        <pt x="641" y="287" on="0"/>
        <pt x="641" y="341" on="1"/>
        <pt x="641" y="396" on="0"/>
        <pt x="603" y="491" on="0"/>
        <pt x="537" y="561" on="0"/>
        <pt x="447" y="602" on="0"/>
        <pt x="394" y="602" on="1"/>
        <pt x="287" y="602" on="0"/>
      </contour>
      <contour>
        <pt x="438" y="364" on="1"/>
        <pt x="438" y="450" on="0"/>
        <pt x="392" y="450" on="1"/>
        <pt x="342" y="450" on="0"/>
        <pt x="342" y="345" on="1"/>
        <pt x="342" y="241" on="0"/>
        <pt x="416" y="241" on="1"/>
        <pt x="446" y="241" on="0"/>
        <pt x="498" y="272" on="1"/>
        <pt x="512" y="262" on="0"/>
        <pt x="537" y="222" on="0"/>
        <pt x="539" y="204" on="1"/>
        <pt x="528" y="192" on="0"/>
        <pt x="494" y="172" on="0"/>
        <pt x="455" y="157" on="0"/>
        <pt x="414" y="148" on="0"/>
        <pt x="396" y="148" on="1"/>
        <pt x="346" y="148" on="0"/>
        <pt x="279" y="182" on="0"/>
        <pt x="239" y="236" on="0"/>
        <pt x="223" y="306" on="0"/>
        <pt x="223" y="342" on="1"/>
        <pt x="223" y="392" on="0"/>
        <pt x="252" y="465" on="0"/>
        <pt x="299" y="513" on="0"/>
        <pt x="360" y="536" on="0"/>
        <pt x="393" y="536" on="1"/>
        <pt x="462" y="536" on="0"/>
        <pt x="545" y="470" on="0"/>
        <pt x="545" y="419" on="1"/>
        <pt x="545" y="358" on="0"/>
        <pt x="481" y="358" on="1"/>
        <pt x="453" y="358" on="0"/>
      </contour>
    </TTGlyph>
    <TTGlyph name="currency" xMin="22" yMin="60" xMax="568" yMax="607">
      <contour>
        <pt x="91" y="218" on="1"/>
        <pt x="63" y="267" on="0"/>
        <pt x="63" y="333" on="1"/>
        <pt x="63" y="399" on="0"/>
        <pt x="91" y="448" on="1"/>
        <pt x="22" y="525" on="1"/>
        <pt x="48" y="572" on="0"/>
        <pt x="101" y="604" on="1"/>
        <pt x="182" y="531" on="1"/>
        <pt x="230" y="555" on="0"/>
        <pt x="291" y="555" on="1"/>
        <pt x="352" y="555" on="0"/>
        <pt x="406" y="531" on="1"/>
        <pt x="490" y="607" on="1"/>
        <pt x="539" y="575" on="0"/>
        <pt x="568" y="528" on="1"/>
        <pt x="497" y="447" on="1"/>
        <pt x="526" y="397" on="0"/>
        <pt x="526" y="333" on="1"/>
        <pt x="526" y="268" on="0"/>
        <pt x="496" y="216" on="1"/>
        <pt x="566" y="139" on="1"/>
        <pt x="535" y="88" on="0"/>
        <pt x="487" y="60" on="1"/>
        <pt x="403" y="134" on="1"/>
        <pt x="358" y="112" on="0"/>
        <pt x="293" y="112" on="1"/>
        <pt x="229" y="112" on="0"/>
        <pt x="184" y="134" on="1"/>
        <pt x="101" y="61" on="1"/>
        <pt x="59" y="85" on="0"/>
        <pt x="22" y="140" on="1"/>
      </contour>
      <contour>
        <pt x="216" y="333" on="1"/>
        <pt x="216" y="285" on="0"/>
        <pt x="252" y="227" on="0"/>
        <pt x="294" y="227" on="1"/>
        <pt x="373" y="227" on="0"/>
        <pt x="373" y="333" on="1"/>
        <pt x="373" y="440" on="0"/>
        <pt x="294" y="440" on="1"/>
        <pt x="216" y="440" on="0"/>
      </contour>
    </TTGlyph>
    <TTGlyph name="currency.smcp" xMin="7" yMin="29" xMax="475" yMax="501">
      <contour>
        <pt x="64" y="174" on="1"/>
        <pt x="53" y="194" on="0"/>
        <pt x="43" y="241" on="0"/>
        <pt x="43" y="266" on="1"/>
        <pt x="43" y="290" on="0"/>
        <pt x="52" y="337" on="0"/>
        <pt x="63" y="357" on="1"/>
        <pt x="7" y="421" on="1"/>
        <pt x="29" y="464" on="0"/>
        <pt x="86" y="499" on="1"/>
        <pt x="155" y="438" on="1"/>
        <pt x="173" y="446" on="0"/>
        <pt x="217" y="453" on="0"/>
        <pt x="240" y="453" on="1"/>
        <pt x="287" y="453" on="0"/>
        <pt x="325" y="438" on="1"/>
        <pt x="397" y="501" on="1"/>
        <pt x="440" y="474" on="0"/>
        <pt x="475" y="424" on="1"/>
        <pt x="417" y="355" on="1"/>
        <pt x="437" y="317" on="0"/>
        <pt x="437" y="267" on="1"/>
        <pt x="437" y="242" on="0"/>
        <pt x="426" y="193" on="0"/>
        <pt x="415" y="172" on="1"/>
        <pt x="472" y="108" on="1"/>
        <pt x="458" y="85" on="0"/>
        <pt x="419" y="45" on="0"/>
        <pt x="393" y="29" on="1"/>
        <pt x="321" y="92" on="1"/>
        <pt x="303" y="85" on="0"/>
        <pt x="261" y="79" on="0"/>
        <pt x="239" y="79" on="1"/>
        <pt x="217" y="79" on="0"/>
        <pt x="174" y="85" on="0"/>
        <pt x="157" y="93" on="1"/>
        <pt x="86" y="31" on="1"/>
        <pt x="47" y="55" on="0"/>
        <pt x="7" y="109" on="1"/>
      </contour>
      <contour>
        <pt x="240" y="348" on="1"/>
        <pt x="185" y="348" on="0"/>
        <pt x="185" y="266" on="1"/>
        <pt x="185" y="184" on="0"/>
        <pt x="240" y="184" on="1"/>
        <pt x="297" y="184" on="0"/>
        <pt x="297" y="266" on="1"/>
        <pt x="297" y="348" on="0"/>
      </contour>
    </TTGlyph>
    <TTGlyph name="d" xMin="32" yMin="-15" xMax="505" yMax="736">
      <contour>
        <pt x="232" y="509" on="1"/>
        <pt x="280" y="509" on="0"/>
        <pt x="325" y="487" on="1"/>
        <pt x="325" y="729" on="1"/>
        <pt x="331" y="736" on="1"/>
        <pt x="392" y="736" on="1"/>
        <pt x="440" y="736" on="0"/>
        <pt x="477" y="694" on="0"/>
        <pt x="477" y="642" on="1"/>
        <pt x="477" y="144" on="1"/>
        <pt x="477" y="91" on="0"/>
        <pt x="505" y="72" on="1"/>
        <pt x="500" y="51" on="0"/>
        <pt x="472" y="3" on="0"/>
        <pt x="457" y="-8" on="1"/>
        <pt x="384" y="-6" on="0"/>
        <pt x="350" y="48" on="1"/>
        <pt x="290" y="-15" on="0"/>
        <pt x="206" y="-15" on="1"/>
        <pt x="122" y="-15" on="0"/>
        <pt x="32" y="125" on="0"/>
        <pt x="32" y="247" on="1"/>
        <pt x="32" y="307" on="0"/>
        <pt x="63" y="404" on="0"/>
        <pt x="117" y="472" on="0"/>
        <pt x="190" y="509" on="0"/>
      </contour>
      <contour>
        <pt x="252" y="111" on="1"/>
        <pt x="293" y="111" on="0"/>
        <pt x="325" y="150" on="1"/>
        <pt x="325" y="369" on="1"/>
        <pt x="284" y="393" on="0"/>
        <pt x="260" y="393" on="1"/>
        <pt x="192" y="393" on="0"/>
        <pt x="192" y="243" on="1"/>
        <pt x="192" y="111" on="0"/>
      </contour>
    </TTGlyph>
    <TTGlyph name="d.smcp" xMin="72" yMin="-4" xMax="574" yMax="556">
      <contour>
        <pt x="78" y="-1" on="1"/>
        <pt x="72" y="5" on="1"/>
        <pt x="72" y="546" on="1"/>
        <pt x="78" y="552" on="1"/>
        <pt x="156" y="554" on="0"/>
        <pt x="262" y="556" on="0"/>
        <pt x="290" y="556" on="1"/>
        <pt x="377" y="556" on="0"/>
        <pt x="487" y="511" on="0"/>
        <pt x="550" y="435" on="0"/>
        <pt x="574" y="332" on="0"/>
        <pt x="574" y="275" on="1"/>
        <pt x="574" y="217" on="0"/>
        <pt x="551" y="116" on="0"/>
        <pt x="491" y="40" on="0"/>
        <pt x="386" y="-4" on="0"/>
        <pt x="304" y="-4" on="1"/>
        <pt x="195" y="-4" on="0"/>
      </contour>
      <contour>
        <pt x="228" y="116" on="1"/>
        <pt x="302" y="117" on="1"/>
        <pt x="414" y="118" on="0"/>
        <pt x="414" y="275" on="1"/>
        <pt x="414" y="433" on="0"/>
        <pt x="302" y="434" on="1"/>
        <pt x="228" y="435" on="1"/>
      </contour>
    </TTGlyph>
    <TTGlyph name="dcaron" xMin="32" yMin="-15" xMax="676" yMax="808">
      <component glyphName="d" x="0" y="0" flags="0x4"/>
      <component glyphName="caron.alt" x="345" y="0" flags="0x4"/>
    </TTGlyph>
    <TTGlyph name="dcaron.smcp" xMin="72" yMin="-4" xMax="574" yMax="812">
      <component glyphName="d.smcp" x="0" y="0" flags="0x204"/>
      <component glyphName="caron" x="93" y="52" flags="0x4"/>
    </TTGlyph>
    <TTGlyph name="degree" xMin="14" yMin="353" xMax="336" yMax="675">
      <contour>
        <pt x="175" y="353" on="1"/>
        <pt x="140" y="353" on="0"/>
        <pt x="81" y="377" on="0"/>
        <pt x="38" y="419" on="0"/>
        <pt x="14" y="478" on="0"/>
        <pt x="14" y="513" on="1"/>
        <pt x="14" y="549" on="0"/>
        <pt x="38" y="608" on="0"/>
        <pt x="82" y="651" on="0"/>
        <pt x="140" y="675" on="0"/>
        <pt x="175" y="675" on="1"/>
        <pt x="210" y="675" on="0"/>
        <pt x="269" y="651" on="0"/>
        <pt x="312" y="608" on="0"/>
        <pt x="336" y="548" on="0"/>
        <pt x="336" y="513" on="1"/>
        <pt x="336" y="478" on="0"/>
        <pt x="312" y="419" on="0"/>
        <pt x="269" y="377" on="0"/>
        <pt x="210" y="353" on="0"/>
      </contour>
      <contour>
        <pt x="175" y="578" on="1"/>
        <pt x="151" y="578" on="0"/>
        <pt x="122" y="543" on="0"/>
        <pt x="122" y="513" on="1"/>
        <pt x="122" y="484" on="0"/>
        <pt x="151" y="449" on="0"/>
        <pt x="175" y="449" on="1"/>
        <pt x="199" y="449" on="0"/>
        <pt x="227" y="484" on="0"/>
        <pt x="227" y="513" on="1"/>
        <pt x="227" y="543" on="0"/>
        <pt x="199" y="578" on="0"/>
      </contour>
    </TTGlyph>
    <TTGlyph name="dieresis" xMin="25" yMin="557" xMax="373" yMax="689">
      <contour>
        <pt x="235" y="574" on="1"/>
        <pt x="226" y="595" on="0"/>
        <pt x="226" y="624" on="1"/>
        <pt x="226" y="652" on="0"/>
        <pt x="235" y="673" on="1"/>
        <pt x="264" y="689" on="0"/>
        <pt x="299" y="689" on="1"/>
        <pt x="333" y="689" on="0"/>
        <pt x="365" y="673" on="1"/>
        <pt x="373" y="651" on="0"/>
        <pt x="373" y="623" on="1"/>
        <pt x="373" y="596" on="0"/>
        <pt x="365" y="574" on="1"/>
        <pt x="351" y="565" on="0"/>
        <pt x="317" y="557" on="0"/>
        <pt x="299" y="557" on="1"/>
        <pt x="282" y="557" on="0"/>
        <pt x="248" y="565" on="0"/>
      </contour>
      <contour>
        <pt x="33" y="574" on="1"/>
        <pt x="28" y="585" on="0"/>
        <pt x="25" y="611" on="0"/>
        <pt x="25" y="624" on="1"/>
        <pt x="25" y="638" on="0"/>
        <pt x="28" y="662" on="0"/>
        <pt x="33" y="673" on="1"/>
        <pt x="63" y="689" on="0"/>
        <pt x="99" y="689" on="1"/>
        <pt x="134" y="689" on="0"/>
        <pt x="163" y="673" on="1"/>
        <pt x="172" y="652" on="0"/>
        <pt x="172" y="623" on="1"/>
        <pt x="172" y="595" on="0"/>
        <pt x="163" y="574" on="1"/>
        <pt x="149" y="565" on="0"/>
        <pt x="116" y="557" on="0"/>
        <pt x="99" y="557" on="1"/>
        <pt x="81" y="557" on="0"/>
        <pt x="47" y="565" on="0"/>
      </contour>
    </TTGlyph>
    <TTGlyph name="dieresis.cap" xMin="7" yMin="735" xMax="390" yMax="870">
      <contour>
        <pt x="253" y="853" on="1"/>
        <pt x="287" y="870" on="0"/>
        <pt x="318" y="870" on="1"/>
        <pt x="330" y="870" on="0"/>
        <pt x="355" y="865" on="0"/>
        <pt x="377" y="853" on="1"/>
        <pt x="390" y="832" on="0"/>
        <pt x="389" y="803" on="1"/>
        <pt x="389" y="779" on="0"/>
        <pt x="379" y="755" on="1"/>
        <pt x="362" y="742" on="0"/>
        <pt x="330" y="735" on="0"/>
        <pt x="318" y="735" on="1"/>
        <pt x="306" y="735" on="0"/>
        <pt x="279" y="740" on="0"/>
        <pt x="253" y="752" on="1"/>
        <pt x="239" y="769" on="0"/>
        <pt x="239" y="803" on="1"/>
        <pt x="239" y="837" on="0"/>
      </contour>
      <contour>
        <pt x="21" y="853" on="1"/>
        <pt x="47" y="870" on="0"/>
        <pt x="79" y="870" on="1"/>
        <pt x="90" y="870" on="0"/>
        <pt x="120" y="865" on="0"/>
        <pt x="147" y="851" on="1"/>
        <pt x="158" y="828" on="0"/>
        <pt x="157" y="803" on="1"/>
        <pt x="157" y="765" on="0"/>
        <pt x="145" y="752" on="1"/>
        <pt x="112" y="735" on="0"/>
        <pt x="79" y="735" on="1"/>
        <pt x="66" y="735" on="0"/>
        <pt x="41" y="741" on="0"/>
        <pt x="21" y="752" on="1"/>
        <pt x="7" y="776" on="0"/>
        <pt x="9" y="803" on="1"/>
        <pt x="9" y="838" on="0"/>
      </contour>
    </TTGlyph>
    <TTGlyph name="divide" xMin="46" yMin="53" xMax="484" yMax="545">
      <contour>
        <pt x="198" y="531" on="1"/>
        <pt x="226" y="545" on="0"/>
        <pt x="266" y="545" on="1"/>
        <pt x="297" y="545" on="0"/>
        <pt x="325" y="534" on="0"/>
        <pt x="331" y="531" on="1"/>
        <pt x="344" y="513" on="0"/>
        <pt x="343" y="479" on="1"/>
        <pt x="343" y="465" on="0"/>
        <pt x="337" y="436" on="0"/>
        <pt x="331" y="425" on="1"/>
        <pt x="305" y="411" on="0"/>
        <pt x="264" y="411" on="1"/>
        <pt x="224" y="411" on="0"/>
        <pt x="198" y="425" on="1"/>
        <pt x="187" y="447" on="0"/>
        <pt x="187" y="478" on="1"/>
        <pt x="187" y="492" on="0"/>
        <pt x="192" y="519" on="0"/>
      </contour>
      <contour>
        <pt x="198" y="68" on="1"/>
        <pt x="192" y="79" on="0"/>
        <pt x="187" y="105" on="0"/>
        <pt x="187" y="119" on="1"/>
        <pt x="187" y="133" on="0"/>
        <pt x="192" y="161" on="0"/>
        <pt x="198" y="173" on="1"/>
        <pt x="224" y="187" on="0"/>
        <pt x="266" y="187" on="1"/>
        <pt x="291" y="187" on="0"/>
        <pt x="321" y="179" on="0"/>
        <pt x="331" y="173" on="1"/>
        <pt x="337" y="162" on="0"/>
        <pt x="343" y="136" on="0"/>
        <pt x="343" y="119" on="1"/>
        <pt x="343" y="84" on="0"/>
        <pt x="330" y="68" on="1"/>
        <pt x="310" y="53" on="0"/>
        <pt x="265" y="53" on="1"/>
        <pt x="222" y="53" on="0"/>
      </contour>
      <contour>
        <pt x="477" y="237" on="1"/>
        <pt x="53" y="237" on="1"/>
        <pt x="46" y="261" on="0"/>
        <pt x="46" y="300" on="1"/>
        <pt x="46" y="340" on="0"/>
        <pt x="53" y="362" on="1"/>
        <pt x="477" y="362" on="1"/>
        <pt x="484" y="340" on="0"/>
        <pt x="484" y="300" on="1"/>
        <pt x="484" y="261" on="0"/>
      </contour>
    </TTGlyph>
    <TTGlyph name="dollar" xMin="22" yMin="-45" xMax="485" yMax="695">
      <contour>
        <pt x="22" y="95" on="1"/>
        <pt x="23" y="124" on="0"/>
        <pt x="57" y="195" on="0"/>
        <pt x="79" y="210" on="1"/>
        <pt x="183" y="155" on="0"/>
        <pt x="257" y="155" on="1"/>
        <pt x="286" y="155" on="0"/>
        <pt x="320" y="176" on="0"/>
        <pt x="320" y="196" on="1"/>
        <pt x="320" y="227" on="0"/>
        <pt x="275" y="244" on="1"/>
        <pt x="180" y="278" on="1"/>
        <pt x="46" y="329" on="0"/>
        <pt x="46" y="439" on="1"/>
        <pt x="46" y="505" on="0"/>
        <pt x="131" y="597" on="0"/>
        <pt x="200" y="610" on="1"/>
        <pt x="200" y="690" on="1"/>
        <pt x="219" y="695" on="0"/>
        <pt x="293" y="695" on="0"/>
        <pt x="312" y="690" on="1"/>
        <pt x="312" y="611" on="1"/>
        <pt x="383" y="603" on="0"/>
        <pt x="470" y="568" on="1"/>
        <pt x="470" y="534" on="0"/>
        <pt x="440" y="467" on="0"/>
        <pt x="416" y="447" on="1"/>
        <pt x="316" y="487" on="0"/>
        <pt x="208" y="487" on="0"/>
        <pt x="208" y="449" on="1"/>
        <pt x="208" y="435" on="0"/>
        <pt x="230" y="419" on="0"/>
        <pt x="254" y="410" on="1"/>
        <pt x="346" y="375" on="1"/>
        <pt x="485" y="322" on="0"/>
        <pt x="485" y="202" on="1"/>
        <pt x="485" y="136" on="0"/>
        <pt x="387" y="47" on="0"/>
        <pt x="308" y="35" on="1"/>
        <pt x="308" y="-41" on="1"/>
        <pt x="293" y="-45" on="0"/>
        <pt x="211" y="-45" on="0"/>
        <pt x="196" y="-41" on="1"/>
        <pt x="196" y="35" on="1"/>
        <pt x="87" y="50" on="0"/>
      </contour>
    </TTGlyph>
    <TTGlyph name="dollar.smcp" xMin="18" yMin="-39" xMax="436" yMax="592">
      <contour>
        <pt x="18" y="77" on="1"/>
        <pt x="20" y="107" on="0"/>
        <pt x="51" y="171" on="0"/>
        <pt x="73" y="186" on="1"/>
        <pt x="163" y="141" on="0"/>
        <pt x="232" y="141" on="1"/>
        <pt x="278" y="141" on="0"/>
        <pt x="278" y="169" on="1"/>
        <pt x="278" y="189" on="0"/>
        <pt x="246" y="201" on="1"/>
        <pt x="161" y="232" on="1"/>
        <pt x="39" y="277" on="0"/>
        <pt x="39" y="372" on="1"/>
        <pt x="39" y="430" on="0"/>
        <pt x="113" y="508" on="0"/>
        <pt x="177" y="522" on="1"/>
        <pt x="177" y="587" on="1"/>
        <pt x="196" y="592" on="0"/>
        <pt x="266" y="592" on="0"/>
        <pt x="285" y="587" on="1"/>
        <pt x="285" y="525" on="1"/>
        <pt x="358" y="517" on="0"/>
        <pt x="425" y="485" on="1"/>
        <pt x="422" y="416" on="0"/>
        <pt x="372" y="377" on="1"/>
        <pt x="295" y="412" on="0"/>
        <pt x="233" y="412" on="1"/>
        <pt x="191" y="412" on="0"/>
        <pt x="191" y="385" on="1"/>
        <pt x="191" y="370" on="0"/>
        <pt x="227" y="356" on="1"/>
        <pt x="306" y="327" on="1"/>
        <pt x="436" y="279" on="0"/>
        <pt x="436" y="177" on="1"/>
        <pt x="436" y="114" on="0"/>
        <pt x="352" y="37" on="0"/>
        <pt x="281" y="26" on="1"/>
        <pt x="281" y="-34" on="1"/>
        <pt x="264" y="-39" on="0"/>
        <pt x="193" y="-39" on="0"/>
        <pt x="174" y="-34" on="1"/>
        <pt x="174" y="25" on="1"/>
        <pt x="79" y="36" on="0"/>
      </contour>
    </TTGlyph>
    <TTGlyph name="dotaccent" xMin="113" yMin="569" xMax="285" yMax="716">
      <contour>
        <pt x="125" y="700" on="1"/>
        <pt x="154" y="716" on="0"/>
        <pt x="200" y="716" on="1"/>
        <pt x="247" y="716" on="0"/>
        <pt x="273" y="700" on="1"/>
        <pt x="285" y="673" on="0"/>
        <pt x="285" y="642" on="1"/>
        <pt x="285" y="611" on="0"/>
        <pt x="273" y="584" on="1"/>
        <pt x="244" y="569" on="0"/>
        <pt x="197" y="569" on="1"/>
        <pt x="150" y="569" on="0"/>
        <pt x="125" y="584" on="1"/>
        <pt x="113" y="611" on="0"/>
        <pt x="113" y="642" on="1"/>
        <pt x="113" y="673" on="0"/>
      </contour>
    </TTGlyph>
    <TTGlyph name="dotaccent.alt" xMin="121" yMin="248" xMax="277" yMax="401">
      <contour>
        <pt x="132" y="267" on="1"/>
        <pt x="126" y="278" on="0"/>
        <pt x="121" y="308" on="0"/>
        <pt x="121" y="324" on="1"/>
        <pt x="121" y="340" on="0"/>
        <pt x="126" y="370" on="0"/>
        <pt x="132" y="384" on="1"/>
        <pt x="161" y="401" on="0"/>
        <pt x="199" y="401" on="1"/>
        <pt x="235" y="401" on="0"/>
        <pt x="267" y="384" on="1"/>
        <pt x="272" y="370" on="0"/>
        <pt x="277" y="340" on="0"/>
        <pt x="277" y="324" on="1"/>
        <pt x="277" y="308" on="0"/>
        <pt x="272" y="279" on="0"/>
        <pt x="267" y="267" on="1"/>
        <pt x="242" y="248" on="0"/>
        <pt x="199" y="248" on="1"/>
        <pt x="157" y="248" on="0"/>
      </contour>
    </TTGlyph>
    <TTGlyph name="dotaccent.cap" xMin="113" yMin="742" xMax="285" yMax="889">
      <contour>
        <pt x="125" y="874" on="1"/>
        <pt x="153" y="889" on="0"/>
        <pt x="200" y="889" on="1"/>
        <pt x="247" y="889" on="0"/>
        <pt x="273" y="874" on="1"/>
        <pt x="285" y="847" on="0"/>
        <pt x="285" y="816" on="1"/>
        <pt x="285" y="785" on="0"/>
        <pt x="273" y="758" on="1"/>
        <pt x="247" y="742" on="0"/>
        <pt x="197" y="742" on="1"/>
        <pt x="148" y="742" on="0"/>
        <pt x="125" y="758" on="1"/>
        <pt x="113" y="785" on="0"/>
        <pt x="113" y="816" on="1"/>
        <pt x="113" y="847" on="0"/>
      </contour>
    </TTGlyph>
    <TTGlyph name="dotlessi" xMin="15" yMin="-6" xMax="240" yMax="503">
      <contour>
        <pt x="240" y="384" on="1"/>
        <pt x="240" y="0" on="1"/>
        <pt x="207" y="-6" on="0"/>
        <pt x="118" y="-6" on="0"/>
        <pt x="83" y="0" on="1"/>
        <pt x="83" y="331" on="1"/>
        <pt x="83" y="389" on="0"/>
        <pt x="36" y="389" on="1"/>
        <pt x="21" y="389" on="1"/>
        <pt x="15" y="409" on="0"/>
        <pt x="15" y="476" on="0"/>
        <pt x="21" y="498" on="1"/>
        <pt x="73" y="503" on="0"/>
        <pt x="109" y="503" on="1"/>
        <pt x="131" y="503" on="1"/>
        <pt x="181" y="503" on="0"/>
        <pt x="240" y="439" on="0"/>
      </contour>
    </TTGlyph>
    <TTGlyph name="e" xMin="30" yMin="-15" xMax="462" yMax="514">
      <contour>
        <pt x="449" y="199" on="1"/>
        <pt x="188" y="199" on="1"/>
        <pt x="190" y="154" on="0"/>
        <pt x="232" y="104" on="0"/>
        <pt x="280" y="104" on="1"/>
        <pt x="304" y="104" on="0"/>
        <pt x="367" y="118" on="0"/>
        <pt x="408" y="134" on="1"/>
        <pt x="441" y="100" on="0"/>
        <pt x="449" y="42" on="1"/>
        <pt x="369" y="-15" on="0"/>
        <pt x="253" y="-15" on="1"/>
        <pt x="190" y="-15" on="0"/>
        <pt x="105" y="25" on="0"/>
        <pt x="52" y="97" on="0"/>
        <pt x="30" y="195" on="0"/>
        <pt x="30" y="253" on="1"/>
        <pt x="30" y="309" on="0"/>
        <pt x="57" y="404" on="0"/>
        <pt x="112" y="474" on="0"/>
        <pt x="197" y="514" on="0"/>
        <pt x="254" y="514" on="1"/>
        <pt x="302" y="514" on="0"/>
        <pt x="379" y="482" on="0"/>
        <pt x="433" y="426" on="0"/>
        <pt x="462" y="348" on="0"/>
        <pt x="462" y="302" on="1"/>
        <pt x="462" y="241" on="0"/>
      </contour>
      <contour>
        <pt x="187" y="307" on="1"/>
        <pt x="319" y="307" on="1"/>
        <pt x="319" y="318" on="1"/>
        <pt x="319" y="355" on="0"/>
        <pt x="286" y="403" on="0"/>
        <pt x="253" y="403" on="1"/>
        <pt x="221" y="403" on="0"/>
        <pt x="190" y="358" on="0"/>
      </contour>
    </TTGlyph>
    <TTGlyph name="e.smcp" xMin="72" yMin="-2" xMax="492" yMax="551">
      <contour>
        <pt x="228" y="184" on="1"/>
        <pt x="227" y="123" on="1"/>
        <pt x="227" y="122" on="1"/>
        <pt x="262" y="125" on="0"/>
        <pt x="296" y="125" on="1"/>
        <pt x="492" y="125" on="1"/>
        <pt x="492" y="92" on="0"/>
        <pt x="489" y="73" on="1"/>
        <pt x="475" y="-2" on="0"/>
        <pt x="394" y="-2" on="1"/>
        <pt x="163" y="-2" on="1"/>
        <pt x="121" y="-2" on="0"/>
        <pt x="72" y="46" on="0"/>
        <pt x="72" y="87" on="1"/>
        <pt x="72" y="545" on="1"/>
        <pt x="78" y="551" on="1"/>
        <pt x="473" y="551" on="1"/>
        <pt x="478" y="528" on="0"/>
        <pt x="478" y="457" on="0"/>
        <pt x="465" y="424" on="1"/>
        <pt x="227" y="424" on="1"/>
        <pt x="228" y="371" on="1"/>
        <pt x="228" y="338" on="1"/>
        <pt x="253" y="339" on="0"/>
        <pt x="290" y="339" on="1"/>
        <pt x="419" y="339" on="1"/>
        <pt x="427" y="315" on="0"/>
        <pt x="427" y="241" on="0"/>
        <pt x="419" y="217" on="1"/>
        <pt x="228" y="217" on="1"/>
      </contour>
    </TTGlyph>
    <TTGlyph name="eacute" xMin="30" yMin="-15" xMax="462" yMax="770">
      <component glyphName="e" x="0" y="0" flags="0x204"/>
      <component glyphName="acute" x="59" y="0" flags="0x4"/>
    </TTGlyph>
    <TTGlyph name="eacute.smcp" xMin="72" yMin="-2" xMax="492" yMax="822">
      <component glyphName="e.smcp" x="0" y="0" flags="0x204"/>
      <component glyphName="acute" x="80" y="52" flags="0x4"/>
    </TTGlyph>
    <TTGlyph name="ecaron" xMin="30" yMin="-15" xMax="462" yMax="760">
      <component glyphName="e" x="0" y="0" flags="0x204"/>
      <component glyphName="caron" x="56" y="0" flags="0x4"/>
    </TTGlyph>
    <TTGlyph name="ecaron.smcp" xMin="72" yMin="-2" xMax="492" yMax="812">
      <component glyphName="e.smcp" x="0" y="0" flags="0x204"/>
      <component glyphName="caron" x="78" y="52" flags="0x4"/>
    </TTGlyph>
    <TTGlyph name="ecircumflex" xMin="30" yMin="-15" xMax="462" yMax="758">
      <component glyphName="e" x="0" y="0" flags="0x204"/>
      <component glyphName="circumflex" x="56" y="0" flags="0x4"/>
    </TTGlyph>
    <TTGlyph name="ecircumflex.smcp" xMin="72" yMin="-2" xMax="492" yMax="810">
      <component glyphName="e.smcp" x="0" y="0" flags="0x204"/>
      <component glyphName="circumflex" x="77" y="52" flags="0x4"/>
    </TTGlyph>
    <TTGlyph name="edieresis" xMin="30" yMin="-15" xMax="462" yMax="689">
      <component glyphName="e" x="0" y="0" flags="0x204"/>
      <component glyphName="dieresis" x="56" y="0" flags="0x4"/>
    </TTGlyph>
    <TTGlyph name="edieresis.smcp" xMin="72" yMin="-2" xMax="492" yMax="741">
      <component glyphName="e.smcp" x="0" y="0" flags="0x204"/>
      <component glyphName="dieresis" x="78" y="52" flags="0x4"/>
    </TTGlyph>
    <TTGlyph name="egrave" xMin="30" yMin="-15" xMax="462" yMax="770">
      <component glyphName="e" x="0" y="0" flags="0x204"/>
      <component glyphName="grave" x="56" y="0" flags="0x4"/>
    </TTGlyph>
    <TTGlyph name="egrave.smcp" xMin="72" yMin="-2" xMax="492" yMax="822">
      <component glyphName="e.smcp" x="0" y="0" flags="0x204"/>
      <component glyphName="grave" x="80" y="52" flags="0x4"/>
    </TTGlyph>
    <TTGlyph name="eight" xMin="26" yMin="-15" xMax="504" yMax="663">
      <contour>
        <pt x="26" y="165" on="1"/>
        <pt x="26" y="266" on="0"/>
        <pt x="134" y="332" on="1"/>
        <pt x="42" y="391" on="0"/>
        <pt x="42" y="486" on="1"/>
        <pt x="42" y="524" on="0"/>
        <pt x="76" y="589" on="0"/>
        <pt x="136" y="636" on="0"/>
        <pt x="218" y="663" on="0"/>
        <pt x="266" y="663" on="1"/>
        <pt x="315" y="663" on="0"/>
        <pt x="397" y="637" on="0"/>
        <pt x="454" y="590" on="0"/>
        <pt x="486" y="524" on="0"/>
        <pt x="486" y="484" on="1"/>
        <pt x="486" y="402" on="0"/>
        <pt x="393" y="350" on="1"/>
        <pt x="450" y="316" on="0"/>
        <pt x="504" y="229" on="0"/>
        <pt x="504" y="172" on="1"/>
        <pt x="504" y="129" on="0"/>
        <pt x="466" y="60" on="0"/>
        <pt x="399" y="11" on="0"/>
        <pt x="309" y="-15" on="0"/>
        <pt x="257" y="-15" on="1"/>
        <pt x="204" y="-15" on="0"/>
        <pt x="119" y="10" on="0"/>
        <pt x="59" y="56" on="0"/>
        <pt x="26" y="123" on="0"/>
      </contour>
      <contour>
        <pt x="261" y="274" on="1"/>
        <pt x="236" y="283" on="1"/>
        <pt x="182" y="236" on="0"/>
        <pt x="182" y="174" on="1"/>
        <pt x="182" y="139" on="0"/>
        <pt x="227" y="93" on="0"/>
        <pt x="265" y="93" on="1"/>
        <pt x="303" y="93" on="0"/>
        <pt x="346" y="139" on="0"/>
        <pt x="346" y="173" on="1"/>
        <pt x="346" y="241" on="0"/>
      </contour>
      <contour>
        <pt x="194" y="487" on="1"/>
        <pt x="194" y="458" on="0"/>
        <pt x="235" y="418" on="0"/>
        <pt x="277" y="402" on="1"/>
        <pt x="290" y="397" on="1"/>
        <pt x="337" y="432" on="0"/>
        <pt x="337" y="483" on="1"/>
        <pt x="337" y="514" on="0"/>
        <pt x="297" y="553" on="0"/>
        <pt x="265" y="553" on="1"/>
        <pt x="234" y="553" on="0"/>
        <pt x="194" y="515" on="0"/>
      </contour>
    </TTGlyph>
    <TTGlyph name="eight.smcp" xMin="25" yMin="-15" xMax="457" yMax="566">
      <contour>
        <pt x="25" y="134" on="1"/>
        <pt x="25" y="225" on="0"/>
        <pt x="121" y="275" on="1"/>
        <pt x="41" y="328" on="0"/>
        <pt x="41" y="398" on="1"/>
        <pt x="41" y="434" on="0"/>
        <pt x="71" y="496" on="0"/>
        <pt x="125" y="541" on="0"/>
        <pt x="199" y="566" on="0"/>
        <pt x="243" y="566" on="1"/>
        <pt x="288" y="566" on="0"/>
        <pt x="361" y="543" on="0"/>
        <pt x="413" y="502" on="0"/>
        <pt x="441" y="445" on="0"/>
        <pt x="441" y="410" on="1"/>
        <pt x="441" y="339" on="0"/>
        <pt x="369" y="299" on="1"/>
        <pt x="457" y="244" on="0"/>
        <pt x="457" y="158" on="1"/>
        <pt x="457" y="116" on="0"/>
        <pt x="424" y="51" on="0"/>
        <pt x="366" y="7" on="0"/>
        <pt x="284" y="-15" on="0"/>
        <pt x="236" y="-15" on="1"/>
        <pt x="139" y="-15" on="0"/>
        <pt x="25" y="67" on="0"/>
      </contour>
      <contour>
        <pt x="239" y="222" on="1"/>
        <pt x="226" y="227" on="1"/>
        <pt x="174" y="196" on="0"/>
        <pt x="174" y="145" on="1"/>
        <pt x="174" y="120" on="0"/>
        <pt x="208" y="88" on="0"/>
        <pt x="239" y="88" on="1"/>
        <pt x="271" y="88" on="0"/>
        <pt x="305" y="123" on="0"/>
        <pt x="305" y="145" on="1"/>
        <pt x="305" y="196" on="0"/>
      </contour>
      <contour>
        <pt x="188" y="414" on="1"/>
        <pt x="187" y="393" on="0"/>
        <pt x="220" y="363" on="0"/>
        <pt x="252" y="351" on="1"/>
        <pt x="265" y="346" on="1"/>
        <pt x="297" y="375" on="0"/>
        <pt x="297" y="410" on="1"/>
        <pt x="297" y="430" on="0"/>
        <pt x="269" y="461" on="0"/>
        <pt x="243" y="461" on="1"/>
        <pt x="217" y="461" on="0"/>
        <pt x="188" y="433" on="0"/>
      </contour>
    </TTGlyph>
    <TTGlyph name="emdash" xMin="67" yMin="206" xMax="748" yMax="325">
      <contour>
        <pt x="742" y="206" on="1"/>
        <pt x="74" y="206" on="1"/>
        <pt x="67" y="231" on="0"/>
        <pt x="67" y="300" on="0"/>
        <pt x="74" y="325" on="1"/>
        <pt x="742" y="325" on="1"/>
        <pt x="748" y="300" on="0"/>
        <pt x="748" y="231" on="0"/>
      </contour>
    </TTGlyph>
    <TTGlyph name="endash" xMin="56" yMin="206" xMax="501" yMax="325">
      <contour>
        <pt x="494" y="206" on="1"/>
        <pt x="62" y="206" on="1"/>
        <pt x="56" y="231" on="0"/>
        <pt x="56" y="300" on="0"/>
        <pt x="62" y="325" on="1"/>
        <pt x="494" y="325" on="1"/>
        <pt x="501" y="301" on="0"/>
        <pt x="501" y="231" on="0"/>
      </contour>
    </TTGlyph>
    <TTGlyph name="eogonek" xMin="30" yMin="-218" xMax="462" yMax="514">
      <contour>
        <pt x="449" y="199" on="1"/>
        <pt x="188" y="199" on="1"/>
        <pt x="190" y="154" on="0"/>
        <pt x="232" y="104" on="0"/>
        <pt x="280" y="104" on="1"/>
        <pt x="304" y="104" on="0"/>
        <pt x="367" y="118" on="0"/>
        <pt x="408" y="134" on="1"/>
        <pt x="441" y="100" on="0"/>
        <pt x="449" y="42" on="1"/>
        <pt x="420" y="21" on="0"/>
        <pt x="388" y="10" on="1"/>
        <pt x="326" y="-37" on="0"/>
        <pt x="326" y="-85" on="1"/>
        <pt x="326" y="-122" on="0"/>
        <pt x="367" y="-122" on="1"/>
        <pt x="393" y="-122" on="0"/>
        <pt x="417" y="-107" on="1"/>
        <pt x="447" y="-132" on="0"/>
        <pt x="450" y="-178" on="1"/>
        <pt x="401" y="-218" on="0"/>
        <pt x="339" y="-218" on="1"/>
        <pt x="279" y="-218" on="0"/>
        <pt x="212" y="-163" on="0"/>
        <pt x="212" y="-112" on="1"/>
        <pt x="212" y="-63" on="0"/>
        <pt x="265" y="-15" on="1"/>
        <pt x="253" y="-15" on="1"/>
        <pt x="190" y="-15" on="0"/>
        <pt x="105" y="25" on="0"/>
        <pt x="52" y="97" on="0"/>
        <pt x="30" y="195" on="0"/>
        <pt x="30" y="253" on="1"/>
        <pt x="30" y="309" on="0"/>
        <pt x="57" y="404" on="0"/>
        <pt x="112" y="474" on="0"/>
        <pt x="197" y="514" on="0"/>
        <pt x="254" y="514" on="1"/>
        <pt x="302" y="514" on="0"/>
        <pt x="379" y="482" on="0"/>
        <pt x="433" y="426" on="0"/>
        <pt x="462" y="348" on="0"/>
        <pt x="462" y="302" on="1"/>
        <pt x="462" y="241" on="0"/>
      </contour>
      <contour>
        <pt x="187" y="307" on="1"/>
        <pt x="319" y="307" on="1"/>
        <pt x="319" y="318" on="1"/>
        <pt x="319" y="355" on="0"/>
        <pt x="286" y="403" on="0"/>
        <pt x="253" y="403" on="1"/>
        <pt x="221" y="403" on="0"/>
        <pt x="190" y="358" on="0"/>
      </contour>
    </TTGlyph>
    <TTGlyph name="eogonek.smcp" xMin="72" yMin="-218" xMax="492" yMax="551">
      <contour>
        <pt x="228" y="184" on="1"/>
        <pt x="227" y="124" on="1"/>
        <pt x="227" y="123" on="1"/>
        <pt x="262" y="126" on="0"/>
        <pt x="296" y="126" on="1"/>
        <pt x="492" y="126" on="1"/>
        <pt x="492" y="92" on="0"/>
        <pt x="489" y="73" on="1"/>
        <pt x="480" y="19" on="0"/>
        <pt x="434" y="3" on="1"/>
        <pt x="359" y="-28" on="0"/>
        <pt x="359" y="-85" on="1"/>
        <pt x="359" y="-122" on="0"/>
        <pt x="400" y="-122" on="1"/>
        <pt x="426" y="-122" on="0"/>
        <pt x="450" y="-107" on="1"/>
        <pt x="480" y="-133" on="0"/>
        <pt x="483" y="-178" on="1"/>
        <pt x="433" y="-218" on="0"/>
        <pt x="372" y="-218" on="1"/>
        <pt x="312" y="-218" on="0"/>
        <pt x="245" y="-163" on="0"/>
        <pt x="245" y="-117" on="1"/>
        <pt x="245" y="-51" on="0"/>
        <pt x="308" y="-2" on="1"/>
        <pt x="163" y="-2" on="1"/>
        <pt x="121" y="-2" on="0"/>
        <pt x="72" y="46" on="0"/>
        <pt x="72" y="87" on="1"/>
        <pt x="72" y="545" on="1"/>
        <pt x="78" y="551" on="1"/>
        <pt x="473" y="551" on="1"/>
        <pt x="478" y="528" on="0"/>
        <pt x="478" y="456" on="0"/>
        <pt x="465" y="423" on="1"/>
        <pt x="227" y="423" on="1"/>
        <pt x="228" y="370" on="1"/>
        <pt x="228" y="339" on="1"/>
        <pt x="253" y="340" on="0"/>
        <pt x="290" y="340" on="1"/>
        <pt x="419" y="340" on="1"/>
        <pt x="427" y="316" on="0"/>
        <pt x="427" y="240" on="0"/>
        <pt x="419" y="216" on="1"/>
        <pt x="228" y="216" on="1"/>
      </contour>
    </TTGlyph>
    <TTGlyph name="equal" xMin="46" yMin="123" xMax="484" yMax="477">
      <contour>
        <pt x="477" y="123" on="1"/>
        <pt x="53" y="123" on="1"/>
        <pt x="46" y="148" on="0"/>
        <pt x="46" y="223" on="0"/>
        <pt x="53" y="248" on="1"/>
        <pt x="477" y="248" on="1"/>
        <pt x="484" y="224" on="0"/>
        <pt x="484" y="148" on="0"/>
      </contour>
      <contour>
        <pt x="477" y="352" on="1"/>
        <pt x="53" y="352" on="1"/>
        <pt x="46" y="376" on="0"/>
        <pt x="46" y="452" on="0"/>
        <pt x="53" y="477" on="1"/>
        <pt x="477" y="477" on="1"/>
        <pt x="484" y="452" on="0"/>
        <pt x="484" y="376" on="0"/>
      </contour>
    </TTGlyph>
    <TTGlyph name="eth" xMin="29" yMin="-15" xMax="490" yMax="753">
      <contour>
        <pt x="84" y="571" on="1"/>
        <pt x="154" y="619" on="1"/>
        <pt x="142" y="627" on="0"/>
        <pt x="112" y="647" on="0"/>
        <pt x="93" y="658" on="1"/>
        <pt x="95" y="673" on="0"/>
        <pt x="107" y="702" on="0"/>
        <pt x="123" y="728" on="0"/>
        <pt x="144" y="748" on="0"/>
        <pt x="155" y="753" on="1"/>
        <pt x="186" y="740" on="0"/>
        <pt x="240" y="711" on="0"/>
        <pt x="264" y="695" on="1"/>
        <pt x="348" y="752" on="1"/>
        <pt x="387" y="724" on="0"/>
        <pt x="399" y="681" on="1"/>
        <pt x="335" y="637" on="1"/>
        <pt x="490" y="488" on="0"/>
        <pt x="490" y="249" on="1"/>
        <pt x="490" y="189" on="0"/>
        <pt x="459" y="91" on="0"/>
        <pt x="400" y="22" on="0"/>
        <pt x="313" y="-15" on="0"/>
        <pt x="258" y="-15" on="1"/>
        <pt x="203" y="-15" on="0"/>
        <pt x="118" y="22" on="0"/>
        <pt x="59" y="90" on="0"/>
        <pt x="29" y="184" on="0"/>
        <pt x="29" y="241" on="1"/>
        <pt x="29" y="298" on="0"/>
        <pt x="61" y="389" on="0"/>
        <pt x="118" y="453" on="0"/>
        <pt x="198" y="487" on="0"/>
        <pt x="246" y="487" on="1"/>
        <pt x="267" y="487" on="0"/>
        <pt x="285" y="481" on="1"/>
        <pt x="268" y="518" on="0"/>
        <pt x="225" y="562" on="1"/>
        <pt x="134" y="500" on="1"/>
        <pt x="93" y="529" on="0"/>
      </contour>
      <contour>
        <pt x="321" y="360" on="1"/>
        <pt x="285" y="377" on="0"/>
        <pt x="261" y="377" on="1"/>
        <pt x="220" y="377" on="0"/>
        <pt x="188" y="308" on="0"/>
        <pt x="188" y="241" on="1"/>
        <pt x="188" y="208" on="0"/>
        <pt x="194" y="155" on="0"/>
        <pt x="210" y="118" on="0"/>
        <pt x="237" y="99" on="0"/>
        <pt x="259" y="99" on="1"/>
        <pt x="302" y="99" on="0"/>
        <pt x="330" y="179" on="0"/>
        <pt x="330" y="248" on="1"/>
        <pt x="330" y="319" on="0"/>
      </contour>
    </TTGlyph>
    <TTGlyph name="eth.smcp" xMin="8" yMin="-4" xMax="584" yMax="556">
      <contour>
        <pt x="87" y="-1" on="1"/>
        <pt x="81" y="5" on="1"/>
        <pt x="81" y="215" on="1"/>
        <pt x="15" y="215" on="1"/>
        <pt x="8" y="236" on="0"/>
        <pt x="8" y="274" on="1"/>
        <pt x="8" y="312" on="0"/>
        <pt x="15" y="334" on="1"/>
        <pt x="81" y="334" on="1"/>
        <pt x="81" y="546" on="1"/>
        <pt x="87" y="552" on="1"/>
        <pt x="166" y="554" on="0"/>
        <pt x="272" y="556" on="0"/>
        <pt x="300" y="556" on="1"/>
        <pt x="387" y="556" on="0"/>
        <pt x="497" y="511" on="0"/>
        <pt x="560" y="435" on="0"/>
        <pt x="584" y="332" on="0"/>
        <pt x="584" y="275" on="1"/>
        <pt x="584" y="217" on="0"/>
        <pt x="561" y="116" on="0"/>
        <pt x="500" y="40" on="0"/>
        <pt x="395" y="-4" on="0"/>
        <pt x="313" y="-4" on="1"/>
        <pt x="205" y="-4" on="0"/>
      </contour>
      <contour>
        <pt x="235" y="111" on="1"/>
        <pt x="312" y="112" on="1"/>
        <pt x="369" y="113" on="0"/>
        <pt x="424" y="192" on="0"/>
        <pt x="424" y="275" on="1"/>
        <pt x="424" y="439" on="0"/>
        <pt x="312" y="439" on="1"/>
        <pt x="287" y="439" on="0"/>
        <pt x="249" y="439" on="0"/>
        <pt x="235" y="440" on="1"/>
        <pt x="235" y="334" on="1"/>
        <pt x="331" y="334" on="1"/>
        <pt x="334" y="319" on="0"/>
        <pt x="338" y="289" on="0"/>
        <pt x="338" y="274" on="1"/>
        <pt x="338" y="258" on="0"/>
        <pt x="334" y="229" on="0"/>
        <pt x="331" y="215" on="1"/>
        <pt x="235" y="215" on="1"/>
      </contour>
    </TTGlyph>
    <TTGlyph name="exclam" xMin="65" yMin="-12" xMax="244" yMax="692">
      <contour>
        <pt x="91" y="209" on="1"/>
        <pt x="69" y="649" on="1"/>
        <pt x="128" y="692" on="0"/>
        <pt x="235" y="692" on="1"/>
        <pt x="244" y="680" on="1"/>
        <pt x="209" y="209" on="1"/>
        <pt x="197" y="205" on="0"/>
        <pt x="166" y="202" on="0"/>
        <pt x="149" y="202" on="1"/>
        <pt x="133" y="202" on="0"/>
        <pt x="102" y="205" on="0"/>
      </contour>
      <contour>
        <pt x="75" y="122" on="1"/>
        <pt x="107" y="139" on="0"/>
        <pt x="150" y="139" on="1"/>
        <pt x="169" y="139" on="0"/>
        <pt x="198" y="134" on="0"/>
        <pt x="223" y="122" on="1"/>
        <pt x="237" y="94" on="0"/>
        <pt x="235" y="63" on="1"/>
        <pt x="238" y="36" on="0"/>
        <pt x="223" y="5" on="1"/>
        <pt x="200" y="-7" on="0"/>
        <pt x="169" y="-12" on="0"/>
        <pt x="150" y="-12" on="1"/>
        <pt x="107" y="-12" on="0"/>
        <pt x="75" y="5" on="1"/>
        <pt x="65" y="24" on="0"/>
        <pt x="65" y="63" on="1"/>
        <pt x="65" y="103" on="0"/>
      </contour>
    </TTGlyph>
    <TTGlyph name="exclamdown" xMin="64" yMin="-193" xMax="243" yMax="510">
      <contour>
        <pt x="218" y="289" on="1"/>
        <pt x="239" y="-150" on="1"/>
        <pt x="181" y="-193" on="0"/>
        <pt x="73" y="-193" on="1"/>
        <pt x="64" y="-182" on="1"/>
        <pt x="99" y="289" on="1"/>
        <pt x="121" y="296" on="0"/>
        <pt x="159" y="296" on="1"/>
        <pt x="197" y="296" on="0"/>
      </contour>
      <contour>
        <pt x="233" y="376" on="1"/>
        <pt x="201" y="359" on="0"/>
        <pt x="157" y="359" on="1"/>
        <pt x="139" y="359" on="0"/>
        <pt x="108" y="364" on="0"/>
        <pt x="85" y="376" on="1"/>
        <pt x="71" y="404" on="0"/>
        <pt x="73" y="434" on="1"/>
        <pt x="73" y="461" on="0"/>
        <pt x="83" y="491" on="1"/>
        <pt x="107" y="505" on="0"/>
        <pt x="138" y="510" on="0"/>
        <pt x="157" y="510" on="1"/>
        <pt x="201" y="510" on="0"/>
        <pt x="233" y="493" on="1"/>
        <pt x="243" y="474" on="0"/>
        <pt x="243" y="434" on="1"/>
        <pt x="243" y="395" on="0"/>
      </contour>
    </TTGlyph>
    <TTGlyph name="f" xMin="-4" yMin="-6" xMax="404" yMax="740">
      <contour>
        <pt x="88" y="0" on="1"/>
        <pt x="88" y="390" on="1"/>
        <pt x="2" y="389" on="1"/>
        <pt x="-4" y="414" on="0"/>
        <pt x="-4" y="474" on="0"/>
        <pt x="2" y="500" on="1"/>
        <pt x="80" y="499" on="1"/>
        <pt x="75" y="536" on="0"/>
        <pt x="75" y="566" on="1"/>
        <pt x="75" y="641" on="0"/>
        <pt x="172" y="740" on="0"/>
        <pt x="250" y="740" on="1"/>
        <pt x="328" y="740" on="0"/>
        <pt x="403" y="712" on="1"/>
        <pt x="404" y="686" on="0"/>
        <pt x="384" y="625" on="0"/>
        <pt x="369" y="609" on="1"/>
        <pt x="322" y="623" on="0"/>
        <pt x="292" y="623" on="1"/>
        <pt x="225" y="623" on="0"/>
        <pt x="225" y="554" on="1"/>
        <pt x="225" y="525" on="0"/>
        <pt x="229" y="498" on="1"/>
        <pt x="360" y="500" on="1"/>
        <pt x="366" y="474" on="0"/>
        <pt x="366" y="414" on="0"/>
        <pt x="360" y="389" on="1"/>
        <pt x="240" y="391" on="1"/>
        <pt x="240" y="0" on="1"/>
        <pt x="206" y="-6" on="0"/>
        <pt x="124" y="-6" on="0"/>
      </contour>
    </TTGlyph>
    <TTGlyph name="f.smcp" xMin="72" yMin="-6" xMax="472" yMax="551">
      <contour>
        <pt x="465" y="551" on="1"/>
        <pt x="472" y="526" on="0"/>
        <pt x="472" y="493" on="1"/>
        <pt x="472" y="421" on="0"/>
        <pt x="394" y="421" on="1"/>
        <pt x="230" y="421" on="1"/>
        <pt x="230" y="327" on="1"/>
        <pt x="408" y="327" on="1"/>
        <pt x="416" y="304" on="0"/>
        <pt x="416" y="228" on="0"/>
        <pt x="408" y="204" on="1"/>
        <pt x="230" y="204" on="1"/>
        <pt x="230" y="0" on="1"/>
        <pt x="198" y="-6" on="0"/>
        <pt x="104" y="-6" on="0"/>
        <pt x="72" y="0" on="1"/>
        <pt x="72" y="546" on="1"/>
        <pt x="78" y="551" on="1"/>
      </contour>
    </TTGlyph>
    <TTGlyph name="five" xMin="37" yMin="-15" xMax="485" yMax="648">
      <contour>
        <pt x="451" y="648" on="1"/>
        <pt x="462" y="618" on="0"/>
        <pt x="462" y="584" on="1"/>
        <pt x="462" y="519" on="0"/>
        <pt x="396" y="519" on="1"/>
        <pt x="224" y="519" on="1"/>
        <pt x="224" y="492" on="1"/>
        <pt x="220" y="445" on="1"/>
        <pt x="217" y="428" on="1"/>
        <pt x="242" y="434" on="0"/>
        <pt x="271" y="434" on="1"/>
        <pt x="373" y="434" on="0"/>
        <pt x="485" y="318" on="0"/>
        <pt x="485" y="221" on="1"/>
        <pt x="485" y="165" on="0"/>
        <pt x="446" y="77" on="0"/>
        <pt x="379" y="17" on="0"/>
        <pt x="288" y="-15" on="0"/>
        <pt x="237" y="-15" on="1"/>
        <pt x="113" y="-15" on="0"/>
        <pt x="37" y="54" on="1"/>
        <pt x="39" y="66" on="0"/>
        <pt x="51" y="95" on="0"/>
        <pt x="68" y="123" on="0"/>
        <pt x="89" y="148" on="0"/>
        <pt x="100" y="156" on="1"/>
        <pt x="134" y="132" on="0"/>
        <pt x="196" y="111" on="0"/>
        <pt x="222" y="111" on="1"/>
        <pt x="271" y="111" on="0"/>
        <pt x="326" y="170" on="0"/>
        <pt x="326" y="215" on="1"/>
        <pt x="326" y="263" on="0"/>
        <pt x="269" y="315" on="0"/>
        <pt x="228" y="315" on="1"/>
        <pt x="207" y="315" on="0"/>
        <pt x="162" y="300" on="0"/>
        <pt x="140" y="284" on="1"/>
        <pt x="120" y="289" on="0"/>
        <pt x="74" y="320" on="0"/>
        <pt x="62" y="338" on="1"/>
        <pt x="80" y="640" on="1"/>
        <pt x="88" y="648" on="1"/>
      </contour>
    </TTGlyph>
    <TTGlyph name="five.smcp" xMin="33" yMin="-15" xMax="441" yMax="551">
      <contour>
        <pt x="33" y="45" on="1"/>
        <pt x="35" y="56" on="0"/>
        <pt x="48" y="85" on="0"/>
        <pt x="65" y="114" on="0"/>
        <pt x="85" y="140" on="0"/>
        <pt x="95" y="147" on="1"/>
        <pt x="147" y="107" on="0"/>
        <pt x="206" y="107" on="1"/>
        <pt x="245" y="107" on="0"/>
        <pt x="286" y="149" on="0"/>
        <pt x="286" y="186" on="1"/>
        <pt x="286" y="216" on="0"/>
        <pt x="243" y="254" on="0"/>
        <pt x="211" y="254" on="1"/>
        <pt x="194" y="254" on="0"/>
        <pt x="156" y="240" on="0"/>
        <pt x="138" y="225" on="1"/>
        <pt x="117" y="229" on="0"/>
        <pt x="71" y="263" on="0"/>
        <pt x="60" y="282" on="1"/>
        <pt x="76" y="544" on="1"/>
        <pt x="84" y="551" on="1"/>
        <pt x="417" y="551" on="1"/>
        <pt x="427" y="524" on="0"/>
        <pt x="427" y="487" on="1"/>
        <pt x="427" y="427" on="0"/>
        <pt x="362" y="427" on="1"/>
        <pt x="215" y="427" on="1"/>
        <pt x="215" y="379" on="1"/>
        <pt x="211" y="359" on="1"/>
        <pt x="225" y="361" on="0"/>
        <pt x="247" y="363" on="0"/>
        <pt x="255" y="363" on="1"/>
        <pt x="295" y="363" on="0"/>
        <pt x="363" y="336" on="0"/>
        <pt x="413" y="289" on="0"/>
        <pt x="441" y="225" on="0"/>
        <pt x="441" y="187" on="1"/>
        <pt x="441" y="139" on="0"/>
        <pt x="407" y="64" on="0"/>
        <pt x="345" y="12" on="0"/>
        <pt x="260" y="-15" on="0"/>
        <pt x="209" y="-15" on="1"/>
        <pt x="108" y="-15" on="0"/>
      </contour>
    </TTGlyph>
    <TTGlyph name="four" xMin="21" yMin="-6" xMax="509" yMax="662">
      <contour>
        <pt x="421" y="114" on="1"/>
        <pt x="422" y="42" on="1"/>
        <pt x="422" y="0" on="1"/>
        <pt x="388" y="-6" on="0"/>
        <pt x="303" y="-6" on="0"/>
        <pt x="271" y="0" on="1"/>
        <pt x="271" y="42" on="1"/>
        <pt x="272" y="114" on="1"/>
        <pt x="198" y="113" on="1"/>
        <pt x="54" y="113" on="1"/>
        <pt x="21" y="165" on="0"/>
        <pt x="21" y="236" on="0"/>
        <pt x="39" y="274" on="1"/>
        <pt x="200" y="656" on="1"/>
        <pt x="235" y="662" on="0"/>
        <pt x="325" y="644" on="0"/>
        <pt x="342" y="624" on="1"/>
        <pt x="275" y="463" on="1"/>
        <pt x="211" y="305" on="0"/>
        <pt x="166" y="240" on="1"/>
        <pt x="169" y="235" on="1"/>
        <pt x="205" y="239" on="0"/>
        <pt x="271" y="241" on="1"/>
        <pt x="271" y="294" on="1"/>
        <pt x="271" y="352" on="0"/>
        <pt x="328" y="418" on="0"/>
        <pt x="379" y="418" on="1"/>
        <pt x="415" y="418" on="1"/>
        <pt x="422" y="412" on="1"/>
        <pt x="422" y="315" on="1"/>
        <pt x="421" y="242" on="1"/>
        <pt x="478" y="243" on="1"/>
        <pt x="505" y="243" on="1"/>
        <pt x="509" y="219" on="0"/>
        <pt x="509" y="148" on="0"/>
        <pt x="499" y="114" on="1"/>
      </contour>
    </TTGlyph>
    <TTGlyph name="four.smcp" xMin="20" yMin="-6" xMax="461" yMax="564">
      <contour>
        <pt x="391" y="88" on="1"/>
        <pt x="392" y="21" on="1"/>
        <pt x="392" y="0" on="1"/>
        <pt x="358" y="-6" on="0"/>
        <pt x="283" y="-6" on="0"/>
        <pt x="249" y="0" on="1"/>
        <pt x="249" y="21" on="1"/>
        <pt x="250" y="88" on="1"/>
        <pt x="177" y="86" on="1"/>
        <pt x="53" y="86" on="1"/>
        <pt x="26" y="137" on="0"/>
        <pt x="20" y="165" on="0"/>
        <pt x="20" y="179" on="1"/>
        <pt x="22" y="207" on="0"/>
        <pt x="37" y="235" on="1"/>
        <pt x="189" y="558" on="1"/>
        <pt x="226" y="564" on="0"/>
        <pt x="307" y="543" on="0"/>
        <pt x="328" y="523" on="1"/>
        <pt x="263" y="388" on="1"/>
        <pt x="219" y="296" on="0"/>
        <pt x="166" y="205" on="1"/>
        <pt x="169" y="200" on="1"/>
        <pt x="207" y="205" on="0"/>
        <pt x="249" y="207" on="1"/>
        <pt x="249" y="246" on="1"/>
        <pt x="249" y="296" on="0"/>
        <pt x="306" y="361" on="0"/>
        <pt x="352" y="361" on="1"/>
        <pt x="387" y="361" on="1"/>
        <pt x="393" y="354" on="1"/>
        <pt x="393" y="300" on="1"/>
        <pt x="391" y="211" on="1"/>
        <pt x="391" y="209" on="1"/>
        <pt x="433" y="210" on="1"/>
        <pt x="457" y="210" on="1"/>
        <pt x="461" y="187" on="0"/>
        <pt x="461" y="125" on="0"/>
        <pt x="450" y="88" on="1"/>
      </contour>
    </TTGlyph>
    <TTGlyph name="fraction" xMin="-121" yMin="-7" xMax="407" yMax="690">
      <contour>
        <pt x="-121" y="0" on="1"/>
        <pt x="257" y="683" on="1"/>
        <pt x="290" y="690" on="0"/>
        <pt x="387" y="689" on="0"/>
        <pt x="407" y="683" on="1"/>
        <pt x="29" y="0" on="1"/>
        <pt x="-3" y="-7" on="0"/>
        <pt x="-101" y="-6" on="0"/>
      </contour>
    </TTGlyph>
    <TTGlyph name="g" xMin="32" yMin="-221" xMax="506" yMax="514">
      <contour>
        <pt x="364" y="467" on="1"/>
        <pt x="398" y="505" on="0"/>
        <pt x="458" y="507" on="1"/>
        <pt x="474" y="495" on="0"/>
        <pt x="503" y="447" on="0"/>
        <pt x="506" y="427" on="1"/>
        <pt x="478" y="408" on="0"/>
        <pt x="478" y="355" on="1"/>
        <pt x="478" y="91" on="1"/>
        <pt x="478" y="-1" on="0"/>
        <pt x="449" y="-122" on="0"/>
        <pt x="390" y="-193" on="0"/>
        <pt x="300" y="-221" on="0"/>
        <pt x="239" y="-221" on="1"/>
        <pt x="136" y="-221" on="0"/>
        <pt x="51" y="-188" on="1"/>
        <pt x="51" y="-160" on="0"/>
        <pt x="73" y="-94" on="0"/>
        <pt x="89" y="-75" on="1"/>
        <pt x="156" y="-105" on="0"/>
        <pt x="225" y="-105" on="1"/>
        <pt x="326" y="-105" on="0"/>
        <pt x="326" y="-4" on="1"/>
        <pt x="326" y="29" on="1"/>
        <pt x="272" y="-10" on="0"/>
        <pt x="212" y="-10" on="1"/>
        <pt x="123" y="-10" on="0"/>
        <pt x="32" y="131" on="0"/>
        <pt x="32" y="252" on="1"/>
        <pt x="32" y="313" on="0"/>
        <pt x="63" y="410" on="0"/>
        <pt x="117" y="478" on="0"/>
        <pt x="188" y="514" on="0"/>
        <pt x="228" y="514" on="1"/>
        <pt x="309" y="514" on="0"/>
      </contour>
      <contour>
        <pt x="326" y="150" on="1"/>
        <pt x="326" y="364" on="1"/>
        <pt x="291" y="398" on="0"/>
        <pt x="260" y="398" on="1"/>
        <pt x="192" y="398" on="0"/>
        <pt x="192" y="248" on="1"/>
        <pt x="192" y="116" on="0"/>
        <pt x="251" y="116" on="1"/>
        <pt x="292" y="116" on="0"/>
      </contour>
    </TTGlyph>
    <TTGlyph name="g.smcp" xMin="31" yMin="-15" xMax="541" yMax="566">
      <contour>
        <pt x="298" y="321" on="1"/>
        <pt x="322" y="322" on="0"/>
        <pt x="393" y="323" on="0"/>
        <pt x="441" y="323" on="1"/>
        <pt x="496" y="323" on="0"/>
        <pt x="541" y="282" on="0"/>
        <pt x="541" y="239" on="1"/>
        <pt x="541" y="18" on="1"/>
        <pt x="524" y="12" on="0"/>
        <pt x="469" y="0" on="0"/>
        <pt x="403" y="-9" on="0"/>
        <pt x="334" y="-15" on="0"/>
        <pt x="305" y="-15" on="1"/>
        <pt x="164" y="-15" on="0"/>
        <pt x="31" y="138" on="0"/>
        <pt x="31" y="273" on="1"/>
        <pt x="31" y="343" on="0"/>
        <pt x="74" y="453" on="0"/>
        <pt x="150" y="527" on="0"/>
        <pt x="255" y="566" on="0"/>
        <pt x="317" y="566" on="1"/>
        <pt x="435" y="566" on="0"/>
        <pt x="532" y="517" on="1"/>
        <pt x="531" y="502" on="0"/>
        <pt x="520" y="467" on="0"/>
        <pt x="503" y="436" on="0"/>
        <pt x="483" y="409" on="0"/>
        <pt x="472" y="402" on="1"/>
        <pt x="396" y="440" on="0"/>
        <pt x="331" y="440" on="1"/>
        <pt x="265" y="440" on="0"/>
        <pt x="193" y="357" on="0"/>
        <pt x="193" y="269" on="1"/>
        <pt x="193" y="185" on="0"/>
        <pt x="261" y="102" on="0"/>
        <pt x="333" y="102" on="1"/>
        <pt x="348" y="102" on="0"/>
        <pt x="379" y="105" on="0"/>
        <pt x="396" y="107" on="1"/>
        <pt x="396" y="146" on="1"/>
        <pt x="396" y="151" on="0"/>
        <pt x="397" y="176" on="0"/>
        <pt x="398" y="196" on="1"/>
        <pt x="361" y="196" on="1"/>
        <pt x="290" y="196" on="0"/>
        <pt x="290" y="258" on="1"/>
        <pt x="290" y="295" on="0"/>
      </contour>
    </TTGlyph>
    <TTGlyph name="germandbls" xMin="4" yMin="-15" xMax="632" yMax="700">
      <contour>
        <pt x="95" y="0" on="1"/>
        <pt x="95" y="360" on="1"/>
        <pt x="9" y="359" on="1"/>
        <pt x="6" y="374" on="0"/>
        <pt x="4" y="404" on="0"/>
        <pt x="4" y="419" on="1"/>
        <pt x="4" y="434" on="0"/>
        <pt x="6" y="464" on="0"/>
        <pt x="9" y="478" on="1"/>
        <pt x="95" y="477" on="1"/>
        <pt x="95" y="499" on="1"/>
        <pt x="95" y="597" on="0"/>
        <pt x="225" y="700" on="0"/>
        <pt x="336" y="700" on="1"/>
        <pt x="391" y="700" on="0"/>
        <pt x="482" y="671" on="0"/>
        <pt x="547" y="616" on="0"/>
        <pt x="583" y="539" on="0"/>
        <pt x="583" y="491" on="1"/>
        <pt x="583" y="454" on="0"/>
        <pt x="566" y="414" on="1"/>
        <pt x="536" y="407" on="0"/>
        <pt x="504" y="376" on="0"/>
        <pt x="504" y="358" on="1"/>
        <pt x="502" y="337" on="0"/>
        <pt x="524" y="317" on="1"/>
        <pt x="562" y="280" on="1"/>
        <pt x="632" y="211" on="0"/>
        <pt x="632" y="140" on="1"/>
        <pt x="632" y="104" on="0"/>
        <pt x="602" y="47" on="0"/>
        <pt x="549" y="7" on="0"/>
        <pt x="478" y="-15" on="0"/>
        <pt x="438" y="-15" on="1"/>
        <pt x="358" y="-15" on="0"/>
        <pt x="298" y="14" on="1"/>
        <pt x="298" y="27" on="0"/>
        <pt x="305" y="57" on="0"/>
        <pt x="316" y="87" on="0"/>
        <pt x="331" y="112" on="0"/>
        <pt x="340" y="121" on="1"/>
        <pt x="377" y="102" on="0"/>
        <pt x="411" y="102" on="1"/>
        <pt x="468" y="102" on="0"/>
        <pt x="468" y="144" on="1"/>
        <pt x="468" y="169" on="0"/>
        <pt x="439" y="196" on="1"/>
        <pt x="398" y="234" on="1"/>
        <pt x="336" y="291" on="0"/>
        <pt x="336" y="345" on="1"/>
        <pt x="336" y="378" on="0"/>
        <pt x="382" y="444" on="0"/>
        <pt x="422" y="463" on="1"/>
        <pt x="423" y="472" on="0"/>
        <pt x="424" y="485" on="0"/>
        <pt x="424" y="490" on="1"/>
        <pt x="424" y="528" on="0"/>
        <pt x="379" y="581" on="0"/>
        <pt x="337" y="581" on="1"/>
        <pt x="255" y="581" on="0"/>
        <pt x="255" y="483" on="1"/>
        <pt x="255" y="0" on="1"/>
        <pt x="219" y="-6" on="0"/>
        <pt x="175" y="-6" on="1"/>
        <pt x="131" y="-6" on="0"/>
      </contour>
    </TTGlyph>
    <TTGlyph name="germandbls.cap" xMin="4" yMin="-15" xMax="632" yMax="700">
      <contour>
        <pt x="95" y="0" on="1"/>
        <pt x="95" y="360" on="1"/>
        <pt x="9" y="359" on="1"/>
        <pt x="6" y="374" on="0"/>
        <pt x="4" y="404" on="0"/>
        <pt x="4" y="419" on="1"/>
        <pt x="4" y="434" on="0"/>
        <pt x="6" y="464" on="0"/>
        <pt x="9" y="478" on="1"/>
        <pt x="95" y="477" on="1"/>
        <pt x="95" y="499" on="1"/>
        <pt x="95" y="597" on="0"/>
        <pt x="225" y="700" on="0"/>
        <pt x="336" y="700" on="1"/>
        <pt x="391" y="700" on="0"/>
        <pt x="482" y="671" on="0"/>
        <pt x="547" y="616" on="0"/>
        <pt x="583" y="539" on="0"/>
        <pt x="583" y="491" on="1"/>
        <pt x="583" y="454" on="0"/>
        <pt x="566" y="414" on="1"/>
        <pt x="536" y="407" on="0"/>
        <pt x="504" y="376" on="0"/>
        <pt x="504" y="358" on="1"/>
        <pt x="502" y="337" on="0"/>
        <pt x="524" y="317" on="1"/>
        <pt x="562" y="280" on="1"/>
        <pt x="632" y="211" on="0"/>
        <pt x="632" y="140" on="1"/>
        <pt x="632" y="104" on="0"/>
        <pt x="602" y="47" on="0"/>
        <pt x="549" y="7" on="0"/>
        <pt x="478" y="-15" on="0"/>
        <pt x="438" y="-15" on="1"/>
        <pt x="358" y="-15" on="0"/>
        <pt x="298" y="14" on="1"/>
        <pt x="298" y="27" on="0"/>
        <pt x="305" y="57" on="0"/>
        <pt x="316" y="87" on="0"/>
        <pt x="331" y="112" on="0"/>
        <pt x="340" y="121" on="1"/>
        <pt x="377" y="102" on="0"/>
        <pt x="411" y="102" on="1"/>
        <pt x="468" y="102" on="0"/>
        <pt x="468" y="144" on="1"/>
        <pt x="468" y="169" on="0"/>
        <pt x="439" y="196" on="1"/>
        <pt x="398" y="234" on="1"/>
        <pt x="336" y="291" on="0"/>
        <pt x="336" y="345" on="1"/>
        <pt x="336" y="378" on="0"/>
        <pt x="382" y="444" on="0"/>
        <pt x="422" y="463" on="1"/>
        <pt x="423" y="472" on="0"/>
        <pt x="424" y="485" on="0"/>
        <pt x="424" y="490" on="1"/>
        <pt x="424" y="528" on="0"/>
        <pt x="379" y="581" on="0"/>
        <pt x="337" y="581" on="1"/>
        <pt x="255" y="581" on="0"/>
        <pt x="255" y="483" on="1"/>
        <pt x="255" y="0" on="1"/>
        <pt x="219" y="-6" on="0"/>
        <pt x="175" y="-6" on="1"/>
        <pt x="131" y="-6" on="0"/>
      </contour>
    </TTGlyph>
    <TTGlyph name="germandbls.cap_smcp" xMin="7" yMin="-13" xMax="584" yMax="567">
      <contour>
        <pt x="89" y="0" on="1"/>
        <pt x="89" y="255" on="1"/>
        <pt x="12" y="254" on="1"/>
        <pt x="7" y="277" on="0"/>
        <pt x="7" y="312" on="1"/>
        <pt x="7" y="348" on="0"/>
        <pt x="12" y="370" on="1"/>
        <pt x="89" y="369" on="1"/>
        <pt x="89" y="404" on="1"/>
        <pt x="89" y="483" on="0"/>
        <pt x="211" y="567" on="0"/>
        <pt x="314" y="567" on="1"/>
        <pt x="365" y="567" on="0"/>
        <pt x="449" y="541" on="0"/>
        <pt x="509" y="495" on="0"/>
        <pt x="542" y="430" on="0"/>
        <pt x="542" y="391" on="1"/>
        <pt x="542" y="360" on="0"/>
        <pt x="535" y="336" on="1"/>
        <pt x="487" y="316" on="0"/>
        <pt x="487" y="286" on="1"/>
        <pt x="487" y="271" on="0"/>
        <pt x="503" y="258" on="1"/>
        <pt x="529" y="231" on="1"/>
        <pt x="557" y="202" on="0"/>
        <pt x="584" y="144" on="0"/>
        <pt x="584" y="116" on="1"/>
        <pt x="584" y="88" on="0"/>
        <pt x="557" y="41" on="0"/>
        <pt x="511" y="6" on="0"/>
        <pt x="447" y="-13" on="0"/>
        <pt x="411" y="-13" on="1"/>
        <pt x="340" y="-13" on="0"/>
        <pt x="289" y="7" on="1"/>
        <pt x="290" y="32" on="0"/>
        <pt x="314" y="95" on="0"/>
        <pt x="330" y="113" on="1"/>
        <pt x="356" y="100" on="0"/>
        <pt x="380" y="100" on="1"/>
        <pt x="423" y="100" on="0"/>
        <pt x="423" y="129" on="1"/>
        <pt x="423" y="139" on="0"/>
        <pt x="410" y="158" on="0"/>
        <pt x="399" y="169" on="1"/>
        <pt x="368" y="198" on="1"/>
        <pt x="342" y="223" on="0"/>
        <pt x="319" y="256" on="0"/>
        <pt x="319" y="280" on="1"/>
        <pt x="319" y="305" on="0"/>
        <pt x="352" y="355" on="0"/>
        <pt x="382" y="370" on="1"/>
        <pt x="383" y="373" on="0"/>
        <pt x="383" y="384" on="1"/>
        <pt x="383" y="413" on="0"/>
        <pt x="347" y="453" on="0"/>
        <pt x="315" y="453" on="1"/>
        <pt x="248" y="453" on="0"/>
        <pt x="248" y="386" on="1"/>
        <pt x="248" y="0" on="1"/>
        <pt x="209" y="-6" on="0"/>
        <pt x="167" y="-6" on="1"/>
        <pt x="125" y="-6" on="0"/>
      </contour>
    </TTGlyph>
    <TTGlyph name="germandbls.smcp" xMin="17" yMin="-15" xMax="994" yMax="566">
      <component glyphName="s.smcp" x="0" y="0" flags="0x4"/>
      <component glyphName="s.smcp" x="509" y="0" flags="0x4"/>
    </TTGlyph>
    <TTGlyph name="grave" xMin="53" yMin="541" xMax="302" yMax="770">
      <contour>
        <pt x="147" y="770" on="1"/>
        <pt x="302" y="601" on="1"/>
        <pt x="294" y="580" on="0"/>
        <pt x="258" y="546" on="0"/>
        <pt x="238" y="541" on="1"/>
        <pt x="53" y="680" on="1"/>
        <pt x="61" y="708" on="0"/>
        <pt x="118" y="761" on="0"/>
      </contour>
    </TTGlyph>
    <TTGlyph name="grave.cap" xMin="48" yMin="727" xMax="333" yMax="939">
      <contour>
        <pt x="109" y="939" on="1"/>
        <pt x="333" y="802" on="1"/>
        <pt x="324" y="748" on="0"/>
        <pt x="289" y="727" on="1"/>
        <pt x="48" y="821" on="1"/>
        <pt x="50" y="853" on="0"/>
        <pt x="89" y="923" on="0"/>
      </contour>
    </TTGlyph>
    <TTGlyph name="greater" xMin="53" yMin="45" xMax="493" yMax="555">
      <contour>
        <pt x="479" y="241" on="1"/>
        <pt x="124" y="45" on="1"/>
        <pt x="95" y="61" on="0"/>
        <pt x="54" y="128" on="0"/>
        <pt x="53" y="165" on="1"/>
        <pt x="237" y="260" on="1"/>
        <pt x="277" y="280" on="0"/>
        <pt x="322" y="295" on="1"/>
        <pt x="322" y="303" on="1"/>
        <pt x="272" y="320" on="0"/>
        <pt x="237" y="339" on="1"/>
        <pt x="53" y="433" on="1"/>
        <pt x="56" y="470" on="0"/>
        <pt x="97" y="540" on="0"/>
        <pt x="125" y="555" on="1"/>
        <pt x="479" y="359" on="1"/>
        <pt x="493" y="297" on="0"/>
      </contour>
    </TTGlyph>
    <TTGlyph name="guillemotleft" xMin="22" yMin="26" xMax="586" yMax="489">
      <contour>
        <pt x="581" y="409" on="1"/>
        <pt x="459" y="258" on="1"/>
        <pt x="586" y="104" on="1"/>
        <pt x="579" y="80" on="0"/>
        <pt x="525" y="32" on="0"/>
        <pt x="500" y="26" on="1"/>
        <pt x="297" y="211" on="1"/>
        <pt x="290" y="229" on="0"/>
        <pt x="290" y="281" on="0"/>
        <pt x="297" y="299" on="1"/>
        <pt x="498" y="489" on="1"/>
        <pt x="523" y="483" on="0"/>
        <pt x="574" y="434" on="0"/>
      </contour>
      <contour>
        <pt x="314" y="409" on="1"/>
        <pt x="192" y="258" on="1"/>
        <pt x="319" y="104" on="1"/>
        <pt x="312" y="80" on="0"/>
        <pt x="258" y="32" on="0"/>
        <pt x="233" y="26" on="1"/>
        <pt x="30" y="211" on="1"/>
        <pt x="22" y="229" on="0"/>
        <pt x="22" y="281" on="0"/>
        <pt x="30" y="299" on="1"/>
        <pt x="231" y="489" on="1"/>
        <pt x="256" y="483" on="0"/>
        <pt x="307" y="434" on="0"/>
      </contour>
    </TTGlyph>
    <TTGlyph name="guillemotright" xMin="31" yMin="26" xMax="594" yMax="489">
      <contour>
        <pt x="35" y="105" on="1"/>
        <pt x="157" y="256" on="1"/>
        <pt x="31" y="410" on="1"/>
        <pt x="38" y="435" on="0"/>
        <pt x="91" y="483" on="0"/>
        <pt x="117" y="489" on="1"/>
        <pt x="319" y="304" on="1"/>
        <pt x="327" y="286" on="0"/>
        <pt x="327" y="233" on="0"/>
        <pt x="319" y="215" on="1"/>
        <pt x="118" y="26" on="1"/>
        <pt x="93" y="32" on="0"/>
        <pt x="43" y="81" on="0"/>
      </contour>
      <contour>
        <pt x="302" y="105" on="1"/>
        <pt x="424" y="256" on="1"/>
        <pt x="298" y="410" on="1"/>
        <pt x="305" y="435" on="0"/>
        <pt x="358" y="483" on="0"/>
        <pt x="384" y="489" on="1"/>
        <pt x="586" y="304" on="1"/>
        <pt x="594" y="286" on="0"/>
        <pt x="594" y="233" on="0"/>
        <pt x="586" y="215" on="1"/>
        <pt x="385" y="26" on="1"/>
        <pt x="360" y="32" on="0"/>
        <pt x="310" y="81" on="0"/>
      </contour>
    </TTGlyph>
    <TTGlyph name="guilsinglleft" xMin="22" yMin="26" xMax="319" yMax="489">
      <contour>
        <pt x="314" y="409" on="1"/>
        <pt x="192" y="258" on="1"/>
        <pt x="319" y="104" on="1"/>
        <pt x="312" y="80" on="0"/>
        <pt x="258" y="32" on="0"/>
        <pt x="233" y="26" on="1"/>
        <pt x="30" y="211" on="1"/>
        <pt x="22" y="229" on="0"/>
        <pt x="22" y="281" on="0"/>
        <pt x="30" y="299" on="1"/>
        <pt x="231" y="489" on="1"/>
        <pt x="256" y="483" on="0"/>
        <pt x="307" y="434" on="0"/>
      </contour>
    </TTGlyph>
    <TTGlyph name="guilsinglright" xMin="31" yMin="26" xMax="327" yMax="489">
      <contour>
        <pt x="35" y="105" on="1"/>
        <pt x="157" y="256" on="1"/>
        <pt x="31" y="410" on="1"/>
        <pt x="38" y="435" on="0"/>
        <pt x="91" y="483" on="0"/>
        <pt x="117" y="489" on="1"/>
        <pt x="319" y="304" on="1"/>
        <pt x="327" y="286" on="0"/>
        <pt x="327" y="233" on="0"/>
        <pt x="319" y="215" on="1"/>
        <pt x="118" y="26" on="1"/>
        <pt x="93" y="32" on="0"/>
        <pt x="43" y="81" on="0"/>
      </contour>
    </TTGlyph>
    <TTGlyph name="h" xMin="60" yMin="-8" xMax="511" yMax="736">
      <contour>
        <pt x="486" y="330" on="1"/>
        <pt x="486" y="125" on="1"/>
        <pt x="486" y="58" on="0"/>
        <pt x="511" y="26" on="1"/>
        <pt x="473" y="-8" on="0"/>
        <pt x="419" y="-8" on="1"/>
        <pt x="367" y="-8" on="0"/>
        <pt x="329" y="40" on="0"/>
        <pt x="329" y="89" on="1"/>
        <pt x="329" y="302" on="1"/>
        <pt x="329" y="336" on="0"/>
        <pt x="311" y="368" on="0"/>
        <pt x="285" y="368" on="1"/>
        <pt x="270" y="368" on="0"/>
        <pt x="232" y="352" on="0"/>
        <pt x="212" y="334" on="1"/>
        <pt x="212" y="0" on="1"/>
        <pt x="179" y="-6" on="0"/>
        <pt x="136" y="-6" on="1"/>
        <pt x="93" y="-6" on="0"/>
        <pt x="60" y="0" on="1"/>
        <pt x="60" y="729" on="1"/>
        <pt x="67" y="736" on="1"/>
        <pt x="127" y="736" on="1"/>
        <pt x="175" y="736" on="0"/>
        <pt x="212" y="694" on="0"/>
        <pt x="212" y="642" on="1"/>
        <pt x="212" y="453" on="1"/>
        <pt x="279" y="508" on="0"/>
        <pt x="346" y="508" on="1"/>
        <pt x="413" y="508" on="0"/>
        <pt x="486" y="411" on="0"/>
      </contour>
    </TTGlyph>
    <TTGlyph name="h.smcp" xMin="72" yMin="-6" xMax="561" yMax="558">
      <contour>
        <pt x="403" y="349" on="1"/>
        <pt x="402" y="408" on="1"/>
        <pt x="402" y="551" on="1"/>
        <pt x="433" y="558" on="0"/>
        <pt x="531" y="558" on="0"/>
        <pt x="561" y="551" on="1"/>
        <pt x="561" y="0" on="1"/>
        <pt x="527" y="-6" on="0"/>
        <pt x="436" y="-6" on="0"/>
        <pt x="402" y="0" on="1"/>
        <pt x="402" y="164" on="1"/>
        <pt x="403" y="223" on="1"/>
        <pt x="360" y="222" on="1"/>
        <pt x="273" y="222" on="1"/>
        <pt x="229" y="223" on="1"/>
        <pt x="230" y="164" on="1"/>
        <pt x="230" y="0" on="1"/>
        <pt x="199" y="-6" on="0"/>
        <pt x="102" y="-6" on="0"/>
        <pt x="72" y="0" on="1"/>
        <pt x="72" y="551" on="1"/>
        <pt x="101" y="558" on="0"/>
        <pt x="200" y="558" on="0"/>
        <pt x="230" y="551" on="1"/>
        <pt x="230" y="408" on="1"/>
        <pt x="229" y="349" on="1"/>
        <pt x="273" y="350" on="1"/>
        <pt x="360" y="350" on="1"/>
      </contour>
    </TTGlyph>
    <TTGlyph name="hbar" xMin="-18" yMin="-8" xMax="514" yMax="736">
      <contour>
        <pt x="489" y="330" on="1"/>
        <pt x="489" y="125" on="1"/>
        <pt x="489" y="58" on="0"/>
        <pt x="514" y="26" on="1"/>
        <pt x="476" y="-8" on="0"/>
        <pt x="422" y="-8" on="1"/>
        <pt x="370" y="-8" on="0"/>
        <pt x="332" y="40" on="0"/>
        <pt x="332" y="89" on="1"/>
        <pt x="332" y="302" on="1"/>
        <pt x="332" y="336" on="0"/>
        <pt x="314" y="368" on="0"/>
        <pt x="288" y="368" on="1"/>
        <pt x="273" y="368" on="0"/>
        <pt x="235" y="352" on="0"/>
        <pt x="215" y="334" on="1"/>
        <pt x="215" y="0" on="1"/>
        <pt x="198" y="-3" on="0"/>
        <pt x="160" y="-6" on="0"/>
        <pt x="140" y="-6" on="1"/>
        <pt x="97" y="-6" on="0"/>
        <pt x="63" y="0" on="1"/>
        <pt x="63" y="559" on="1"/>
        <pt x="-12" y="558" on="1"/>
        <pt x="-18" y="579" on="0"/>
        <pt x="-18" y="606" on="1"/>
        <pt x="-18" y="632" on="0"/>
        <pt x="-12" y="656" on="1"/>
        <pt x="63" y="654" on="1"/>
        <pt x="63" y="729" on="1"/>
        <pt x="70" y="736" on="1"/>
        <pt x="130" y="736" on="1"/>
        <pt x="175" y="736" on="0"/>
        <pt x="213" y="699" on="0"/>
        <pt x="215" y="654" on="1"/>
        <pt x="359" y="656" on="1"/>
        <pt x="362" y="642" on="0"/>
        <pt x="366" y="617" on="0"/>
        <pt x="366" y="605" on="1"/>
        <pt x="366" y="594" on="0"/>
        <pt x="362" y="570" on="0"/>
        <pt x="359" y="558" on="1"/>
        <pt x="215" y="559" on="1"/>
        <pt x="215" y="453" on="1"/>
        <pt x="282" y="508" on="0"/>
        <pt x="349" y="508" on="1"/>
        <pt x="416" y="508" on="0"/>
        <pt x="489" y="411" on="0"/>
      </contour>
    </TTGlyph>
    <TTGlyph name="hbar.smcp" xMin="11" yMin="-6" xMax="630" yMax="558">
      <contour>
        <pt x="233" y="218" on="1"/>
        <pt x="234" y="159" on="1"/>
        <pt x="234" y="0" on="1"/>
        <pt x="203" y="-6" on="0"/>
        <pt x="106" y="-6" on="0"/>
        <pt x="76" y="0" on="1"/>
        <pt x="76" y="402" on="1"/>
        <pt x="17" y="402" on="1"/>
        <pt x="11" y="424" on="0"/>
        <pt x="11" y="470" on="0"/>
        <pt x="17" y="494" on="1"/>
        <pt x="76" y="494" on="1"/>
        <pt x="76" y="551" on="1"/>
        <pt x="105" y="558" on="0"/>
        <pt x="204" y="558" on="0"/>
        <pt x="234" y="551" on="1"/>
        <pt x="234" y="494" on="1"/>
        <pt x="406" y="494" on="1"/>
        <pt x="406" y="551" on="1"/>
        <pt x="438" y="558" on="0"/>
        <pt x="535" y="558" on="0"/>
        <pt x="565" y="551" on="1"/>
        <pt x="565" y="494" on="1"/>
        <pt x="623" y="494" on="1"/>
        <pt x="630" y="472" on="0"/>
        <pt x="630" y="423" on="0"/>
        <pt x="623" y="402" on="1"/>
        <pt x="565" y="402" on="1"/>
        <pt x="565" y="0" on="1"/>
        <pt x="531" y="-6" on="0"/>
        <pt x="440" y="-6" on="0"/>
        <pt x="406" y="0" on="1"/>
        <pt x="406" y="159" on="1"/>
        <pt x="407" y="218" on="1"/>
        <pt x="364" y="217" on="1"/>
        <pt x="277" y="217" on="1"/>
      </contour>
      <contour>
        <pt x="233" y="342" on="1"/>
        <pt x="277" y="343" on="1"/>
        <pt x="364" y="343" on="1"/>
        <pt x="407" y="342" on="1"/>
        <pt x="406" y="402" on="1"/>
        <pt x="234" y="402" on="1"/>
      </contour>
    </TTGlyph>
    <TTGlyph name="hyphen" xMin="41" yMin="207" xMax="335" yMax="332">
      <contour>
        <pt x="329" y="207" on="1"/>
        <pt x="47" y="207" on="1"/>
        <pt x="41" y="232" on="0"/>
        <pt x="41" y="307" on="0"/>
        <pt x="47" y="332" on="1"/>
        <pt x="329" y="332" on="1"/>
        <pt x="335" y="307" on="0"/>
        <pt x="335" y="232" on="0"/>
      </contour>
    </TTGlyph>
    <TTGlyph name="i" xMin="15" yMin="-6" xMax="240" yMax="716">
      <contour>
        <pt x="240" y="384" on="1"/>
        <pt x="240" y="0" on="1"/>
        <pt x="223" y="-3" on="0"/>
        <pt x="183" y="-6" on="0"/>
        <pt x="162" y="-6" on="1"/>
        <pt x="141" y="-6" on="0"/>
        <pt x="100" y="-3" on="0"/>
        <pt x="83" y="0" on="1"/>
        <pt x="83" y="331" on="1"/>
        <pt x="83" y="389" on="0"/>
        <pt x="36" y="389" on="1"/>
        <pt x="21" y="389" on="1"/>
        <pt x="15" y="408" on="0"/>
        <pt x="15" y="442" on="1"/>
        <pt x="15" y="475" on="0"/>
        <pt x="21" y="498" on="1"/>
        <pt x="47" y="500" on="0"/>
        <pt x="91" y="503" on="0"/>
        <pt x="109" y="503" on="1"/>
        <pt x="131" y="503" on="1"/>
        <pt x="182" y="503" on="0"/>
        <pt x="240" y="439" on="0"/>
      </contour>
      <contour>
        <pt x="65" y="700" on="1"/>
        <pt x="94" y="716" on="0"/>
        <pt x="140" y="716" on="1"/>
        <pt x="187" y="716" on="0"/>
        <pt x="213" y="700" on="1"/>
        <pt x="225" y="673" on="0"/>
        <pt x="225" y="642" on="1"/>
        <pt x="225" y="611" on="0"/>
        <pt x="213" y="584" on="1"/>
        <pt x="184" y="569" on="0"/>
        <pt x="137" y="569" on="1"/>
        <pt x="90" y="569" on="0"/>
        <pt x="65" y="584" on="1"/>
        <pt x="53" y="611" on="0"/>
        <pt x="53" y="642" on="1"/>
        <pt x="53" y="673" on="0"/>
      </contour>
    </TTGlyph>
</ttFont>
